{"glyphs":{"0":{"ha":785,"x_min":43,"x_max":713,"o":"m 494 734 q 657 670 601 734 q 713 489 713 606 q 652 247 713 365 q 490 54 592 128 q 271 -20 388 -20 q 149 9 201 -20 q 70 93 98 37 q 43 228 43 149 q 106 469 43 351 q 273 661 169 587 q 494 734 378 734 m 468 710 q 325 640 393 710 q 213 455 256 570 q 171 215 171 340 q 297 5 171 5 q 441 79 375 5 q 546 270 507 153 q 585 510 585 387 q 554 664 585 617 q 468 710 524 710 z "},"1":{"ha":475,"x_min":69,"x_max":436,"o":"m 100 0 l 278 602 q 69 517 196 555 l 74 546 q 215 601 155 570 q 317 660 276 631 q 408 730 357 688 l 436 730 l 221 0 l 100 0 z "},"2":{"ha":699,"x_min":-29,"x_max":610,"o":"m 422 733 q 559 697 508 733 q 610 596 610 661 q 554 457 610 528 q 426 328 499 387 q 247 196 353 269 q 143 121 166 140 q 287 102 181 121 q 437 82 399 82 q 533 149 533 82 q 472 228 533 199 l 490 245 q 567 136 567 210 q 549 65 567 98 q 491 12 530 33 q 393 -8 452 -8 q 268 12 348 -8 q 190 28 222 22 q 119 34 157 34 q 46 26 78 34 q -29 0 14 18 l -22 29 q 68 95 -16 35 q 272 249 188 180 q 419 405 355 317 q 484 581 484 492 q 456 670 484 637 q 376 703 429 703 q 270 669 326 703 q 177 584 214 636 q 139 479 139 532 q 158 429 139 445 q 220 412 177 412 q 284 426 256 412 q 347 469 313 439 l 364 450 q 287 399 328 416 q 210 383 247 383 q 136 404 167 383 q 106 478 106 425 q 149 598 106 539 q 266 695 193 658 q 422 733 339 733 z "},"3":{"ha":673,"x_min":-111,"x_max":608,"o":"m 421 737 q 557 701 507 737 q 608 600 608 665 q 564 489 608 541 q 454 401 520 437 q 321 347 388 365 q 434 328 384 346 q 514 274 485 309 q 543 189 543 239 q 438 -20 543 70 q 180 -159 333 -111 q -111 -210 26 -208 l -104 -184 q 135 -131 15 -177 q 334 0 254 -84 q 414 199 414 84 q 382 288 414 254 q 296 325 351 322 q 247 307 263 312 q 215 301 231 301 q 191 315 191 301 q 192 322 191 317 q 258 348 197 348 q 285 347 275 348 q 387 404 340 368 q 461 486 433 440 q 489 582 489 532 q 458 673 489 640 q 375 707 428 707 q 275 680 328 707 q 186 611 222 653 q 151 525 151 568 q 170 475 151 491 q 232 458 189 458 q 318 479 279 458 l 334 458 q 222 429 279 429 q 149 450 179 429 q 118 524 118 471 q 159 624 118 574 q 271 706 201 674 q 421 737 340 737 z "},"4":{"ha":715,"x_min":-71,"x_max":603,"o":"m 395 47 l 330 -196 l 210 -196 l 275 47 l -71 47 l -62 77 l 543 734 l 579 734 l 416 126 l 603 126 l 581 47 l 395 47 m 409 551 l 20 126 l 296 126 l 409 551 z "},"5":{"ha":637,"x_min":-113,"x_max":610,"o":"m 610 737 q 419 585 540 585 q 342 610 393 585 q 303 628 318 623 q 273 634 288 634 q 265 633 268 634 l 110 315 q 201 351 155 339 q 304 363 247 363 q 464 319 411 363 q 517 204 517 276 q 415 -15 517 77 q 166 -153 313 -106 q -113 -205 20 -201 l -106 -180 q 120 -134 7 -180 q 309 -2 234 -89 q 385 201 385 84 q 349 289 385 257 q 239 321 313 321 q 85 283 165 321 l 71 290 l 279 720 q 323 717 304 721 q 368 705 342 713 q 421 690 398 695 q 478 685 445 685 q 593 747 557 685 l 610 737 z "},"6":{"ha":732,"x_min":50,"x_max":736,"o":"m 736 975 q 472 829 602 943 q 259 547 342 715 q 176 191 176 378 q 202 48 176 89 q 277 8 227 8 q 407 76 350 8 q 495 243 464 144 q 526 428 526 342 q 436 568 526 568 q 347 529 391 568 q 272 399 304 489 l 250 407 q 348 562 284 515 q 482 608 411 608 q 574 584 534 608 q 635 513 613 559 q 657 400 657 466 q 602 195 657 292 q 453 39 546 98 q 254 -20 360 -20 q 100 43 150 -20 q 50 229 50 105 q 162 594 50 426 q 433 870 273 762 q 728 1003 593 977 l 736 975 z "},"7":{"ha":676,"x_min":68,"x_max":751,"o":"m 751 714 q 621 557 708 656 q 467 370 528 449 q 350 190 406 291 q 264 -25 294 89 q 248 -95 258 -47 q 240 -135 241 -129 q 209 -185 231 -165 q 154 -205 186 -205 q 111 -159 111 -205 q 114 -127 111 -146 q 195 69 130 -39 q 341 275 260 176 q 541 506 422 373 q 667 651 635 612 q 463 591 579 591 q 394 597 424 591 q 323 614 363 603 q 221 632 259 632 q 134 608 167 632 q 102 539 102 585 q 149 442 102 481 q 294 379 195 403 l 286 358 q 68 554 68 400 q 89 635 68 596 q 155 698 111 673 q 264 722 199 722 q 343 713 307 722 q 429 687 380 705 q 512 661 477 670 q 587 652 547 652 q 659 666 628 652 q 715 714 690 680 l 751 714 z "},"8":{"ha":755,"x_min":14,"x_max":746,"o":"m 746 856 q 471 550 746 697 q 558 460 526 497 q 613 375 590 424 q 636 268 636 326 q 586 117 636 182 q 450 16 536 52 q 260 -20 363 -20 q 80 25 147 -20 q 14 160 14 69 q 111 364 14 273 q 347 514 209 454 q 279 587 306 554 q 235 660 252 619 q 218 747 218 700 q 266 880 218 822 q 390 971 313 939 q 550 1003 467 1003 q 692 966 638 1003 q 746 856 746 928 m 455 565 q 544 645 503 597 q 609 747 585 692 q 633 860 633 803 q 525 978 633 978 q 429 952 473 978 q 359 881 385 927 q 334 778 334 836 q 350 701 334 737 q 391 634 366 665 q 455 565 416 603 m 513 239 q 492 337 513 292 q 442 416 472 382 q 363 498 412 450 q 245 407 296 462 q 165 284 194 351 q 136 147 136 217 q 168 43 136 80 q 272 5 199 5 q 390 33 335 5 q 479 114 446 61 q 513 239 513 168 z "},"9":{"ha":713,"x_min":-25,"x_max":647,"o":"m 443 733 q 597 671 547 733 q 647 485 647 609 q 538 132 647 294 q 272 -133 429 -30 q -17 -261 115 -237 l -25 -233 q 232 -93 105 -203 q 440 179 359 16 q 521 524 521 342 q 496 665 521 625 q 421 705 471 705 q 290 637 347 705 q 202 471 233 570 q 171 286 171 372 q 261 146 171 146 q 350 185 307 146 q 425 315 393 225 l 447 307 q 350 152 413 199 q 215 106 287 106 q 123 130 163 106 q 62 201 84 154 q 40 314 40 248 q 96 518 40 421 q 244 674 151 615 q 443 733 337 733 z "}," ":{"ha":351,"x_min":0,"x_max":0,"o":""},"A":{"ha":873,"x_min":-121,"x_max":768,"o":"m 700 117 q 723 50 703 71 q 768 28 743 29 l 762 0 q 611 4 707 4 q 444 0 499 4 l 450 28 q 524 40 498 30 q 561 74 549 50 q 570 144 572 98 l 557 372 l 216 372 l 111 225 q 46 87 46 133 q 149 28 46 30 l 142 0 q -17 4 64 4 q -121 0 -77 4 l -114 28 q 25 149 -50 41 l 624 990 l 644 990 l 700 117 m 532 820 l 235 400 l 555 400 l 532 820 z "},"Á":{"ha":873,"x_min":-121,"x_max":914,"o":"m 0 0 m 700 117 q 723 50 703 71 q 768 28 743 29 l 762 0 q 611 4 707 4 q 444 0 499 4 l 450 28 q 524 40 498 30 q 561 74 549 50 q 570 144 572 98 l 557 372 l 216 372 l 111 225 q 46 87 46 133 q 149 28 46 30 l 142 0 q -17 4 64 4 q -121 0 -77 4 l -114 28 q 25 149 -50 41 l 624 990 l 644 990 l 700 117 m 532 820 l 235 400 l 555 400 l 532 820 m 547 1088 q 720 1213 628 1142 q 819 1284 788 1266 q 872 1301 846 1301 q 911 1278 901 1301 q 914 1264 914 1272 q 900 1231 914 1247 q 865 1203 885 1214 q 755 1156 831 1183 q 557 1072 640 1113 l 547 1088 z "},"Ă":{"ha":873,"x_min":-121,"x_max":985,"o":"m 0 0 m 700 117 q 723 50 703 71 q 768 28 743 29 l 762 0 q 611 4 707 4 q 444 0 499 4 l 450 28 q 524 40 498 30 q 561 74 549 50 q 570 144 572 98 l 557 372 l 216 372 l 111 225 q 46 87 46 133 q 149 28 46 30 l 142 0 q -17 4 64 4 q -121 0 -77 4 l -114 28 q 25 149 -50 41 l 624 990 l 644 990 l 700 117 m 532 820 l 235 400 l 555 400 l 532 820 m 664 1179 q 822 1200 739 1179 q 970 1260 906 1221 l 985 1244 q 888 1171 947 1207 q 762 1110 828 1134 q 640 1086 696 1086 q 538 1107 583 1086 q 467 1165 494 1128 q 431 1247 440 1202 l 453 1254 q 537 1196 488 1213 q 664 1179 585 1179 z "},"Â":{"ha":873,"x_min":-121,"x_max":905,"o":"m 0 0 m 700 117 q 723 50 703 71 q 768 28 743 29 l 762 0 q 611 4 707 4 q 444 0 499 4 l 450 28 q 524 40 498 30 q 561 74 549 50 q 570 144 572 98 l 557 372 l 216 372 l 111 225 q 46 87 46 133 q 149 28 46 30 l 142 0 q -17 4 64 4 q -121 0 -77 4 l -114 28 q 25 149 -50 41 l 624 990 l 644 990 l 700 117 m 532 820 l 235 400 l 555 400 l 532 820 m 653 1166 q 367 1072 500 1102 l 360 1092 q 546 1171 460 1122 q 686 1272 633 1219 l 711 1272 q 794 1162 750 1205 q 905 1092 838 1118 l 899 1072 q 777 1105 823 1086 q 674 1155 730 1124 l 653 1166 z "},"Ä":{"ha":873,"x_min":-121,"x_max":868,"o":"m 0 0 m 700 117 q 723 50 703 71 q 768 28 743 29 l 762 0 q 611 4 707 4 q 444 0 499 4 l 450 28 q 524 40 498 30 q 561 74 549 50 q 570 144 572 98 l 557 372 l 216 372 l 111 225 q 46 87 46 133 q 149 28 46 30 l 142 0 q -17 4 64 4 q -121 0 -77 4 l -114 28 q 25 149 -50 41 l 624 990 l 644 990 l 700 117 m 532 820 l 235 400 l 555 400 l 532 820 m 411 1143 q 424 1185 411 1164 q 458 1220 437 1206 q 505 1234 480 1234 q 554 1213 534 1234 q 574 1164 574 1193 q 561 1120 574 1141 q 527 1085 548 1099 q 481 1072 505 1072 q 430 1092 450 1072 q 411 1143 411 1112 m 706 1143 q 719 1185 706 1164 q 753 1220 732 1206 q 799 1234 774 1234 q 848 1213 828 1234 q 868 1164 868 1193 q 855 1120 868 1141 q 821 1085 842 1099 q 775 1072 800 1072 q 725 1093 745 1072 q 706 1143 706 1113 z "},"À":{"ha":873,"x_min":-121,"x_max":768,"o":"m 0 0 m 700 117 q 723 50 703 71 q 768 28 743 29 l 762 0 q 611 4 707 4 q 444 0 499 4 l 450 28 q 524 40 498 30 q 561 74 549 50 q 570 144 572 98 l 557 372 l 216 372 l 111 225 q 46 87 46 133 q 149 28 46 30 l 142 0 q -17 4 64 4 q -121 0 -77 4 l -114 28 q 25 149 -50 41 l 624 990 l 644 990 l 700 117 m 532 820 l 235 400 l 555 400 l 532 820 m 673 1068 q 538 1170 612 1118 q 454 1235 474 1215 q 436 1260 444 1246 q 428 1289 428 1275 q 437 1317 428 1305 q 469 1331 449 1331 q 501 1322 484 1331 q 529 1301 517 1314 q 589 1221 547 1282 q 688 1082 637 1145 l 673 1068 z "},"Ā":{"ha":873,"x_min":-121,"x_max":884,"o":"m 0 0 m 700 117 q 723 50 703 71 q 768 28 743 29 l 762 0 q 611 4 707 4 q 444 0 499 4 l 450 28 q 524 40 498 30 q 561 74 549 50 q 570 144 572 98 l 557 372 l 216 372 l 111 225 q 46 87 46 133 q 149 28 46 30 l 142 0 q -17 4 64 4 q -121 0 -77 4 l -114 28 q 25 149 -50 41 l 624 990 l 644 990 l 700 117 m 532 820 l 235 400 l 555 400 l 532 820 m 387 1137 l 395 1173 l 884 1173 l 876 1137 l 387 1137 z "},"Ą":{"ha":873,"x_min":-121,"x_max":774,"o":"m 774 -182 q 595 -261 690 -261 q 518 -239 545 -261 q 492 -180 492 -218 q 556 -73 492 -119 q 705 3 620 -26 q 611 4 645 4 q 444 0 499 4 l 450 28 q 524 40 498 30 q 561 74 549 50 q 570 144 572 98 l 557 372 l 216 372 l 111 225 q 46 87 46 133 q 149 28 46 30 l 142 0 q -17 4 64 4 q -121 0 -77 4 l -114 28 q 25 149 -50 41 l 624 990 l 644 990 l 700 117 q 723 50 703 71 q 768 28 743 29 l 762 0 l 750 1 q 643 -56 688 -19 q 597 -143 597 -93 q 652 -195 597 -195 q 709 -183 678 -195 q 759 -158 740 -172 l 774 -182 m 532 820 l 235 400 l 555 400 l 532 820 z "},"Å":{"ha":873,"x_min":-121,"x_max":795,"o":"m 0 0 m 700 117 q 723 50 703 71 q 768 28 743 29 l 762 0 q 611 4 707 4 q 444 0 499 4 l 450 28 q 524 40 498 30 q 561 74 549 50 q 570 144 572 98 l 557 372 l 216 372 l 111 225 q 46 87 46 133 q 149 28 46 30 l 142 0 q -17 4 64 4 q -121 0 -77 4 l -114 28 q 25 149 -50 41 l 624 990 l 644 990 l 700 117 m 532 820 l 235 400 l 555 400 l 532 820 m 675 1284 q 736 1271 709 1284 q 779 1232 763 1257 q 795 1174 795 1207 q 773 1103 795 1136 q 715 1050 751 1070 q 640 1031 680 1031 q 557 1061 589 1031 q 524 1141 524 1090 q 545 1214 524 1181 q 600 1265 565 1246 q 675 1284 634 1284 m 645 1060 q 701 1075 674 1060 q 743 1116 727 1090 q 759 1175 759 1143 q 746 1218 759 1200 q 713 1246 733 1236 q 670 1255 692 1255 q 617 1239 642 1255 q 576 1198 591 1223 q 560 1143 560 1172 q 585 1082 560 1104 q 645 1060 610 1060 z "},"Ã":{"ha":873,"x_min":-121,"x_max":943,"o":"m 0 0 m 700 117 q 723 50 703 71 q 768 28 743 29 l 762 0 q 611 4 707 4 q 444 0 499 4 l 450 28 q 524 40 498 30 q 561 74 549 50 q 570 144 572 98 l 557 372 l 216 372 l 111 225 q 46 87 46 133 q 149 28 46 30 l 142 0 q -17 4 64 4 q -121 0 -77 4 l -114 28 q 25 149 -50 41 l 624 990 l 644 990 l 700 117 m 532 820 l 235 400 l 555 400 l 532 820 m 581 1243 q 637 1235 612 1243 q 679 1216 661 1227 q 720 1187 696 1205 q 769 1153 747 1164 q 821 1141 791 1141 q 918 1222 874 1141 l 943 1215 q 864 1107 913 1143 q 763 1072 816 1072 q 707 1080 732 1072 q 666 1099 683 1088 q 625 1128 648 1110 q 575 1163 597 1152 q 523 1174 553 1174 q 425 1093 469 1174 l 400 1100 q 479 1208 431 1173 q 581 1243 528 1243 z "},"Æ":{"ha":1246,"x_min":-111,"x_max":1297,"o":"m 1010 979 q 1297 983 1210 979 q 1244 819 1276 923 q 1226 733 1232 773 l 1196 733 q 1206 831 1206 791 q 1177 924 1206 897 q 1083 951 1148 951 l 954 951 q 882 943 906 951 q 843 912 858 935 q 815 836 829 888 l 728 509 l 878 509 q 943 529 917 509 q 985 581 969 550 q 1021 664 1001 612 l 1051 664 q 1011 522 1034 608 q 1004 494 1006 501 q 968 325 989 444 l 937 325 q 941 368 937 332 q 945 411 945 397 q 929 460 945 441 q 872 481 913 478 l 721 481 l 632 147 q 620 79 620 100 q 629 50 620 60 q 657 36 638 39 q 711 32 676 32 l 854 32 q 964 55 922 32 q 1039 130 1007 78 q 1103 278 1070 182 l 1133 278 q 1104 178 1120 244 q 1068 0 1080 92 q 754 4 974 4 q 354 0 490 4 l 359 28 q 435 39 410 30 q 474 71 460 47 q 503 147 489 95 l 591 481 l 366 481 l 56 131 q 16 65 16 85 q 102 28 16 35 l 102 0 q -18 4 64 4 q -111 0 -77 4 l -111 28 q 8 117 -67 30 l 698 897 q 690 932 699 920 q 662 949 682 944 q 604 956 642 954 l 611 983 q 772 981 711 981 l 854 1074 l 890 1074 l 808 980 q 918 979 867 979 q 1010 979 970 979 m 686 836 l 689 846 l 390 509 l 599 509 l 686 836 z "},"B":{"ha":878,"x_min":-46,"x_max":833,"o":"m 549 519 q 777 293 777 482 q 717 132 777 199 q 562 33 657 66 q 363 0 467 0 q 261 2 315 0 q 123 4 137 4 q -46 0 13 4 l -40 28 q 35 39 10 30 q 75 71 60 47 q 103 147 90 95 l 286 836 q 298 903 298 882 q 277 943 298 930 q 204 956 257 955 l 211 983 q 376 979 268 979 q 470 981 406 979 q 572 982 536 982 q 767 935 701 982 q 833 804 833 887 q 793 680 833 736 q 689 583 753 623 q 549 519 625 543 m 422 522 q 566 560 503 522 q 662 660 628 597 q 696 794 696 722 q 660 916 696 877 q 546 956 625 956 q 480 947 504 956 q 444 919 457 939 q 419 857 430 899 l 331 522 l 422 522 m 302 32 q 558 103 479 32 q 637 314 637 174 q 439 498 637 498 l 325 498 l 232 147 q 219 79 219 98 q 237 43 219 54 q 302 32 256 32 z "},"C":{"ha":930,"x_min":71,"x_max":989,"o":"m 989 983 q 900 664 943 863 l 869 664 q 878 759 878 718 q 856 869 878 824 q 781 949 830 921 q 673 978 732 978 q 451 869 558 978 q 276 596 343 761 q 210 278 210 432 q 262 75 210 144 q 408 5 315 5 q 537 34 469 5 q 656 114 606 62 q 718 198 691 150 q 781 334 745 246 l 811 334 q 729 0 748 103 l 699 0 q 703 47 703 30 q 686 83 703 83 q 657 71 675 83 q 574 21 608 39 q 496 -8 541 3 q 395 -20 452 -20 q 155 64 240 -20 q 71 307 71 147 q 151 630 71 467 q 370 898 231 792 q 676 1003 509 1003 q 770 991 732 1003 q 832 961 808 979 q 884 913 855 943 q 905 901 896 901 q 960 983 929 901 l 989 983 z "},"Ć":{"ha":930,"x_min":71,"x_max":989,"o":"m 71 0 m 989 983 q 900 664 943 863 l 869 664 q 878 759 878 718 q 856 869 878 824 q 781 949 830 921 q 673 978 732 978 q 451 869 558 978 q 276 596 343 761 q 210 278 210 432 q 262 75 210 144 q 408 5 315 5 q 537 34 469 5 q 656 114 606 62 q 718 198 691 150 q 781 334 745 246 l 811 334 q 729 0 748 103 l 699 0 q 703 47 703 30 q 686 83 703 83 q 657 71 675 83 q 574 21 608 39 q 496 -8 541 3 q 395 -20 452 -20 q 155 64 240 -20 q 71 307 71 147 q 151 630 71 467 q 370 898 231 792 q 676 1003 509 1003 q 770 991 732 1003 q 832 961 808 979 q 884 913 855 943 q 905 901 896 901 q 960 983 929 901 l 989 983 m 597 1088 q 770 1213 678 1142 q 869 1284 838 1266 q 922 1301 896 1301 q 962 1278 951 1301 q 964 1264 964 1272 q 950 1231 964 1247 q 916 1203 935 1214 q 805 1156 882 1183 q 607 1072 690 1113 l 597 1088 z "},"Č":{"ha":930,"x_min":71,"x_max":1023,"o":"m 71 0 m 989 983 q 900 664 943 863 l 869 664 q 878 759 878 718 q 856 869 878 824 q 781 949 830 921 q 673 978 732 978 q 451 869 558 978 q 276 596 343 761 q 210 278 210 432 q 262 75 210 144 q 408 5 315 5 q 537 34 469 5 q 656 114 606 62 q 718 198 691 150 q 781 334 745 246 l 811 334 q 729 0 748 103 l 699 0 q 703 47 703 30 q 686 83 703 83 q 657 71 675 83 q 574 21 608 39 q 496 -8 541 3 q 395 -20 452 -20 q 155 64 240 -20 q 71 307 71 147 q 151 630 71 467 q 370 898 231 792 q 676 1003 509 1003 q 770 991 732 1003 q 832 961 808 979 q 884 913 855 943 q 905 901 896 901 q 960 983 929 901 l 989 983 m 730 1189 q 1016 1283 885 1255 l 1023 1264 q 836 1185 922 1233 q 696 1083 749 1137 l 671 1083 q 588 1194 632 1150 q 478 1264 544 1238 l 484 1283 q 605 1251 559 1270 q 707 1201 652 1232 l 730 1189 z "},"Ç":{"ha":930,"x_min":71,"x_max":989,"o":"m 989 983 q 900 664 943 863 l 869 664 q 878 759 878 718 q 856 869 878 824 q 781 949 830 921 q 673 978 732 978 q 451 869 558 978 q 276 596 343 761 q 210 278 210 432 q 262 75 210 144 q 408 5 315 5 q 537 34 469 5 q 656 114 606 62 q 718 198 691 150 q 781 334 745 246 l 811 334 q 729 0 748 103 l 699 0 q 703 47 703 29 q 686 83 703 83 q 657 71 675 83 q 577 22 609 39 q 503 -6 545 5 q 408 -20 461 -18 l 370 -100 q 440 -90 404 -90 q 494 -105 475 -90 q 514 -146 514 -120 q 481 -210 514 -184 q 399 -249 448 -236 q 302 -261 350 -261 q 220 -252 256 -261 q 163 -231 183 -243 l 172 -210 q 283 -228 220 -228 q 342 -221 309 -228 q 400 -198 376 -214 q 425 -157 425 -182 q 372 -123 425 -123 q 315 -134 344 -123 l 370 -19 q 149 71 227 -12 q 71 307 71 154 q 151 630 71 467 q 370 898 231 792 q 676 1003 509 1003 q 770 991 732 1003 q 832 961 808 979 q 884 913 855 943 q 905 901 896 901 q 960 983 929 901 l 989 983 z "},"Ĉ":{"ha":930,"x_min":71,"x_max":989,"o":"m 71 0 m 989 983 q 900 664 943 863 l 869 664 q 878 759 878 718 q 856 869 878 824 q 781 949 830 921 q 673 978 732 978 q 451 869 558 978 q 276 596 343 761 q 210 278 210 432 q 262 75 210 144 q 408 5 315 5 q 537 34 469 5 q 656 114 606 62 q 718 198 691 150 q 781 334 745 246 l 811 334 q 729 0 748 103 l 699 0 q 703 47 703 30 q 686 83 703 83 q 657 71 675 83 q 574 21 608 39 q 496 -8 541 3 q 395 -20 452 -20 q 155 64 240 -20 q 71 307 71 147 q 151 630 71 467 q 370 898 231 792 q 676 1003 509 1003 q 770 991 732 1003 q 832 961 808 979 q 884 913 855 943 q 905 901 896 901 q 960 983 929 901 l 989 983 m 703 1166 q 417 1072 550 1102 l 410 1092 q 596 1171 510 1122 q 736 1272 683 1219 l 762 1272 q 844 1162 800 1205 q 955 1092 888 1118 l 949 1072 q 827 1105 873 1086 q 724 1155 781 1124 l 703 1166 z "},"Ċ":{"ha":930,"x_min":71,"x_max":989,"o":"m 71 0 m 989 983 q 900 664 943 863 l 869 664 q 878 759 878 718 q 856 869 878 824 q 781 949 830 921 q 673 978 732 978 q 451 869 558 978 q 276 596 343 761 q 210 278 210 432 q 262 75 210 144 q 408 5 315 5 q 537 34 469 5 q 656 114 606 62 q 718 198 691 150 q 781 334 745 246 l 811 334 q 729 0 748 103 l 699 0 q 703 47 703 30 q 686 83 703 83 q 657 71 675 83 q 574 21 608 39 q 496 -8 541 3 q 395 -20 452 -20 q 155 64 240 -20 q 71 307 71 147 q 151 630 71 467 q 370 898 231 792 q 676 1003 509 1003 q 770 991 732 1003 q 832 961 808 979 q 884 913 855 943 q 905 901 896 901 q 960 983 929 901 l 989 983 m 644 1146 q 658 1195 644 1171 q 696 1234 672 1219 q 747 1250 720 1250 q 799 1229 779 1250 q 818 1177 818 1208 q 804 1127 818 1152 q 766 1087 790 1103 q 714 1072 742 1072 q 664 1093 683 1072 q 644 1146 644 1114 z "},"D":{"ha":1007,"x_min":-41,"x_max":978,"o":"m 978 676 q 892 347 978 503 q 655 95 806 191 q 319 0 505 0 q 239 2 288 0 q 125 4 123 4 q -41 0 13 4 l -37 28 q 34 39 10 30 q 73 72 58 47 q 102 147 88 96 l 283 836 q 296 905 296 886 q 276 943 296 932 q 203 956 256 954 l 207 983 q 342 979 281 979 l 376 979 l 433 981 q 586 983 542 983 q 880 905 781 983 q 978 676 978 827 m 302 25 q 597 119 475 25 q 782 369 720 213 q 844 711 844 526 q 774 898 844 837 q 547 958 703 958 q 479 948 504 958 q 440 913 455 939 q 412 839 425 888 l 231 144 q 218 76 218 96 q 237 37 218 50 q 302 25 256 25 z "},"Ð":{"ha":1007,"x_min":-41,"x_max":978,"o":"m 586 983 q 880 905 781 983 q 978 676 978 827 q 892 347 978 503 q 655 95 806 191 q 319 0 505 0 q 239 2 288 0 q 125 4 123 4 q -41 0 13 4 l -37 28 q 34 39 10 30 q 73 72 58 47 q 102 147 88 96 l 189 479 l 92 479 l 100 515 l 199 515 l 283 836 q 296 905 296 886 q 276 943 296 932 q 203 956 256 954 l 207 983 q 342 979 281 979 l 376 979 l 433 981 q 586 983 542 983 m 302 25 q 597 119 475 25 q 782 369 720 213 q 844 711 844 526 q 774 898 844 837 q 547 958 703 958 q 479 948 504 958 q 440 913 455 939 q 412 839 425 888 l 328 515 l 589 515 l 581 479 l 318 479 l 231 144 q 218 76 218 96 q 237 37 218 50 q 302 25 256 25 z "},"Ď":{"ha":1007,"x_min":-41,"x_max":978,"o":"m 0 0 m 978 676 q 892 347 978 503 q 655 95 806 191 q 319 0 505 0 q 239 2 288 0 q 125 4 123 4 q -41 0 13 4 l -37 28 q 34 39 10 30 q 73 72 58 47 q 102 147 88 96 l 283 836 q 296 905 296 886 q 276 943 296 932 q 203 956 256 954 l 207 983 q 342 979 281 979 l 376 979 l 433 981 q 586 983 542 983 q 880 905 781 983 q 978 676 978 827 m 302 25 q 597 119 475 25 q 782 369 720 213 q 844 711 844 526 q 774 898 844 837 q 547 958 703 958 q 479 948 504 958 q 440 913 455 939 q 412 839 425 888 l 231 144 q 218 76 218 96 q 237 37 218 50 q 302 25 256 25 m 617 1189 q 903 1283 772 1255 l 910 1264 q 723 1185 810 1233 q 584 1083 637 1137 l 559 1083 q 475 1194 519 1150 q 366 1264 431 1238 l 371 1283 q 493 1251 446 1270 q 595 1201 539 1232 l 617 1189 z "},"Đ":{"ha":1007,"x_min":-41,"x_max":978,"o":"m 0 0 m 586 983 q 880 905 781 983 q 978 676 978 827 q 892 347 978 503 q 655 95 806 191 q 319 0 505 0 q 239 2 288 0 q 125 4 123 4 q -41 0 13 4 l -37 28 q 34 39 10 30 q 73 72 58 47 q 102 147 88 96 l 189 479 l 92 479 l 100 515 l 199 515 l 283 836 q 296 905 296 886 q 276 943 296 932 q 203 956 256 954 l 207 983 q 342 979 281 979 l 376 979 l 433 981 q 586 983 542 983 m 302 25 q 597 119 475 25 q 782 369 720 213 q 844 711 844 526 q 774 898 844 837 q 547 958 703 958 q 479 948 504 958 q 440 913 455 939 q 412 839 425 888 l 328 515 l 589 515 l 581 479 l 318 479 l 231 144 q 218 76 218 96 q 237 37 218 50 q 302 25 256 25 z "},"E":{"ha":847,"x_min":-49,"x_max":892,"o":"m 615 979 q 892 983 810 979 q 839 819 855 883 q 819 733 823 765 l 787 733 q 800 845 800 808 q 787 908 800 885 q 744 941 774 930 q 660 951 713 951 l 558 951 q 484 943 509 951 q 444 912 459 935 q 415 836 429 888 l 328 509 l 419 509 q 500 532 468 509 q 550 586 532 555 q 586 663 568 616 q 597 692 596 690 l 629 692 q 578 519 600 600 l 572 494 q 528 297 554 429 l 496 297 l 498 315 q 507 391 507 368 q 486 457 507 434 q 411 481 465 481 l 320 481 l 231 147 q 218 80 218 104 q 228 50 218 60 q 257 36 237 39 q 313 32 277 32 l 414 32 q 552 55 500 32 q 637 129 603 78 q 707 278 671 180 l 739 278 q 708 178 726 244 q 671 0 688 103 q 353 4 576 4 q -49 0 86 4 l -41 28 q 33 39 9 30 q 73 71 58 47 q 102 147 87 95 l 286 836 q 298 904 298 880 q 289 935 298 924 q 261 950 280 945 q 205 956 241 954 l 212 983 q 615 979 349 979 z "},"É":{"ha":847,"x_min":-49,"x_max":892,"o":"m 0 0 m 615 979 q 892 983 810 979 q 839 819 855 883 q 819 733 823 765 l 787 733 q 800 845 800 808 q 787 908 800 885 q 744 941 774 930 q 660 951 713 951 l 558 951 q 484 943 509 951 q 444 912 459 935 q 415 836 429 888 l 328 509 l 419 509 q 500 532 468 509 q 550 586 532 555 q 586 663 568 616 q 597 692 596 690 l 629 692 q 578 519 600 600 l 572 494 q 528 297 554 429 l 496 297 l 498 315 q 507 391 507 368 q 486 457 507 434 q 411 481 465 481 l 320 481 l 231 147 q 218 80 218 104 q 228 50 218 60 q 257 36 237 39 q 313 32 277 32 l 414 32 q 552 55 500 32 q 637 129 603 78 q 707 278 671 180 l 739 278 q 708 178 726 244 q 671 0 688 103 q 353 4 576 4 q -49 0 86 4 l -41 28 q 33 39 9 30 q 73 71 58 47 q 102 147 87 95 l 286 836 q 298 904 298 880 q 289 935 298 924 q 261 950 280 945 q 205 956 241 954 l 212 983 q 615 979 349 979 m 498 1088 q 671 1213 579 1142 q 770 1284 739 1266 q 823 1301 797 1301 q 863 1278 852 1301 q 865 1264 865 1272 q 851 1231 865 1247 q 817 1203 836 1214 q 706 1156 783 1183 q 508 1072 591 1113 l 498 1088 z "},"Ĕ":{"ha":847,"x_min":-49,"x_max":936,"o":"m 0 0 m 615 979 q 892 983 810 979 q 839 819 855 883 q 819 733 823 765 l 787 733 q 800 845 800 808 q 787 908 800 885 q 744 941 774 930 q 660 951 713 951 l 558 951 q 484 943 509 951 q 444 912 459 935 q 415 836 429 888 l 328 509 l 419 509 q 500 532 468 509 q 550 586 532 555 q 586 663 568 616 q 597 692 596 690 l 629 692 q 578 519 600 600 l 572 494 q 528 297 554 429 l 496 297 l 498 315 q 507 391 507 368 q 486 457 507 434 q 411 481 465 481 l 320 481 l 231 147 q 218 80 218 104 q 228 50 218 60 q 257 36 237 39 q 313 32 277 32 l 414 32 q 552 55 500 32 q 637 129 603 78 q 707 278 671 180 l 739 278 q 708 178 726 244 q 671 0 688 103 q 353 4 576 4 q -49 0 86 4 l -41 28 q 33 39 9 30 q 73 71 58 47 q 102 147 87 95 l 286 836 q 298 904 298 880 q 289 935 298 924 q 261 950 280 945 q 205 956 241 954 l 212 983 q 615 979 349 979 m 615 1179 q 773 1200 690 1179 q 922 1260 857 1221 l 936 1244 q 839 1171 899 1207 q 713 1110 779 1134 q 591 1086 647 1086 q 490 1107 534 1086 q 418 1165 446 1128 q 382 1247 391 1202 l 404 1254 q 488 1196 439 1213 q 615 1179 536 1179 z "},"Ě":{"ha":847,"x_min":-49,"x_max":924,"o":"m 0 0 m 615 979 q 892 983 810 979 q 839 819 855 883 q 819 733 823 765 l 787 733 q 800 845 800 808 q 787 908 800 885 q 744 941 774 930 q 660 951 713 951 l 558 951 q 484 943 509 951 q 444 912 459 935 q 415 836 429 888 l 328 509 l 419 509 q 500 532 468 509 q 550 586 532 555 q 586 663 568 616 q 597 692 596 690 l 629 692 q 578 519 600 600 l 572 494 q 528 297 554 429 l 496 297 l 498 315 q 507 391 507 368 q 486 457 507 434 q 411 481 465 481 l 320 481 l 231 147 q 218 80 218 104 q 228 50 218 60 q 257 36 237 39 q 313 32 277 32 l 414 32 q 552 55 500 32 q 637 129 603 78 q 707 278 671 180 l 739 278 q 708 178 726 244 q 671 0 688 103 q 353 4 576 4 q -49 0 86 4 l -41 28 q 33 39 9 30 q 73 71 58 47 q 102 147 87 95 l 286 836 q 298 904 298 880 q 289 935 298 924 q 261 950 280 945 q 205 956 241 954 l 212 983 q 615 979 349 979 m 631 1189 q 917 1283 786 1255 l 924 1264 q 737 1185 823 1233 q 597 1083 650 1137 l 572 1083 q 489 1194 533 1150 q 379 1264 445 1238 l 385 1283 q 506 1251 460 1270 q 608 1201 553 1232 l 631 1189 z "},"Ê":{"ha":847,"x_min":-49,"x_max":892,"o":"m 0 0 m 615 979 q 892 983 810 979 q 839 819 855 883 q 819 733 823 765 l 787 733 q 800 845 800 808 q 787 908 800 885 q 744 941 774 930 q 660 951 713 951 l 558 951 q 484 943 509 951 q 444 912 459 935 q 415 836 429 888 l 328 509 l 419 509 q 500 532 468 509 q 550 586 532 555 q 586 663 568 616 q 597 692 596 690 l 629 692 q 578 519 600 600 l 572 494 q 528 297 554 429 l 496 297 l 498 315 q 507 391 507 368 q 486 457 507 434 q 411 481 465 481 l 320 481 l 231 147 q 218 80 218 104 q 228 50 218 60 q 257 36 237 39 q 313 32 277 32 l 414 32 q 552 55 500 32 q 637 129 603 78 q 707 278 671 180 l 739 278 q 708 178 726 244 q 671 0 688 103 q 353 4 576 4 q -49 0 86 4 l -41 28 q 33 39 9 30 q 73 71 58 47 q 102 147 87 95 l 286 836 q 298 904 298 880 q 289 935 298 924 q 261 950 280 945 q 205 956 241 954 l 212 983 q 615 979 349 979 m 604 1166 q 318 1072 451 1102 l 311 1092 q 497 1171 411 1122 q 637 1272 584 1219 l 663 1272 q 745 1162 701 1205 q 856 1092 789 1118 l 850 1072 q 728 1105 774 1086 q 625 1155 682 1124 l 604 1166 z "},"Ë":{"ha":847,"x_min":-49,"x_max":892,"o":"m 0 0 m 615 979 q 892 983 810 979 q 839 819 855 883 q 819 733 823 765 l 787 733 q 800 845 800 808 q 787 908 800 885 q 744 941 774 930 q 660 951 713 951 l 558 951 q 484 943 509 951 q 444 912 459 935 q 415 836 429 888 l 328 509 l 419 509 q 500 532 468 509 q 550 586 532 555 q 586 663 568 616 q 597 692 596 690 l 629 692 q 578 519 600 600 l 572 494 q 528 297 554 429 l 496 297 l 498 315 q 507 391 507 368 q 486 457 507 434 q 411 481 465 481 l 320 481 l 231 147 q 218 80 218 104 q 228 50 218 60 q 257 36 237 39 q 313 32 277 32 l 414 32 q 552 55 500 32 q 637 129 603 78 q 707 278 671 180 l 739 278 q 708 178 726 244 q 671 0 688 103 q 353 4 576 4 q -49 0 86 4 l -41 28 q 33 39 9 30 q 73 71 58 47 q 102 147 87 95 l 286 836 q 298 904 298 880 q 289 935 298 924 q 261 950 280 945 q 205 956 241 954 l 212 983 q 615 979 349 979 m 362 1143 q 375 1185 362 1164 q 410 1220 388 1206 q 456 1234 431 1234 q 505 1213 485 1234 q 525 1164 525 1193 q 512 1120 525 1141 q 478 1085 499 1099 q 432 1072 456 1072 q 381 1092 401 1072 q 362 1143 362 1112 m 657 1143 q 670 1185 657 1164 q 704 1220 683 1206 q 750 1234 726 1234 q 799 1213 779 1234 q 819 1164 819 1193 q 806 1120 819 1141 q 772 1085 793 1099 q 726 1072 751 1072 q 676 1093 696 1072 q 657 1143 657 1113 z "},"Ė":{"ha":847,"x_min":-49,"x_max":892,"o":"m 0 0 m 615 979 q 892 983 810 979 q 839 819 855 883 q 819 733 823 765 l 787 733 q 800 845 800 808 q 787 908 800 885 q 744 941 774 930 q 660 951 713 951 l 558 951 q 484 943 509 951 q 444 912 459 935 q 415 836 429 888 l 328 509 l 419 509 q 500 532 468 509 q 550 586 532 555 q 586 663 568 616 q 597 692 596 690 l 629 692 q 578 519 600 600 l 572 494 q 528 297 554 429 l 496 297 l 498 315 q 507 391 507 368 q 486 457 507 434 q 411 481 465 481 l 320 481 l 231 147 q 218 80 218 104 q 228 50 218 60 q 257 36 237 39 q 313 32 277 32 l 414 32 q 552 55 500 32 q 637 129 603 78 q 707 278 671 180 l 739 278 q 708 178 726 244 q 671 0 688 103 q 353 4 576 4 q -49 0 86 4 l -41 28 q 33 39 9 30 q 73 71 58 47 q 102 147 87 95 l 286 836 q 298 904 298 880 q 289 935 298 924 q 261 950 280 945 q 205 956 241 954 l 212 983 q 615 979 349 979 m 545 1146 q 559 1195 545 1171 q 597 1234 573 1219 q 648 1250 621 1250 q 700 1229 680 1250 q 719 1177 719 1208 q 705 1127 719 1152 q 667 1087 691 1103 q 615 1072 643 1072 q 565 1093 584 1072 q 545 1146 545 1114 z "},"È":{"ha":847,"x_min":-49,"x_max":892,"o":"m 0 0 m 615 979 q 892 983 810 979 q 839 819 855 883 q 819 733 823 765 l 787 733 q 800 845 800 808 q 787 908 800 885 q 744 941 774 930 q 660 951 713 951 l 558 951 q 484 943 509 951 q 444 912 459 935 q 415 836 429 888 l 328 509 l 419 509 q 500 532 468 509 q 550 586 532 555 q 586 663 568 616 q 597 692 596 690 l 629 692 q 578 519 600 600 l 572 494 q 528 297 554 429 l 496 297 l 498 315 q 507 391 507 368 q 486 457 507 434 q 411 481 465 481 l 320 481 l 231 147 q 218 80 218 104 q 228 50 218 60 q 257 36 237 39 q 313 32 277 32 l 414 32 q 552 55 500 32 q 637 129 603 78 q 707 278 671 180 l 739 278 q 708 178 726 244 q 671 0 688 103 q 353 4 576 4 q -49 0 86 4 l -41 28 q 33 39 9 30 q 73 71 58 47 q 102 147 87 95 l 286 836 q 298 904 298 880 q 289 935 298 924 q 261 950 280 945 q 205 956 241 954 l 212 983 q 615 979 349 979 m 625 1068 q 489 1170 563 1118 q 406 1235 425 1215 q 387 1260 395 1246 q 379 1289 379 1275 q 389 1317 379 1305 q 420 1331 400 1331 q 452 1322 435 1331 q 480 1301 469 1314 q 540 1221 498 1282 q 639 1082 589 1145 l 625 1068 z "},"Ē":{"ha":847,"x_min":-49,"x_max":892,"o":"m 0 0 m 615 979 q 892 983 810 979 q 839 819 855 883 q 819 733 823 765 l 787 733 q 800 845 800 808 q 787 908 800 885 q 744 941 774 930 q 660 951 713 951 l 558 951 q 484 943 509 951 q 444 912 459 935 q 415 836 429 888 l 328 509 l 419 509 q 500 532 468 509 q 550 586 532 555 q 586 663 568 616 q 597 692 596 690 l 629 692 q 578 519 600 600 l 572 494 q 528 297 554 429 l 496 297 l 498 315 q 507 391 507 368 q 486 457 507 434 q 411 481 465 481 l 320 481 l 231 147 q 218 80 218 104 q 228 50 218 60 q 257 36 237 39 q 313 32 277 32 l 414 32 q 552 55 500 32 q 637 129 603 78 q 707 278 671 180 l 739 278 q 708 178 726 244 q 671 0 688 103 q 353 4 576 4 q -49 0 86 4 l -41 28 q 33 39 9 30 q 73 71 58 47 q 102 147 87 95 l 286 836 q 298 904 298 880 q 289 935 298 924 q 261 950 280 945 q 205 956 241 954 l 212 983 q 615 979 349 979 m 338 1137 l 347 1173 l 836 1173 l 827 1137 l 338 1137 z "},"Ę":{"ha":847,"x_min":-49,"x_max":892,"o":"m 615 979 q 892 983 810 979 q 839 819 855 883 q 819 733 823 764 l 787 733 q 800 845 800 808 q 787 908 800 885 q 744 941 774 930 q 660 951 713 951 l 558 951 q 484 943 509 951 q 444 912 459 935 q 415 836 429 888 l 328 509 l 419 509 q 500 532 468 509 q 550 586 532 555 q 586 663 568 616 q 597 692 597 690 l 629 692 q 578 519 600 600 l 572 494 q 528 297 554 429 l 496 297 l 498 315 q 507 391 507 368 q 486 457 507 434 q 411 481 465 481 l 320 481 l 231 147 q 218 80 218 103 q 228 50 218 60 q 257 36 237 39 q 313 32 277 32 l 414 32 q 552 55 500 32 q 637 129 603 78 q 707 278 671 180 l 739 278 q 708 178 726 244 q 671 0 688 103 l 654 1 q 547 -56 593 -19 q 502 -143 502 -93 q 556 -195 502 -195 q 613 -183 583 -195 q 663 -158 644 -172 l 678 -182 q 499 -261 595 -261 q 422 -239 449 -261 q 396 -180 396 -218 q 459 -73 396 -119 q 607 2 523 -26 q 353 4 523 4 q -49 0 86 4 l -41 28 q 33 39 9 30 q 73 71 58 47 q 102 147 87 95 l 286 836 q 298 904 298 880 q 289 935 298 924 q 261 950 280 945 q 205 956 241 954 l 212 983 q 615 979 349 979 z "},"F":{"ha":786,"x_min":-49,"x_max":892,"o":"m 615 979 q 892 983 810 979 q 835 806 856 882 q 808 692 820 754 l 777 692 q 792 830 792 784 q 778 902 792 876 q 728 940 763 928 q 632 951 694 951 l 558 951 q 484 943 509 951 q 444 912 459 935 q 415 836 429 888 l 323 494 l 425 494 q 507 518 475 494 q 557 573 539 542 q 593 652 574 605 q 603 677 600 670 l 635 677 q 585 508 606 591 q 578 481 581 491 l 572 456 q 533 283 521 224 l 501 283 l 505 304 q 513 380 513 357 q 492 444 513 421 q 418 467 471 467 l 316 467 l 231 147 q 220 85 220 106 q 231 51 220 62 q 268 34 243 39 q 339 28 293 29 l 332 0 q 127 4 260 4 q -49 0 10 4 l -41 28 q 33 39 9 30 q 73 71 58 47 q 102 147 87 95 l 286 836 q 298 904 298 880 q 289 935 298 924 q 261 950 280 945 q 205 956 241 954 l 212 983 q 615 979 349 979 z "},"G":{"ha":979,"x_min":69,"x_max":1015,"o":"m 439 8 q 526 21 484 8 q 597 52 567 34 q 639 89 625 68 q 661 139 653 110 l 693 261 q 705 333 705 307 q 694 370 705 357 q 658 388 682 382 q 589 395 634 393 l 596 422 q 790 418 663 418 q 936 422 889 418 l 929 395 q 880 384 896 392 q 852 352 863 375 q 827 275 841 329 l 753 0 l 725 0 q 729 37 729 22 q 708 79 729 79 q 689 75 699 79 q 656 56 680 71 q 541 -1 597 18 q 419 -20 484 -20 q 159 63 250 -20 q 69 298 69 146 q 148 624 69 459 q 366 896 227 788 q 677 1003 505 1003 q 777 991 735 1003 q 847 961 818 980 q 905 913 876 942 q 930 900 918 900 q 985 983 956 900 l 1015 983 q 926 664 969 863 l 896 664 q 903 768 903 724 q 884 869 903 832 q 797 949 854 920 q 669 978 739 978 q 419 857 526 978 q 255 566 312 736 q 199 253 199 395 q 258 68 199 128 q 439 8 317 8 z "},"Ǵ":{"ha":979,"x_min":69,"x_max":1015,"o":"m 69 0 m 439 8 q 526 21 484 8 q 597 52 567 34 q 639 89 625 68 q 661 139 653 110 l 693 261 q 705 333 705 307 q 694 370 705 357 q 658 388 682 382 q 589 395 634 393 l 596 422 q 790 418 663 418 q 936 422 889 418 l 929 395 q 880 384 896 392 q 852 352 863 375 q 827 275 841 329 l 753 0 l 725 0 q 729 37 729 22 q 708 79 729 79 q 689 75 699 79 q 656 56 680 71 q 541 -1 597 18 q 419 -20 484 -20 q 159 63 250 -20 q 69 298 69 146 q 148 624 69 459 q 366 896 227 788 q 677 1003 505 1003 q 777 991 735 1003 q 847 961 818 980 q 905 913 876 942 q 930 900 918 900 q 985 983 956 900 l 1015 983 q 926 664 969 863 l 896 664 q 903 768 903 724 q 884 869 903 832 q 797 949 854 920 q 669 978 739 978 q 419 857 526 978 q 255 566 312 736 q 199 253 199 395 q 258 68 199 128 q 439 8 317 8 m 593 1088 q 765 1213 673 1142 q 865 1284 833 1266 q 918 1301 891 1301 q 957 1278 947 1301 q 960 1264 960 1272 q 945 1231 960 1247 q 911 1203 930 1214 q 800 1156 877 1183 q 602 1072 685 1113 l 593 1088 z "},"Ğ":{"ha":979,"x_min":69,"x_max":1030,"o":"m 69 0 m 439 8 q 526 21 484 8 q 597 52 567 34 q 639 89 625 68 q 661 139 653 110 l 693 261 q 705 333 705 307 q 694 370 705 357 q 658 388 682 382 q 589 395 634 393 l 596 422 q 790 418 663 418 q 936 422 889 418 l 929 395 q 880 384 896 392 q 852 352 863 375 q 827 275 841 329 l 753 0 l 725 0 q 729 37 729 22 q 708 79 729 79 q 689 75 699 79 q 656 56 680 71 q 541 -1 597 18 q 419 -20 484 -20 q 159 63 250 -20 q 69 298 69 146 q 148 624 69 459 q 366 896 227 788 q 677 1003 505 1003 q 777 991 735 1003 q 847 961 818 980 q 905 913 876 942 q 930 900 918 900 q 985 983 956 900 l 1015 983 q 926 664 969 863 l 896 664 q 903 768 903 724 q 884 869 903 832 q 797 949 854 920 q 669 978 739 978 q 419 857 526 978 q 255 566 312 736 q 199 253 199 395 q 258 68 199 128 q 439 8 317 8 m 709 1179 q 868 1200 784 1179 q 1016 1260 951 1221 l 1030 1244 q 933 1171 993 1207 q 807 1110 873 1134 q 686 1086 741 1086 q 584 1107 628 1086 q 513 1165 540 1128 q 476 1247 486 1202 l 498 1254 q 582 1196 534 1213 q 709 1179 631 1179 z "},"Ĝ":{"ha":979,"x_min":69,"x_max":1015,"o":"m 69 0 m 439 8 q 526 21 484 8 q 597 52 567 34 q 639 89 625 68 q 661 139 653 110 l 693 261 q 705 333 705 307 q 694 370 705 357 q 658 388 682 382 q 589 395 634 393 l 596 422 q 790 418 663 418 q 936 422 889 418 l 929 395 q 880 384 896 392 q 852 352 863 375 q 827 275 841 329 l 753 0 l 725 0 q 729 37 729 22 q 708 79 729 79 q 689 75 699 79 q 656 56 680 71 q 541 -1 597 18 q 419 -20 484 -20 q 159 63 250 -20 q 69 298 69 146 q 148 624 69 459 q 366 896 227 788 q 677 1003 505 1003 q 777 991 735 1003 q 847 961 818 980 q 905 913 876 942 q 930 900 918 900 q 985 983 956 900 l 1015 983 q 926 664 969 863 l 896 664 q 903 768 903 724 q 884 869 903 832 q 797 949 854 920 q 669 978 739 978 q 419 857 526 978 q 255 566 312 736 q 199 253 199 395 q 258 68 199 128 q 439 8 317 8 m 699 1166 q 412 1072 545 1102 l 406 1092 q 592 1171 505 1122 q 732 1272 678 1219 l 757 1272 q 840 1162 795 1205 q 950 1092 884 1118 l 944 1072 q 822 1105 869 1086 q 720 1155 776 1124 l 699 1166 z "},"Ģ":{"ha":979,"x_min":69,"x_max":1015,"o":"m 69 0 m 439 8 q 526 21 484 8 q 597 52 567 34 q 639 89 625 68 q 661 139 653 110 l 693 261 q 705 333 705 307 q 694 370 705 357 q 658 388 682 382 q 589 395 634 393 l 596 422 q 790 418 663 418 q 936 422 889 418 l 929 395 q 880 384 896 392 q 852 352 863 375 q 827 275 841 329 l 753 0 l 725 0 q 729 37 729 22 q 708 79 729 79 q 689 75 699 79 q 656 56 680 71 q 541 -1 597 18 q 419 -20 484 -20 q 159 63 250 -20 q 69 298 69 146 q 148 624 69 459 q 366 896 227 788 q 677 1003 505 1003 q 777 991 735 1003 q 847 961 818 980 q 905 913 876 942 q 930 900 918 900 q 985 983 956 900 l 1015 983 q 926 664 969 863 l 896 664 q 903 768 903 724 q 884 869 903 832 q 797 949 854 920 q 669 978 739 978 q 419 857 526 978 q 255 566 312 736 q 199 253 199 395 q 258 68 199 128 q 439 8 317 8 m 339 -184 q 351 -141 339 -161 q 384 -108 363 -120 q 429 -96 404 -96 q 486 -119 465 -96 q 506 -178 506 -142 q 370 -335 506 -286 l 360 -311 q 429 -276 398 -300 q 463 -222 460 -253 q 435 -238 452 -232 q 401 -244 418 -244 q 356 -229 374 -244 q 339 -184 339 -213 z "},"Ġ":{"ha":979,"x_min":69,"x_max":1015,"o":"m 69 0 m 439 8 q 526 21 484 8 q 597 52 567 34 q 639 89 625 68 q 661 139 653 110 l 693 261 q 705 333 705 307 q 694 370 705 357 q 658 388 682 382 q 589 395 634 393 l 596 422 q 790 418 663 418 q 936 422 889 418 l 929 395 q 880 384 896 392 q 852 352 863 375 q 827 275 841 329 l 753 0 l 725 0 q 729 37 729 22 q 708 79 729 79 q 689 75 699 79 q 656 56 680 71 q 541 -1 597 18 q 419 -20 484 -20 q 159 63 250 -20 q 69 298 69 146 q 148 624 69 459 q 366 896 227 788 q 677 1003 505 1003 q 777 991 735 1003 q 847 961 818 980 q 905 913 876 942 q 930 900 918 900 q 985 983 956 900 l 1015 983 q 926 664 969 863 l 896 664 q 903 768 903 724 q 884 869 903 832 q 797 949 854 920 q 669 978 739 978 q 419 857 526 978 q 255 566 312 736 q 199 253 199 395 q 258 68 199 128 q 439 8 317 8 m 640 1146 q 653 1195 640 1171 q 691 1234 667 1219 q 743 1250 715 1250 q 794 1229 774 1250 q 813 1177 813 1208 q 799 1127 813 1152 q 761 1087 785 1103 q 709 1072 737 1072 q 659 1093 678 1072 q 640 1146 640 1114 z "},"H":{"ha":1048,"x_min":-46,"x_max":1139,"o":"m 960 979 q 1139 983 1078 979 l 1132 956 q 1056 945 1081 954 q 1017 912 1031 936 q 989 836 1002 888 l 806 147 q 793 79 793 100 q 803 48 793 59 q 831 34 812 38 q 888 28 851 29 l 882 0 q 704 4 823 4 q 528 0 593 4 l 533 28 q 608 39 583 30 q 648 71 633 47 q 676 147 663 95 l 765 481 l 319 481 l 231 147 q 219 80 219 102 q 228 49 219 60 q 257 34 237 38 q 313 28 277 29 l 307 0 q 131 4 242 4 q -46 0 15 4 l -39 28 q 35 39 10 30 q 74 72 59 47 q 102 147 88 96 l 285 836 q 296 903 296 880 q 287 935 296 924 q 258 950 277 945 q 203 956 239 954 l 210 983 q 386 979 267 979 q 564 983 497 979 l 557 956 q 481 945 506 954 q 442 912 456 936 q 414 836 427 888 l 327 509 l 772 509 l 860 836 q 872 903 872 879 q 863 935 872 924 q 833 950 853 945 q 778 956 814 954 l 785 983 q 960 979 848 979 z "},"Ħ":{"ha":1051,"x_min":-43,"x_max":1141,"o":"m 1135 956 q 1059 945 1084 954 q 1020 912 1034 936 q 991 836 1005 888 l 966 741 l 1096 741 l 1089 713 l 959 713 l 808 147 q 796 79 796 100 q 805 48 796 59 q 834 34 814 38 q 890 28 854 29 l 884 0 q 707 4 827 4 q 530 0 595 4 l 536 28 q 611 39 586 30 q 651 71 636 47 q 679 147 665 95 l 768 481 l 322 481 l 233 147 q 222 80 222 102 q 231 49 222 60 q 260 34 240 38 q 315 28 279 29 l 310 0 q 134 4 245 4 q -43 0 18 4 l -36 28 q 37 39 13 30 q 76 72 62 47 q 104 147 91 96 l 255 713 l 154 713 l 161 741 l 262 741 l 288 836 q 299 903 299 880 q 290 935 299 924 q 261 950 280 945 q 205 956 241 954 l 212 983 q 389 979 269 979 q 566 983 500 979 l 559 956 q 484 945 509 954 q 445 912 459 936 q 416 836 430 888 l 391 741 l 837 741 l 863 836 q 875 903 875 879 q 865 935 875 924 q 836 950 856 945 q 781 956 817 954 l 787 983 q 962 979 850 979 q 1141 983 1082 979 l 1135 956 m 384 713 l 330 509 l 775 509 l 829 713 l 384 713 z "},"Ĥ":{"ha":1048,"x_min":-46,"x_max":1139,"o":"m 0 0 m 960 979 q 1139 983 1078 979 l 1132 956 q 1056 945 1081 954 q 1017 912 1031 936 q 989 836 1002 888 l 806 147 q 793 79 793 100 q 803 48 793 59 q 831 34 812 38 q 888 28 851 29 l 882 0 q 704 4 823 4 q 528 0 593 4 l 533 28 q 608 39 583 30 q 648 71 633 47 q 676 147 663 95 l 765 481 l 319 481 l 231 147 q 219 80 219 102 q 228 49 219 60 q 257 34 237 38 q 313 28 277 29 l 307 0 q 131 4 242 4 q -46 0 15 4 l -39 28 q 35 39 10 30 q 74 72 59 47 q 102 147 88 96 l 285 836 q 296 903 296 880 q 287 935 296 924 q 258 950 277 945 q 203 956 239 954 l 210 983 q 386 979 267 979 q 564 983 497 979 l 557 956 q 481 945 506 954 q 442 912 456 936 q 414 836 427 888 l 327 509 l 772 509 l 860 836 q 872 903 872 879 q 863 935 872 924 q 833 950 853 945 q 778 956 814 954 l 785 983 q 960 979 848 979 m 697 1166 q 411 1072 544 1102 l 404 1092 q 590 1171 504 1122 q 730 1272 677 1219 l 755 1272 q 838 1162 794 1205 q 949 1092 882 1118 l 943 1072 q 821 1105 867 1086 q 718 1155 774 1124 l 697 1166 z "},"I":{"ha":473,"x_min":-46,"x_max":564,"o":"m 231 147 q 219 80 219 102 q 228 49 219 60 q 257 34 237 38 q 313 28 277 29 l 307 0 q 131 4 242 4 q -46 0 15 4 l -39 28 q 35 39 10 30 q 74 72 59 47 q 102 147 88 96 l 285 836 q 296 903 296 880 q 287 935 296 924 q 258 950 277 945 q 203 956 239 954 l 210 983 q 386 979 267 979 q 564 983 498 979 l 557 956 q 481 945 506 954 q 442 912 456 936 q 414 836 427 888 l 231 147 z "},"Ĳ":{"ha":1141,"x_min":54,"x_max":1257,"o":"m 1247 1014 q 1257 996 1257 1006 q 1157 925 1257 964 q 1021 756 1071 852 q 936 509 972 661 l 1086 509 l 1080 481 l 930 481 l 928 472 l 843 90 q 781 -87 822 -8 q 675 -214 739 -166 q 528 -261 611 -261 q 422 -240 462 -261 q 383 -180 383 -220 q 404 -126 383 -149 q 457 -103 425 -103 q 501 -121 484 -103 q 518 -163 518 -138 q 503 -203 518 -185 q 465 -232 488 -221 q 514 -239 487 -239 q 617 -191 578 -239 q 678 -71 656 -143 q 726 128 700 1 l 742 201 l 786 410 q 804 481 793 441 l 635 481 l 640 509 l 812 509 q 885 664 842 598 q 976 778 928 730 q 1108 899 1024 826 l 1135 921 q 863 838 977 838 q 739 847 794 838 q 601 876 683 857 q 465 906 522 896 q 338 916 408 916 q 243 893 279 916 q 208 828 208 871 q 241 763 208 787 q 322 728 274 739 q 418 718 370 718 q 511 732 464 718 q 599 772 559 746 l 610 751 q 492 702 561 719 l 330 147 q 317 80 317 103 q 339 40 317 52 q 412 28 360 28 l 407 0 q 231 4 342 4 q 54 0 114 4 l 61 28 q 133 39 109 30 q 172 72 157 48 q 201 147 186 95 l 360 692 q 211 736 273 699 q 150 850 150 773 q 176 940 150 899 q 248 1003 202 980 q 350 1026 293 1026 q 450 1016 403 1026 q 535 991 497 1006 q 629 951 574 977 q 721 912 683 927 q 804 887 758 897 q 901 878 850 878 q 984 885 946 878 q 1055 904 1021 892 q 1145 940 1088 916 q 1229 1021 1196 1021 q 1247 1014 1238 1021 z "},"Í":{"ha":473,"x_min":-46,"x_max":696,"o":"m 0 0 m 231 147 q 219 80 219 102 q 228 49 219 60 q 257 34 237 38 q 313 28 277 29 l 307 0 q 131 4 242 4 q -46 0 15 4 l -39 28 q 35 39 10 30 q 74 72 59 47 q 102 147 88 96 l 285 836 q 296 903 296 880 q 287 935 296 924 q 258 950 277 945 q 203 956 239 954 l 210 983 q 386 979 267 979 q 564 983 498 979 l 557 956 q 481 945 506 954 q 442 912 456 936 q 414 836 427 888 l 231 147 m 329 1088 q 501 1213 410 1142 q 601 1284 570 1266 q 654 1301 627 1301 q 693 1278 683 1301 q 696 1264 696 1272 q 681 1231 696 1247 q 647 1203 667 1214 q 536 1156 613 1183 q 338 1072 421 1113 l 329 1088 z "},"Ĭ":{"ha":473,"x_min":-46,"x_max":766,"o":"m 0 0 m 231 147 q 219 80 219 102 q 228 49 219 60 q 257 34 237 38 q 313 28 277 29 l 307 0 q 131 4 242 4 q -46 0 15 4 l -39 28 q 35 39 10 30 q 74 72 59 47 q 102 147 88 96 l 285 836 q 296 903 296 880 q 287 935 296 924 q 258 950 277 945 q 203 956 239 954 l 210 983 q 386 979 267 979 q 564 983 498 979 l 557 956 q 481 945 506 954 q 442 912 456 936 q 414 836 427 888 l 231 147 m 446 1179 q 604 1200 520 1179 q 752 1260 688 1221 l 766 1244 q 669 1171 729 1207 q 544 1110 610 1134 q 422 1086 477 1086 q 320 1107 364 1086 q 249 1165 276 1128 q 212 1247 222 1202 l 235 1254 q 318 1196 270 1213 q 446 1179 367 1179 z "},"Î":{"ha":473,"x_min":-46,"x_max":686,"o":"m 0 0 m 231 147 q 219 80 219 102 q 228 49 219 60 q 257 34 237 38 q 313 28 277 29 l 307 0 q 131 4 242 4 q -46 0 15 4 l -39 28 q 35 39 10 30 q 74 72 59 47 q 102 147 88 96 l 285 836 q 296 903 296 880 q 287 935 296 924 q 258 950 277 945 q 203 956 239 954 l 210 983 q 386 979 267 979 q 564 983 498 979 l 557 956 q 481 945 506 954 q 442 912 456 936 q 414 836 427 888 l 231 147 m 435 1166 q 149 1072 281 1102 l 142 1092 q 328 1171 241 1122 q 468 1272 414 1219 l 493 1272 q 576 1162 532 1205 q 686 1092 620 1118 l 680 1072 q 558 1105 605 1086 q 456 1155 512 1124 l 435 1166 z "},"Ï":{"ha":473,"x_min":-46,"x_max":650,"o":"m 0 0 m 231 147 q 219 80 219 102 q 228 49 219 60 q 257 34 237 38 q 313 28 277 29 l 307 0 q 131 4 242 4 q -46 0 15 4 l -39 28 q 35 39 10 30 q 74 72 59 47 q 102 147 88 96 l 285 836 q 296 903 296 880 q 287 935 296 924 q 258 950 277 945 q 203 956 239 954 l 210 983 q 386 979 267 979 q 564 983 498 979 l 557 956 q 481 945 506 954 q 442 912 456 936 q 414 836 427 888 l 231 147 m 193 1143 q 205 1185 193 1164 q 240 1220 218 1206 q 286 1234 262 1234 q 335 1213 315 1234 q 355 1164 355 1193 q 342 1120 355 1141 q 308 1085 330 1099 q 262 1072 287 1072 q 212 1092 231 1072 q 193 1143 193 1112 m 488 1143 q 500 1185 488 1164 q 535 1220 513 1206 q 581 1234 556 1234 q 630 1213 610 1234 q 650 1164 650 1193 q 637 1120 650 1141 q 603 1085 624 1099 q 557 1072 581 1072 q 507 1093 526 1072 q 488 1143 488 1113 z "},"İ":{"ha":473,"x_min":-46,"x_max":564,"o":"m 0 0 m 231 147 q 219 80 219 102 q 228 49 219 60 q 257 34 237 38 q 313 28 277 29 l 307 0 q 131 4 242 4 q -46 0 15 4 l -39 28 q 35 39 10 30 q 74 72 59 47 q 102 147 88 96 l 285 836 q 296 903 296 880 q 287 935 296 924 q 258 950 277 945 q 203 956 239 954 l 210 983 q 386 979 267 979 q 564 983 498 979 l 557 956 q 481 945 506 954 q 442 912 456 936 q 414 836 427 888 l 231 147 m 376 1146 q 390 1195 376 1171 q 427 1234 404 1219 q 479 1250 451 1250 q 530 1229 511 1250 q 549 1177 549 1208 q 535 1127 549 1152 q 497 1087 522 1103 q 446 1072 473 1072 q 395 1093 414 1072 q 376 1146 376 1114 z "},"Ì":{"ha":473,"x_min":-46,"x_max":564,"o":"m 0 0 m 231 147 q 219 80 219 102 q 228 49 219 60 q 257 34 237 38 q 313 28 277 29 l 307 0 q 131 4 242 4 q -46 0 15 4 l -39 28 q 35 39 10 30 q 74 72 59 47 q 102 147 88 96 l 285 836 q 296 903 296 880 q 287 935 296 924 q 258 950 277 945 q 203 956 239 954 l 210 983 q 386 979 267 979 q 564 983 498 979 l 557 956 q 481 945 506 954 q 442 912 456 936 q 414 836 427 888 l 231 147 m 455 1068 q 319 1170 393 1118 q 236 1235 256 1215 q 217 1260 225 1246 q 210 1289 210 1275 q 219 1317 210 1305 q 250 1331 231 1331 q 282 1322 266 1331 q 311 1301 299 1314 q 370 1221 328 1282 q 469 1082 419 1145 l 455 1068 z "},"Ī":{"ha":473,"x_min":-46,"x_max":666,"o":"m 0 0 m 231 147 q 219 80 219 102 q 228 49 219 60 q 257 34 237 38 q 313 28 277 29 l 307 0 q 131 4 242 4 q -46 0 15 4 l -39 28 q 35 39 10 30 q 74 72 59 47 q 102 147 88 96 l 285 836 q 296 903 296 880 q 287 935 296 924 q 258 950 277 945 q 203 956 239 954 l 210 983 q 386 979 267 979 q 564 983 498 979 l 557 956 q 481 945 506 954 q 442 912 456 936 q 414 836 427 888 l 231 147 m 169 1137 l 177 1173 l 666 1173 l 658 1137 l 169 1137 z "},"Į":{"ha":473,"x_min":-46,"x_max":564,"o":"m 386 979 q 564 983 497 979 l 557 956 q 481 945 506 954 q 442 912 456 936 q 414 836 427 888 l 231 147 q 219 80 219 102 q 228 49 219 60 q 257 34 237 38 q 313 28 277 29 l 308 4 l 321 4 q 207 -52 257 -14 q 157 -143 157 -90 q 212 -195 157 -195 q 269 -183 238 -195 q 319 -158 300 -172 l 334 -182 q 155 -261 250 -261 q 78 -239 104 -261 q 52 -180 52 -218 q 115 -73 52 -119 q 262 2 178 -26 q 131 4 203 4 q -46 0 15 4 l -39 28 q 35 39 10 30 q 74 72 59 47 q 102 147 88 96 l 285 836 q 296 903 296 880 q 287 935 296 924 q 258 950 277 945 q 203 956 239 954 l 210 983 q 386 979 267 979 z "},"Ĩ":{"ha":473,"x_min":-46,"x_max":725,"o":"m 0 0 m 231 147 q 219 80 219 102 q 228 49 219 60 q 257 34 237 38 q 313 28 277 29 l 307 0 q 131 4 242 4 q -46 0 15 4 l -39 28 q 35 39 10 30 q 74 72 59 47 q 102 147 88 96 l 285 836 q 296 903 296 880 q 287 935 296 924 q 258 950 277 945 q 203 956 239 954 l 210 983 q 386 979 267 979 q 564 983 498 979 l 557 956 q 481 945 506 954 q 442 912 456 936 q 414 836 427 888 l 231 147 m 363 1243 q 418 1235 394 1243 q 460 1216 443 1227 q 501 1187 477 1205 q 551 1153 529 1164 q 603 1141 573 1141 q 700 1222 656 1141 l 725 1215 q 646 1107 694 1143 q 545 1072 597 1072 q 489 1080 513 1072 q 447 1099 465 1088 q 406 1128 430 1110 q 356 1163 378 1152 q 304 1174 334 1174 q 207 1093 251 1174 l 182 1100 q 261 1208 212 1173 q 363 1243 309 1243 z "},"J":{"ha":884,"x_min":62,"x_max":1032,"o":"m 1023 1014 q 1032 997 1032 1006 q 930 925 1032 963 q 642 509 736 795 l 779 509 l 775 481 l 633 481 q 618 427 627 463 l 532 90 q 410 -163 492 -65 q 204 -261 328 -261 q 101 -241 139 -261 q 62 -182 62 -220 q 72 -144 62 -162 q 100 -115 82 -126 q 139 -103 117 -103 q 181 -120 164 -103 q 197 -161 197 -136 q 182 -202 197 -184 q 142 -232 166 -221 q 191 -239 162 -239 q 294 -192 254 -239 q 359 -74 335 -144 q 414 122 383 -3 q 433 201 420 149 l 475 364 q 513 481 491 427 l 329 481 l 334 509 l 526 509 q 623 668 566 596 q 748 797 680 739 q 907 921 815 855 q 632 838 746 838 q 551 847 587 838 q 462 876 515 857 q 373 906 410 896 q 290 916 336 916 q 221 891 244 916 q 200 823 198 867 q 227 757 201 783 q 302 722 254 732 l 298 694 q 192 744 235 705 q 146 856 148 783 q 163 944 144 905 q 219 1004 182 983 q 307 1026 256 1026 q 374 1016 343 1026 q 431 991 406 1006 q 492 951 457 976 q 552 912 528 926 q 607 887 576 897 q 672 878 637 878 q 755 885 717 878 q 828 905 793 892 q 918 940 862 917 q 1004 1021 970 1021 q 1023 1014 1014 1021 z "},"Ĵ":{"ha":884,"x_min":62,"x_max":1032,"o":"m 62 0 m 1023 1014 q 1032 997 1032 1006 q 930 925 1032 963 q 642 509 736 795 l 779 509 l 775 481 l 633 481 q 618 427 627 463 l 532 90 q 410 -163 492 -65 q 204 -261 328 -261 q 101 -241 139 -261 q 62 -182 62 -220 q 72 -144 62 -162 q 100 -115 82 -126 q 139 -103 117 -103 q 181 -120 164 -103 q 197 -161 197 -136 q 182 -202 197 -184 q 142 -232 166 -221 q 191 -239 162 -239 q 294 -192 254 -239 q 359 -74 335 -144 q 414 122 383 -3 q 433 201 420 149 l 475 364 q 513 481 491 427 l 329 481 l 334 509 l 526 509 q 623 668 566 596 q 748 797 680 739 q 907 921 815 855 q 632 838 746 838 q 551 847 587 838 q 462 876 515 857 q 373 906 410 896 q 290 916 336 916 q 221 891 244 916 q 200 823 198 867 q 227 757 201 783 q 302 722 254 732 l 298 694 q 192 744 235 705 q 146 856 148 783 q 163 944 144 905 q 219 1004 182 983 q 307 1026 256 1026 q 374 1016 343 1026 q 431 991 406 1006 q 492 951 457 976 q 552 912 528 926 q 607 887 576 897 q 672 878 637 878 q 755 885 717 878 q 828 905 793 892 q 918 940 862 917 q 1004 1021 970 1021 q 1023 1014 1014 1021 m 688 1166 q 401 1072 534 1102 l 395 1092 q 581 1171 494 1122 q 721 1272 667 1219 l 746 1272 q 829 1162 785 1205 q 939 1092 873 1118 l 933 1072 q 811 1105 858 1086 q 709 1155 765 1124 l 688 1166 z "},"K":{"ha":937,"x_min":-46,"x_max":982,"o":"m 900 1003 q 962 982 943 1003 q 982 928 982 962 q 974 887 982 910 q 947 848 965 865 q 901 832 929 832 q 860 848 873 832 q 847 888 847 865 q 860 931 847 907 q 892 974 873 956 l 888 974 q 838 954 860 972 q 797 896 814 932 q 756 793 779 859 q 701 657 727 710 q 629 563 675 604 q 513 513 583 522 q 593 485 563 503 q 640 426 623 467 q 658 309 658 385 l 657 285 l 652 127 l 651 111 q 660 71 651 84 q 693 57 669 57 q 752 83 728 57 q 796 165 776 109 l 819 236 l 847 236 l 811 129 q 744 17 785 53 q 642 -20 702 -20 q 524 118 524 -20 q 525 142 524 134 l 534 298 q 536 352 536 328 q 524 445 536 414 q 486 498 512 475 q 406 485 437 485 q 363 513 363 485 q 404 541 363 541 q 489 526 432 541 q 605 575 559 535 q 674 666 650 614 q 728 799 699 717 q 770 908 751 868 q 817 971 789 947 q 900 1003 858 1003 m 231 147 q 219 80 219 102 q 228 49 219 60 q 257 34 237 38 q 313 28 277 29 l 307 0 q 131 4 242 4 q -46 0 15 4 l -39 28 q 35 39 10 30 q 74 72 59 47 q 102 147 88 96 l 285 836 q 296 903 296 880 q 287 935 296 924 q 258 950 277 945 q 203 956 239 954 l 210 983 q 386 979 267 979 q 564 983 497 979 l 557 956 q 481 945 506 954 q 442 912 456 936 q 414 836 427 888 l 231 147 z "},"Ķ":{"ha":937,"x_min":-46,"x_max":982,"o":"m 0 0 m 900 1003 q 962 982 943 1003 q 982 928 982 962 q 974 887 982 910 q 947 848 965 865 q 901 832 929 832 q 860 848 873 832 q 847 888 847 865 q 860 931 847 907 q 892 974 873 956 l 888 974 q 838 954 860 972 q 797 896 814 932 q 756 793 779 859 q 701 657 727 710 q 629 563 675 604 q 513 513 583 522 q 593 485 563 503 q 640 426 623 467 q 658 309 658 385 l 657 285 l 652 127 l 651 111 q 660 71 651 84 q 693 57 669 57 q 752 83 728 57 q 796 165 776 109 l 819 236 l 847 236 l 811 129 q 744 17 785 53 q 642 -20 702 -20 q 524 118 524 -20 q 525 142 524 134 l 534 298 q 536 352 536 328 q 524 445 536 414 q 486 498 512 475 q 406 485 437 485 q 363 513 363 485 q 404 541 363 541 q 489 526 432 541 q 605 575 559 535 q 674 666 650 614 q 728 799 699 717 q 770 908 751 868 q 817 971 789 947 q 900 1003 858 1003 m 231 147 q 219 80 219 102 q 228 49 219 60 q 257 34 237 38 q 313 28 277 29 l 307 0 q 131 4 242 4 q -46 0 15 4 l -39 28 q 35 39 10 30 q 74 72 59 47 q 102 147 88 96 l 285 836 q 296 903 296 880 q 287 935 296 924 q 258 950 277 945 q 203 956 239 954 l 210 983 q 386 979 267 979 q 564 983 497 979 l 557 956 q 481 945 506 954 q 442 912 456 936 q 414 836 427 888 l 231 147 m 273 -184 q 284 -141 273 -161 q 317 -108 296 -120 q 363 -96 338 -96 q 419 -119 399 -96 q 439 -178 439 -142 q 303 -335 439 -286 l 294 -311 q 362 -276 332 -300 q 396 -222 393 -253 q 369 -238 385 -232 q 335 -244 352 -244 q 290 -229 307 -244 q 273 -184 273 -213 z "},"L":{"ha":814,"x_min":-49,"x_max":743,"o":"m 743 292 q 713 198 734 269 q 708 178 712 191 q 671 0 688 103 q 353 4 576 4 q -49 0 86 4 l -41 28 q 33 39 9 30 q 73 71 58 47 q 102 147 87 95 l 286 836 q 298 904 298 880 q 289 935 298 924 q 261 950 280 945 q 205 956 241 954 l 212 983 q 390 979 271 979 q 567 983 502 979 l 559 956 q 484 945 509 954 q 444 912 459 936 q 415 836 429 888 l 231 147 q 218 80 218 104 q 228 50 218 60 q 257 36 237 39 q 313 32 277 32 l 414 32 q 552 56 500 32 q 638 135 604 81 q 711 292 673 189 l 743 292 z "},"Ĺ":{"ha":814,"x_min":-49,"x_max":743,"o":"m 0 0 m 743 292 q 713 198 734 269 q 708 178 712 191 q 671 0 688 103 q 353 4 576 4 q -49 0 86 4 l -41 28 q 33 39 9 30 q 73 71 58 47 q 102 147 87 95 l 286 836 q 298 904 298 880 q 289 935 298 924 q 261 950 280 945 q 205 956 241 954 l 212 983 q 390 979 271 979 q 567 983 502 979 l 559 956 q 484 945 509 954 q 444 912 459 936 q 415 836 429 888 l 231 147 q 218 80 218 104 q 228 50 218 60 q 257 36 237 39 q 313 32 277 32 l 414 32 q 552 56 500 32 q 638 135 604 81 q 711 292 673 189 l 743 292 m 305 1088 q 477 1213 386 1142 q 577 1284 546 1266 q 630 1301 604 1301 q 669 1278 659 1301 q 672 1264 672 1272 q 657 1231 672 1247 q 623 1203 643 1214 q 513 1156 589 1183 q 315 1072 397 1113 l 305 1088 z "},"Ľ":{"ha":814,"x_min":-49,"x_max":791,"o":"m 0 0 m 743 292 q 713 198 734 269 q 708 178 712 191 q 671 0 688 103 q 353 4 576 4 q -49 0 86 4 l -41 28 q 33 39 9 30 q 73 71 58 47 q 102 147 87 95 l 286 836 q 298 904 298 880 q 289 935 298 924 q 261 950 280 945 q 205 956 241 954 l 212 983 q 390 979 271 979 q 567 983 502 979 l 559 956 q 484 945 509 954 q 444 912 459 936 q 415 836 429 888 l 231 147 q 218 80 218 104 q 228 50 218 60 q 257 36 237 39 q 313 32 277 32 l 414 32 q 552 56 500 32 q 638 135 604 81 q 711 292 673 189 l 743 292 m 574 673 q 648 830 624 762 q 673 928 673 899 q 663 948 673 941 q 627 954 653 954 l 631 983 l 663 983 q 688 982 671 982 q 789 999 740 982 q 791 987 791 996 q 739 853 791 936 q 594 668 688 770 l 574 673 z "},"Ļ":{"ha":814,"x_min":-49,"x_max":743,"o":"m 0 0 m 743 292 q 713 198 734 269 q 708 178 712 191 q 671 0 688 103 q 353 4 576 4 q -49 0 86 4 l -41 28 q 33 39 9 30 q 73 71 58 47 q 102 147 87 95 l 286 836 q 298 904 298 880 q 289 935 298 924 q 261 950 280 945 q 205 956 241 954 l 212 983 q 390 979 271 979 q 567 983 502 979 l 559 956 q 484 945 509 954 q 444 912 459 936 q 415 836 429 888 l 231 147 q 218 80 218 104 q 228 50 218 60 q 257 36 237 39 q 313 32 277 32 l 414 32 q 552 56 500 32 q 638 135 604 81 q 711 292 673 189 l 743 292 m 267 -184 q 278 -141 267 -161 q 311 -108 290 -120 q 357 -96 332 -96 q 413 -119 393 -96 q 433 -178 433 -142 q 297 -335 433 -286 l 288 -311 q 356 -276 326 -300 q 390 -222 387 -253 q 362 -238 379 -232 q 329 -244 346 -244 q 284 -229 301 -244 q 267 -184 267 -213 z "},"Ŀ":{"ha":829,"x_min":-49,"x_max":810,"o":"m 0 0 m 743 292 q 713 198 734 269 q 708 178 712 191 q 671 0 688 103 q 353 4 576 4 q -49 0 86 4 l -41 28 q 33 39 9 30 q 73 71 58 47 q 102 147 87 95 l 286 836 q 298 904 298 880 q 289 935 298 924 q 261 950 280 945 q 205 956 241 954 l 212 983 q 390 979 271 979 q 567 983 502 979 l 559 956 q 484 945 509 954 q 444 912 459 936 q 415 836 429 888 l 231 147 q 218 80 218 104 q 228 50 218 60 q 257 36 237 39 q 313 32 277 32 l 414 32 q 552 56 500 32 q 638 135 604 81 q 711 292 673 189 l 743 292 m 635 475 q 650 527 635 503 q 689 567 665 552 q 739 582 713 582 q 790 561 770 582 q 810 509 810 541 q 795 458 810 482 q 756 419 781 434 q 705 404 732 404 q 655 425 675 404 q 635 475 635 445 z "},"Ł":{"ha":815,"x_min":-46,"x_max":746,"o":"m 746 292 q 716 198 737 269 q 711 178 715 191 q 673 0 690 103 q 355 4 579 4 q -46 0 89 4 l -39 28 q 36 39 12 30 q 75 71 60 47 q 104 147 90 95 l 162 363 l 21 292 l 29 323 l 171 395 l 289 836 q 301 904 301 880 q 292 935 301 924 q 263 950 283 945 q 208 956 244 954 l 215 983 q 393 979 274 979 q 570 983 505 979 l 562 956 q 487 945 511 954 q 447 912 462 936 q 418 836 432 888 l 316 456 l 717 657 l 708 625 l 307 423 l 233 147 q 221 80 221 104 q 231 50 221 60 q 260 36 240 39 q 315 32 279 32 l 416 32 q 555 56 503 32 q 641 135 606 81 q 714 292 676 189 l 746 292 z "},"M":{"ha":1206,"x_min":-47,"x_max":1296,"o":"m 1122 979 q 1296 983 1229 979 l 1289 956 q 1214 945 1238 954 q 1174 912 1189 936 q 1146 836 1160 888 l 962 147 q 951 81 951 103 q 960 49 951 60 q 989 34 970 38 q 1044 28 1008 29 l 1039 0 q 867 4 974 4 q 686 0 745 4 l 692 28 q 767 39 743 30 q 807 71 792 47 q 835 147 821 95 l 1036 896 l 460 -7 l 429 -7 l 335 907 l 138 161 q 125 92 125 114 q 149 44 125 58 q 231 28 172 30 l 224 0 q 83 4 176 4 q -47 0 1 4 l -40 28 q 35 42 9 30 q 76 81 61 54 q 106 161 92 108 l 286 836 q 298 903 298 880 q 288 935 298 924 q 259 950 279 945 q 204 956 240 954 l 211 983 q 335 979 255 979 q 457 983 409 979 l 533 160 l 1055 979 l 1122 979 z "},"N":{"ha":1069,"x_min":-100,"x_max":1211,"o":"m 1128 1047 q 1192 1027 1173 1047 q 1211 977 1211 1008 q 1202 929 1211 952 q 1174 891 1192 906 q 1129 876 1155 876 q 1089 892 1101 876 q 1076 930 1076 909 q 1089 976 1076 953 q 1121 1018 1102 1000 l 1117 1018 q 1003 947 1049 1016 q 875 624 941 855 q 724 -7 808 393 l 693 -7 l 376 888 q 248 300 309 541 q 132 -16 187 58 q 67 -80 100 -56 q -17 -103 33 -103 q -100 -31 -100 -103 q -90 16 -100 -7 q -62 53 -81 39 q -18 68 -44 68 q 22 52 10 68 q 35 14 35 35 q 22 -32 35 -9 q -9 -74 9 -56 l -5 -74 q 110 -1 66 -71 q 220 299 163 82 q 343 867 276 517 q 346 898 346 883 q 336 933 346 921 q 304 949 326 945 q 239 956 281 954 l 245 983 q 370 979 290 979 q 482 983 434 979 l 745 216 q 862 677 804 482 q 978 958 919 873 q 1128 1047 1039 1047 z "},"Ń":{"ha":1069,"x_min":-100,"x_max":1211,"o":"m 0 0 m 1128 1047 q 1192 1027 1173 1047 q 1211 977 1211 1008 q 1202 929 1211 952 q 1174 891 1192 906 q 1129 876 1155 876 q 1089 892 1101 876 q 1076 930 1076 909 q 1089 976 1076 953 q 1121 1018 1102 1000 l 1117 1018 q 1003 947 1049 1016 q 875 624 941 855 q 724 -7 808 393 l 693 -7 l 376 888 q 248 300 309 541 q 132 -16 187 58 q 67 -80 100 -56 q -17 -103 33 -103 q -100 -31 -100 -103 q -90 16 -100 -7 q -62 53 -81 39 q -18 68 -44 68 q 22 52 10 68 q 35 14 35 35 q 22 -32 35 -9 q -9 -74 9 -56 l -5 -74 q 110 -1 66 -71 q 220 299 163 82 q 343 867 276 517 q 346 898 346 883 q 336 933 346 921 q 304 949 326 945 q 239 956 281 954 l 245 983 q 370 979 290 979 q 482 983 434 979 l 745 216 q 862 677 804 482 q 978 958 919 873 q 1128 1047 1039 1047 m 635 1088 q 807 1213 715 1142 q 907 1284 876 1266 q 960 1301 933 1301 q 999 1278 989 1301 q 1002 1264 1002 1272 q 987 1231 1002 1247 q 953 1203 972 1214 q 842 1156 919 1183 q 644 1072 727 1113 l 635 1088 z "},"Ň":{"ha":1069,"x_min":-100,"x_max":1211,"o":"m 0 0 m 1128 1047 q 1192 1027 1173 1047 q 1211 977 1211 1008 q 1202 929 1211 952 q 1174 891 1192 906 q 1129 876 1155 876 q 1089 892 1101 876 q 1076 930 1076 909 q 1089 976 1076 953 q 1121 1018 1102 1000 l 1117 1018 q 1003 947 1049 1016 q 875 624 941 855 q 724 -7 808 393 l 693 -7 l 376 888 q 248 300 309 541 q 132 -16 187 58 q 67 -80 100 -56 q -17 -103 33 -103 q -100 -31 -100 -103 q -90 16 -100 -7 q -62 53 -81 39 q -18 68 -44 68 q 22 52 10 68 q 35 14 35 35 q 22 -32 35 -9 q -9 -74 9 -56 l -5 -74 q 110 -1 66 -71 q 220 299 163 82 q 343 867 276 517 q 346 898 346 883 q 336 933 346 921 q 304 949 326 945 q 239 956 281 954 l 245 983 q 370 979 290 979 q 482 983 434 979 l 745 216 q 862 677 804 482 q 978 958 919 873 q 1128 1047 1039 1047 m 767 1189 q 1053 1283 922 1255 l 1060 1264 q 873 1185 960 1233 q 734 1083 787 1137 l 709 1083 q 625 1194 669 1150 q 515 1264 581 1238 l 521 1283 q 643 1251 596 1270 q 745 1201 689 1232 l 767 1189 z "},"Ņ":{"ha":1069,"x_min":-100,"x_max":1211,"o":"m 0 0 m 1128 1047 q 1192 1027 1173 1047 q 1211 977 1211 1008 q 1202 929 1211 952 q 1174 891 1192 906 q 1129 876 1155 876 q 1089 892 1101 876 q 1076 930 1076 909 q 1089 976 1076 953 q 1121 1018 1102 1000 l 1117 1018 q 1003 947 1049 1016 q 875 624 941 855 q 724 -7 808 393 l 693 -7 l 376 888 q 248 300 309 541 q 132 -16 187 58 q 67 -80 100 -56 q -17 -103 33 -103 q -100 -31 -100 -103 q -90 16 -100 -7 q -62 53 -81 39 q -18 68 -44 68 q 22 52 10 68 q 35 14 35 35 q 22 -32 35 -9 q -9 -74 9 -56 l -5 -74 q 110 -1 66 -71 q 220 299 163 82 q 343 867 276 517 q 346 898 346 883 q 336 933 346 921 q 304 949 326 945 q 239 956 281 954 l 245 983 q 370 979 290 979 q 482 983 434 979 l 745 216 q 862 677 804 482 q 978 958 919 873 q 1128 1047 1039 1047 m 310 -184 q 322 -141 310 -161 q 354 -108 334 -120 q 400 -96 375 -96 q 456 -119 436 -96 q 477 -178 477 -142 q 340 -335 477 -286 l 331 -311 q 400 -276 369 -300 q 433 -222 431 -253 q 406 -238 422 -232 q 372 -244 389 -244 q 327 -229 345 -244 q 310 -184 310 -213 z "},"Ŋ":{"ha":974,"x_min":-46,"x_max":1075,"o":"m 945 979 q 1075 983 1027 979 l 1068 956 q 993 942 1019 954 q 952 903 967 930 q 922 822 937 876 l 729 93 q 621 -174 688 -87 q 453 -261 553 -261 q 365 -241 402 -261 q 328 -182 328 -220 q 338 -143 328 -161 q 366 -114 348 -125 q 404 -103 383 -103 q 446 -120 429 -103 q 463 -161 463 -136 q 447 -202 463 -184 q 407 -232 431 -220 q 456 -239 427 -239 q 584 -176 530 -239 q 672 -7 637 -113 l 335 907 l 139 161 q 127 92 127 114 q 150 44 127 58 q 232 28 174 30 l 225 0 q 85 4 178 4 q -46 0 3 4 l -39 28 q 36 42 10 30 q 78 81 62 54 q 107 161 93 108 l 286 836 q 298 903 298 880 q 288 935 298 924 q 259 950 279 945 q 204 956 240 954 l 211 983 q 335 979 255 979 q 447 983 399 979 l 728 203 l 890 822 q 902 891 902 866 q 879 940 902 926 q 798 956 856 954 l 804 983 q 945 979 852 979 z "},"Ñ":{"ha":1069,"x_min":-100,"x_max":1211,"o":"m 0 0 m 1128 1047 q 1192 1027 1173 1047 q 1211 977 1211 1008 q 1202 929 1211 952 q 1174 891 1192 906 q 1129 876 1155 876 q 1089 892 1101 876 q 1076 930 1076 909 q 1089 976 1076 953 q 1121 1018 1102 1000 l 1117 1018 q 1003 947 1049 1016 q 875 624 941 855 q 724 -7 808 393 l 693 -7 l 376 888 q 248 300 309 541 q 132 -16 187 58 q 67 -80 100 -56 q -17 -103 33 -103 q -100 -31 -100 -103 q -90 16 -100 -7 q -62 53 -81 39 q -18 68 -44 68 q 22 52 10 68 q 35 14 35 35 q 22 -32 35 -9 q -9 -74 9 -56 l -5 -74 q 110 -1 66 -71 q 220 299 163 82 q 343 867 276 517 q 346 898 346 883 q 336 933 346 921 q 304 949 326 945 q 239 956 281 954 l 245 983 q 370 979 290 979 q 482 983 434 979 l 745 216 q 862 677 804 482 q 978 958 919 873 q 1128 1047 1039 1047 m 669 1243 q 724 1235 700 1243 q 766 1216 749 1227 q 807 1187 783 1205 q 857 1153 835 1164 q 909 1141 879 1141 q 1006 1222 962 1141 l 1031 1215 q 952 1107 1000 1143 q 850 1072 903 1072 q 795 1080 819 1072 q 753 1099 770 1088 q 712 1128 736 1110 q 662 1163 684 1152 q 610 1174 640 1174 q 513 1093 557 1174 l 488 1100 q 567 1208 518 1173 q 669 1243 615 1243 z "},"O":{"ha":1013,"x_min":75,"x_max":982,"o":"m 75 314 q 149 632 75 471 q 356 898 223 793 q 654 1003 488 1003 q 830 964 757 1003 q 943 849 904 924 q 982 668 982 774 q 907 351 982 511 q 700 85 833 191 q 401 -20 567 -20 q 226 20 299 -20 q 114 134 153 59 q 75 314 75 209 m 642 978 q 440 878 537 978 q 282 619 342 778 q 222 296 222 460 q 247 141 222 206 q 314 40 271 75 q 414 5 357 5 q 616 105 519 5 q 773 364 713 205 q 833 688 833 523 q 809 843 833 777 q 741 943 785 908 q 642 978 698 978 z "},"Ó":{"ha":1013,"x_min":75,"x_max":982,"o":"m 75 0 m 75 314 q 149 632 75 471 q 356 898 223 793 q 654 1003 488 1003 q 830 964 757 1003 q 943 849 904 924 q 982 668 982 774 q 907 351 982 511 q 700 85 833 191 q 401 -20 567 -20 q 226 20 299 -20 q 114 134 153 59 q 75 314 75 209 m 642 978 q 440 878 537 978 q 282 619 342 778 q 222 296 222 460 q 247 141 222 206 q 314 40 271 75 q 414 5 357 5 q 616 105 519 5 q 773 364 713 205 q 833 688 833 523 q 809 843 833 777 q 741 943 785 908 q 642 978 698 978 m 600 1088 q 772 1213 681 1142 q 872 1284 841 1266 q 925 1301 899 1301 q 964 1278 954 1301 q 967 1264 967 1272 q 952 1231 967 1247 q 918 1203 938 1214 q 808 1156 884 1183 q 610 1072 692 1113 l 600 1088 z "},"Ŏ":{"ha":1013,"x_min":75,"x_max":1038,"o":"m 75 0 m 75 314 q 149 632 75 471 q 356 898 223 793 q 654 1003 488 1003 q 830 964 757 1003 q 943 849 904 924 q 982 668 982 774 q 907 351 982 511 q 700 85 833 191 q 401 -20 567 -20 q 226 20 299 -20 q 114 134 153 59 q 75 314 75 209 m 642 978 q 440 878 537 978 q 282 619 342 778 q 222 296 222 460 q 247 141 222 206 q 314 40 271 75 q 414 5 357 5 q 616 105 519 5 q 773 364 713 205 q 833 688 833 523 q 809 843 833 777 q 741 943 785 908 q 642 978 698 978 m 717 1179 q 875 1200 791 1179 q 1023 1260 959 1221 l 1038 1244 q 941 1171 1000 1207 q 815 1110 881 1134 q 693 1086 749 1086 q 591 1107 635 1086 q 520 1165 547 1128 q 484 1247 493 1202 l 506 1254 q 590 1196 541 1213 q 717 1179 638 1179 z "},"Ô":{"ha":1013,"x_min":75,"x_max":982,"o":"m 75 0 m 75 314 q 149 632 75 471 q 356 898 223 793 q 654 1003 488 1003 q 830 964 757 1003 q 943 849 904 924 q 982 668 982 774 q 907 351 982 511 q 700 85 833 191 q 401 -20 567 -20 q 226 20 299 -20 q 114 134 153 59 q 75 314 75 209 m 642 978 q 440 878 537 978 q 282 619 342 778 q 222 296 222 460 q 247 141 222 206 q 314 40 271 75 q 414 5 357 5 q 616 105 519 5 q 773 364 713 205 q 833 688 833 523 q 809 843 833 777 q 741 943 785 908 q 642 978 698 978 m 706 1166 q 420 1072 553 1102 l 413 1092 q 599 1171 513 1122 q 739 1272 686 1219 l 764 1272 q 847 1162 803 1205 q 958 1092 891 1118 l 951 1072 q 830 1105 876 1086 q 727 1155 783 1124 l 706 1166 z "},"Ö":{"ha":1013,"x_min":75,"x_max":982,"o":"m 75 0 m 75 314 q 149 632 75 471 q 356 898 223 793 q 654 1003 488 1003 q 830 964 757 1003 q 943 849 904 924 q 982 668 982 774 q 907 351 982 511 q 700 85 833 191 q 401 -20 567 -20 q 226 20 299 -20 q 114 134 153 59 q 75 314 75 209 m 642 978 q 440 878 537 978 q 282 619 342 778 q 222 296 222 460 q 247 141 222 206 q 314 40 271 75 q 414 5 357 5 q 616 105 519 5 q 773 364 713 205 q 833 688 833 523 q 809 843 833 777 q 741 943 785 908 q 642 978 698 978 m 464 1143 q 477 1185 464 1164 q 511 1220 490 1206 q 557 1234 533 1234 q 607 1213 587 1234 q 627 1164 627 1193 q 614 1120 627 1141 q 579 1085 601 1099 q 534 1072 558 1072 q 483 1092 503 1072 q 464 1143 464 1112 m 759 1143 q 772 1185 759 1164 q 806 1220 785 1206 q 852 1234 827 1234 q 901 1213 881 1234 q 921 1164 921 1193 q 908 1120 921 1141 q 874 1085 895 1099 q 828 1072 852 1072 q 778 1093 798 1072 q 759 1143 759 1113 z "},"Ò":{"ha":1013,"x_min":75,"x_max":982,"o":"m 75 0 m 75 314 q 149 632 75 471 q 356 898 223 793 q 654 1003 488 1003 q 830 964 757 1003 q 943 849 904 924 q 982 668 982 774 q 907 351 982 511 q 700 85 833 191 q 401 -20 567 -20 q 226 20 299 -20 q 114 134 153 59 q 75 314 75 209 m 642 978 q 440 878 537 978 q 282 619 342 778 q 222 296 222 460 q 247 141 222 206 q 314 40 271 75 q 414 5 357 5 q 616 105 519 5 q 773 364 713 205 q 833 688 833 523 q 809 843 833 777 q 741 943 785 908 q 642 978 698 978 m 726 1068 q 591 1170 665 1118 q 507 1235 527 1215 q 489 1260 496 1246 q 481 1289 481 1275 q 490 1317 481 1305 q 522 1331 502 1331 q 554 1322 537 1331 q 582 1301 570 1314 q 642 1221 600 1282 q 741 1082 690 1145 l 726 1068 z "},"Ő":{"ha":1013,"x_min":75,"x_max":1065,"o":"m 75 0 m 75 314 q 149 632 75 471 q 356 898 223 793 q 654 1003 488 1003 q 830 964 757 1003 q 943 849 904 924 q 982 668 982 774 q 907 351 982 511 q 700 85 833 191 q 401 -20 567 -20 q 226 20 299 -20 q 114 134 153 59 q 75 314 75 209 m 642 978 q 440 878 537 978 q 282 619 342 778 q 222 296 222 460 q 247 141 222 206 q 314 40 271 75 q 414 5 357 5 q 616 105 519 5 q 773 364 713 205 q 833 688 833 523 q 809 843 833 777 q 741 943 785 908 q 642 978 698 978 m 760 1089 q 871 1190 802 1122 q 974 1280 943 1259 q 1025 1300 1000 1300 q 1059 1283 1046 1300 q 1065 1262 1065 1274 q 1020 1198 1065 1232 q 899 1136 986 1175 q 768 1072 816 1100 l 760 1089 m 500 1089 q 612 1190 542 1122 q 714 1280 683 1259 q 766 1299 740 1299 q 800 1280 789 1299 q 805 1261 805 1272 q 760 1198 805 1231 q 638 1136 727 1175 q 509 1072 551 1097 l 500 1089 z "},"Ō":{"ha":1013,"x_min":75,"x_max":982,"o":"m 75 0 m 75 314 q 149 632 75 471 q 356 898 223 793 q 654 1003 488 1003 q 830 964 757 1003 q 943 849 904 924 q 982 668 982 774 q 907 351 982 511 q 700 85 833 191 q 401 -20 567 -20 q 226 20 299 -20 q 114 134 153 59 q 75 314 75 209 m 642 978 q 440 878 537 978 q 282 619 342 778 q 222 296 222 460 q 247 141 222 206 q 314 40 271 75 q 414 5 357 5 q 616 105 519 5 q 773 364 713 205 q 833 688 833 523 q 809 843 833 777 q 741 943 785 908 q 642 978 698 978 m 440 1137 l 448 1173 l 937 1173 l 929 1137 l 440 1137 z "},"Ø":{"ha":1013,"x_min":-28,"x_max":1093,"o":"m 926 878 q 982 668 982 796 q 907 351 982 511 q 700 85 833 191 q 401 -20 567 -20 q 158 71 243 -20 l -4 -102 l -28 -82 l 138 94 q 75 314 75 179 q 149 632 75 471 q 356 898 223 793 q 654 1003 488 1003 q 908 902 822 1003 l 1072 1074 l 1093 1055 l 926 878 m 642 978 q 440 878 537 978 q 282 619 342 778 q 222 296 222 460 q 234 185 222 237 l 818 816 q 750 936 797 893 q 642 978 704 978 m 414 5 q 616 105 519 5 q 773 364 713 205 q 833 688 833 523 q 825 781 833 739 l 243 151 q 310 43 266 81 q 414 5 355 5 z "},"Õ":{"ha":1013,"x_min":75,"x_max":996,"o":"m 75 0 m 75 314 q 149 632 75 471 q 356 898 223 793 q 654 1003 488 1003 q 830 964 757 1003 q 943 849 904 924 q 982 668 982 774 q 907 351 982 511 q 700 85 833 191 q 401 -20 567 -20 q 226 20 299 -20 q 114 134 153 59 q 75 314 75 209 m 642 978 q 440 878 537 978 q 282 619 342 778 q 222 296 222 460 q 247 141 222 206 q 314 40 271 75 q 414 5 357 5 q 616 105 519 5 q 773 364 713 205 q 833 688 833 523 q 809 843 833 777 q 741 943 785 908 q 642 978 698 978 m 634 1243 q 690 1235 665 1243 q 731 1216 714 1227 q 772 1187 749 1205 q 822 1153 800 1164 q 874 1141 844 1141 q 971 1222 927 1141 l 996 1215 q 917 1107 966 1143 q 816 1072 869 1072 q 760 1080 785 1072 q 719 1099 736 1088 q 677 1128 701 1110 q 628 1163 650 1152 q 576 1174 606 1174 q 478 1093 522 1174 l 453 1100 q 532 1208 484 1173 q 634 1243 581 1243 z "},"Œ":{"ha":1328,"x_min":78,"x_max":1379,"o":"m 1120 979 q 1379 983 1300 979 q 1332 838 1358 928 l 1326 819 q 1308 733 1308 772 l 1278 733 q 1288 831 1288 791 q 1259 924 1288 897 q 1165 951 1230 951 l 1050 951 q 978 943 1002 951 q 939 912 954 935 q 911 836 924 888 l 824 509 l 960 509 q 1025 529 999 509 q 1067 581 1051 550 q 1103 664 1083 612 l 1133 664 q 1095 529 1114 606 l 1086 494 q 1050 325 1067 429 l 1019 325 q 1023 368 1019 332 q 1027 411 1027 397 q 1011 460 1027 441 q 954 481 996 478 l 817 481 l 728 147 q 716 80 716 102 q 725 50 716 60 q 753 36 734 39 q 807 32 772 32 l 936 32 q 1046 55 1003 32 q 1121 130 1090 78 q 1185 278 1153 182 l 1215 278 q 1196 213 1206 257 l 1186 178 q 1150 0 1160 81 q 850 4 1060 4 q 518 1 642 4 q 376 -20 444 -20 q 215 19 282 -20 q 113 133 149 58 q 78 314 78 208 q 148 632 78 471 q 345 898 218 793 q 629 1003 471 1003 q 770 982 707 1003 q 1120 979 899 979 m 782 836 q 789 888 789 863 q 749 960 789 941 q 633 978 709 978 q 433 878 528 978 q 282 620 339 779 q 225 296 225 462 q 246 141 225 206 q 303 40 267 75 q 389 5 340 5 q 490 18 450 5 q 558 61 531 30 q 599 147 585 92 l 782 836 z "},"P":{"ha":818,"x_min":-46,"x_max":861,"o":"m 585 982 q 791 926 721 982 q 861 772 861 870 q 795 578 861 664 q 610 444 729 492 q 338 395 490 395 l 296 395 l 231 147 q 217 77 217 94 q 238 40 217 52 q 313 28 258 29 l 307 0 q 135 4 242 4 q -46 0 13 4 l -40 28 q 35 39 10 30 q 75 71 60 47 q 103 147 90 95 l 286 836 q 298 903 298 880 q 278 943 298 931 q 204 956 257 955 l 211 983 q 382 979 268 979 q 481 981 415 979 q 585 982 549 982 m 351 422 q 633 524 546 422 q 721 794 721 625 q 679 916 721 877 q 545 956 637 956 q 479 945 503 956 q 441 910 456 935 q 414 836 427 885 l 304 422 l 351 422 z "},"Þ":{"ha":840,"x_min":-46,"x_max":827,"o":"m 231 147 q 219 80 219 102 q 228 49 219 60 q 257 34 237 38 q 313 28 277 29 l 307 0 q 131 4 242 4 q -46 0 15 4 l -39 28 q 35 39 10 30 q 74 72 59 47 q 102 147 88 96 l 285 836 q 296 903 296 880 q 287 935 296 924 q 258 950 277 945 q 203 956 239 954 l 210 983 q 386 979 267 979 q 564 983 498 979 l 557 956 q 481 945 506 954 q 442 912 456 936 q 414 836 427 888 l 404 797 l 447 798 q 550 799 515 799 q 756 743 686 799 q 827 589 827 686 q 761 395 827 481 q 575 260 694 309 q 302 211 456 211 l 248 212 l 231 147 m 317 239 q 598 340 511 239 q 686 611 686 442 q 644 733 686 694 q 510 772 602 772 q 395 768 451 772 l 255 239 l 317 239 z "},"Q":{"ha":1084,"x_min":-62,"x_max":1044,"o":"m 899 69 q 948 48 929 69 q 968 -9 968 27 q 914 -129 968 -71 q 777 -224 860 -188 q 612 -261 694 -261 q 486 -235 545 -261 q 381 -169 427 -208 q 280 -73 335 -130 q 82 -114 163 -114 q -24 -86 14 -114 q -62 -11 -62 -59 q -40 53 -62 25 q 20 97 -18 81 q 107 113 59 113 q 200 96 157 113 q 278 56 243 80 q 366 -10 313 32 q 626 176 503 59 q 824 432 749 292 q 900 707 900 572 q 872 849 900 788 q 791 944 845 910 q 663 978 738 978 q 479 918 560 978 q 354 764 399 859 q 310 568 310 669 q 353 419 310 469 q 468 370 396 370 q 579 403 529 370 q 658 487 629 436 q 686 589 686 538 q 676 644 686 627 q 633 599 662 616 q 574 582 604 582 q 526 600 543 582 q 509 647 509 618 q 536 708 509 684 q 604 732 563 732 q 684 694 654 732 q 714 596 714 657 q 676 468 714 528 q 569 373 637 409 q 415 338 500 338 q 281 368 337 338 q 197 454 226 399 q 168 581 168 509 q 242 796 168 699 q 436 948 317 893 q 686 1003 556 1003 q 877 968 796 1003 q 1001 869 958 934 q 1044 715 1044 804 q 948 432 1044 575 q 700 169 851 288 q 388 -28 549 49 q 489 -100 442 -71 q 596 -148 536 -129 q 728 -167 656 -167 q 847 -145 797 -167 q 928 -72 897 -124 q 885 -81 908 -81 q 835 -62 853 -81 q 817 -14 817 -43 q 827 27 817 7 q 857 58 838 46 q 899 69 876 69 m 97 -90 q 264 -55 168 -90 q 189 20 218 -7 q 129 64 161 46 q 65 82 98 82 q 17 71 40 82 q -21 40 -7 60 q -36 -8 -36 19 q 97 -90 -36 -90 z "},"R":{"ha":922,"x_min":-46,"x_max":861,"o":"m 854 168 l 848 150 q 786 21 824 62 q 684 -20 747 -20 q 614 -3 642 -20 q 571 41 585 14 q 557 102 557 69 l 558 114 l 570 269 q 572 313 572 292 q 551 404 572 372 q 475 451 530 436 q 315 467 420 466 l 231 147 q 218 79 218 99 q 238 40 218 52 q 313 28 259 28 l 307 0 q 135 4 242 4 q -46 0 13 4 l -40 28 q 35 39 10 30 q 75 71 60 47 q 103 147 90 95 l 286 836 q 298 901 298 880 q 277 943 298 930 q 204 956 256 955 l 211 983 q 382 979 268 979 q 481 981 415 979 q 585 982 549 982 q 791 929 721 982 q 861 786 861 877 q 817 647 861 711 q 690 540 772 584 q 498 478 608 496 q 547 471 515 476 q 634 444 602 460 q 684 397 667 427 q 701 317 701 366 q 700 288 701 308 l 689 146 q 688 117 688 127 q 732 32 688 32 q 774 60 755 32 q 815 149 793 89 l 822 168 l 854 168 m 366 494 q 637 576 553 494 q 721 794 721 658 q 679 916 721 877 q 545 956 637 956 q 479 945 503 956 q 441 910 456 935 q 414 836 427 885 l 323 494 l 366 494 z "},"Ŕ":{"ha":922,"x_min":-46,"x_max":861,"o":"m 0 0 m 854 168 l 848 150 q 786 21 824 62 q 684 -20 747 -20 q 614 -3 642 -20 q 571 41 585 14 q 557 102 557 69 l 558 114 l 570 269 q 572 313 572 292 q 551 404 572 372 q 475 451 530 436 q 315 467 420 466 l 231 147 q 218 79 218 99 q 238 40 218 52 q 313 28 259 28 l 307 0 q 135 4 242 4 q -46 0 13 4 l -40 28 q 35 39 10 30 q 75 71 60 47 q 103 147 90 95 l 286 836 q 298 901 298 880 q 277 943 298 930 q 204 956 256 955 l 211 983 q 382 979 268 979 q 481 981 415 979 q 585 982 549 982 q 791 929 721 982 q 861 786 861 877 q 817 647 861 711 q 690 540 772 584 q 498 478 608 496 q 547 471 515 476 q 634 444 602 460 q 684 397 667 427 q 701 317 701 366 q 700 288 701 308 l 689 146 q 688 117 688 127 q 732 32 688 32 q 774 60 755 32 q 815 149 793 89 l 822 168 l 854 168 m 366 494 q 637 576 553 494 q 721 794 721 658 q 679 916 721 877 q 545 956 637 956 q 479 945 503 956 q 441 910 456 935 q 414 836 427 885 l 323 494 l 366 494 m 476 1088 q 648 1213 557 1142 q 748 1284 717 1266 q 801 1301 774 1301 q 840 1278 830 1301 q 843 1264 843 1272 q 828 1231 843 1247 q 794 1203 814 1214 q 684 1156 760 1183 q 486 1072 568 1113 l 476 1088 z "},"Ř":{"ha":922,"x_min":-46,"x_max":901,"o":"m 0 0 m 854 168 l 848 150 q 786 21 824 62 q 684 -20 747 -20 q 614 -3 642 -20 q 571 41 585 14 q 557 102 557 69 l 558 114 l 570 269 q 572 313 572 292 q 551 404 572 372 q 475 451 530 436 q 315 467 420 466 l 231 147 q 218 79 218 99 q 238 40 218 52 q 313 28 259 28 l 307 0 q 135 4 242 4 q -46 0 13 4 l -40 28 q 35 39 10 30 q 75 71 60 47 q 103 147 90 95 l 286 836 q 298 901 298 880 q 277 943 298 930 q 204 956 256 955 l 211 983 q 382 979 268 979 q 481 981 415 979 q 585 982 549 982 q 791 929 721 982 q 861 786 861 877 q 817 647 861 711 q 690 540 772 584 q 498 478 608 496 q 547 471 515 476 q 634 444 602 460 q 684 397 667 427 q 701 317 701 366 q 700 288 701 308 l 689 146 q 688 117 688 127 q 732 32 688 32 q 774 60 755 32 q 815 149 793 89 l 822 168 l 854 168 m 366 494 q 637 576 553 494 q 721 794 721 658 q 679 916 721 877 q 545 956 637 956 q 479 945 503 956 q 441 910 456 935 q 414 836 427 885 l 323 494 l 366 494 m 608 1189 q 895 1283 764 1255 l 901 1264 q 714 1185 801 1233 q 575 1083 628 1137 l 550 1083 q 467 1194 511 1150 q 357 1264 422 1238 l 362 1283 q 484 1251 437 1270 q 586 1201 530 1232 l 608 1189 z "},"Ŗ":{"ha":922,"x_min":-46,"x_max":861,"o":"m 0 0 m 854 168 l 848 150 q 786 21 824 62 q 684 -20 747 -20 q 614 -3 642 -20 q 571 41 585 14 q 557 102 557 69 l 558 114 l 570 269 q 572 313 572 292 q 551 404 572 372 q 475 451 530 436 q 315 467 420 466 l 231 147 q 218 79 218 99 q 238 40 218 52 q 313 28 259 28 l 307 0 q 135 4 242 4 q -46 0 13 4 l -40 28 q 35 39 10 30 q 75 71 60 47 q 103 147 90 95 l 286 836 q 298 901 298 880 q 277 943 298 930 q 204 956 256 955 l 211 983 q 382 979 268 979 q 481 981 415 979 q 585 982 549 982 q 791 929 721 982 q 861 786 861 877 q 817 647 861 711 q 690 540 772 584 q 498 478 608 496 q 547 471 515 476 q 634 444 602 460 q 684 397 667 427 q 701 317 701 366 q 700 288 701 308 l 689 146 q 688 117 688 127 q 732 32 688 32 q 774 60 755 32 q 815 149 793 89 l 822 168 l 854 168 m 366 494 q 637 576 553 494 q 721 794 721 658 q 679 916 721 877 q 545 956 637 956 q 479 945 503 956 q 441 910 456 935 q 414 836 427 885 l 323 494 l 366 494 m 315 -184 q 327 -141 315 -161 q 360 -108 339 -120 q 406 -96 380 -96 q 462 -119 441 -96 q 482 -178 482 -142 q 346 -335 482 -286 l 336 -311 q 405 -276 374 -300 q 439 -222 436 -253 q 411 -238 428 -232 q 378 -244 395 -244 q 333 -229 350 -244 q 315 -184 315 -213 z "},"S":{"ha":770,"x_min":-25,"x_max":800,"o":"m 800 993 q 718 710 750 871 l 690 710 q 699 789 699 749 q 678 884 699 842 q 613 951 657 926 q 501 977 568 977 q 360 932 414 977 q 307 800 307 887 q 330 709 307 753 q 386 629 353 665 q 477 540 419 593 q 573 445 537 484 q 634 357 609 406 q 659 253 659 308 q 606 101 659 162 q 474 10 554 39 q 307 -20 393 -20 q 190 -2 234 -20 q 110 45 145 16 q 60 65 83 65 q 32 49 43 65 q 3 -9 20 33 l -25 -9 q 69 323 22 101 l 97 323 q 87 259 90 282 q 85 211 84 237 q 311 8 94 8 q 460 51 406 8 q 515 182 515 94 q 494 279 515 235 q 443 358 473 324 q 361 442 413 393 q 273 532 306 494 q 217 620 240 570 q 195 732 195 671 q 238 879 195 817 q 352 971 281 940 q 500 1003 422 1003 q 598 989 557 1003 q 681 945 640 975 q 726 920 713 920 q 748 937 738 920 q 772 993 758 954 l 800 993 z "},"Ś":{"ha":770,"x_min":-25,"x_max":815,"o":"m 0 0 m 800 993 q 718 710 750 871 l 690 710 q 699 789 699 749 q 678 884 699 842 q 613 951 657 926 q 501 977 568 977 q 360 932 414 977 q 307 800 307 887 q 330 709 307 753 q 386 629 353 665 q 477 540 419 593 q 573 445 537 484 q 634 357 609 406 q 659 253 659 308 q 606 101 659 162 q 474 10 554 39 q 307 -20 393 -20 q 190 -2 234 -20 q 110 45 145 16 q 60 65 83 65 q 32 49 43 65 q 3 -9 20 33 l -25 -9 q 69 323 22 101 l 97 323 q 87 259 90 282 q 85 211 84 237 q 311 8 94 8 q 460 51 406 8 q 515 182 515 94 q 494 279 515 235 q 443 358 473 324 q 361 442 413 393 q 273 532 306 494 q 217 620 240 570 q 195 732 195 671 q 238 879 195 817 q 352 971 281 940 q 500 1003 422 1003 q 598 989 557 1003 q 681 945 640 975 q 726 920 713 920 q 748 937 738 920 q 772 993 758 954 l 800 993 m 448 1088 q 621 1213 529 1142 q 720 1284 689 1266 q 773 1301 747 1301 q 812 1278 802 1301 q 815 1264 815 1272 q 801 1231 815 1247 q 766 1203 786 1214 q 656 1156 732 1183 q 458 1072 541 1113 l 448 1088 z "},"Š":{"ha":770,"x_min":-25,"x_max":873,"o":"m 0 0 m 800 993 q 718 710 750 871 l 690 710 q 699 789 699 749 q 678 884 699 842 q 613 951 657 926 q 501 977 568 977 q 360 932 414 977 q 307 800 307 887 q 330 709 307 753 q 386 629 353 665 q 477 540 419 593 q 573 445 537 484 q 634 357 609 406 q 659 253 659 308 q 606 101 659 162 q 474 10 554 39 q 307 -20 393 -20 q 190 -2 234 -20 q 110 45 145 16 q 60 65 83 65 q 32 49 43 65 q 3 -9 20 33 l -25 -9 q 69 323 22 101 l 97 323 q 87 259 90 282 q 85 211 84 237 q 311 8 94 8 q 460 51 406 8 q 515 182 515 94 q 494 279 515 235 q 443 358 473 324 q 361 442 413 393 q 273 532 306 494 q 217 620 240 570 q 195 732 195 671 q 238 879 195 817 q 352 971 281 940 q 500 1003 422 1003 q 598 989 557 1003 q 681 945 640 975 q 726 920 713 920 q 748 937 738 920 q 772 993 758 954 l 800 993 m 581 1189 q 867 1283 736 1255 l 873 1264 q 687 1185 773 1233 q 547 1083 600 1137 l 522 1083 q 439 1194 483 1150 q 329 1264 395 1238 l 334 1283 q 456 1251 410 1270 q 558 1201 503 1232 l 581 1189 z "},"Ş":{"ha":770,"x_min":-25,"x_max":800,"o":"m 800 993 q 718 710 750 871 l 690 710 q 699 789 699 749 q 678 884 699 842 q 613 951 657 926 q 501 977 568 977 q 360 932 414 977 q 307 800 307 887 q 330 709 307 753 q 386 629 353 665 q 477 540 419 593 q 573 445 537 484 q 634 357 609 406 q 659 253 659 308 q 606 101 659 162 q 474 10 554 39 q 307 -20 393 -20 l 306 -20 l 268 -100 q 338 -90 302 -90 q 393 -105 373 -90 q 412 -146 412 -120 q 379 -210 412 -184 q 297 -249 347 -236 q 200 -261 248 -261 q 118 -252 155 -261 q 61 -231 81 -243 l 71 -210 q 182 -228 119 -228 q 241 -221 208 -228 q 299 -198 274 -214 q 323 -157 323 -182 q 271 -123 323 -123 q 214 -134 242 -123 l 269 -18 q 177 3 212 -14 q 110 45 141 20 q 60 65 83 65 q 32 49 43 65 q 3 -9 20 33 l -25 -9 q 69 323 22 101 l 97 323 q 87 259 90 282 q 85 211 84 237 q 311 8 94 8 q 460 51 406 8 q 515 182 515 94 q 494 279 515 235 q 443 358 473 324 q 361 442 413 393 q 273 532 306 494 q 217 620 240 570 q 195 732 195 671 q 238 879 195 817 q 352 971 281 940 q 500 1003 422 1003 q 598 989 557 1003 q 681 945 640 975 q 726 920 713 920 q 748 937 738 920 q 772 993 758 954 l 800 993 z "},"Ŝ":{"ha":770,"x_min":-25,"x_max":806,"o":"m 0 0 m 800 993 q 718 710 750 871 l 690 710 q 699 789 699 749 q 678 884 699 842 q 613 951 657 926 q 501 977 568 977 q 360 932 414 977 q 307 800 307 887 q 330 709 307 753 q 386 629 353 665 q 477 540 419 593 q 573 445 537 484 q 634 357 609 406 q 659 253 659 308 q 606 101 659 162 q 474 10 554 39 q 307 -20 393 -20 q 190 -2 234 -20 q 110 45 145 16 q 60 65 83 65 q 32 49 43 65 q 3 -9 20 33 l -25 -9 q 69 323 22 101 l 97 323 q 87 259 90 282 q 85 211 84 237 q 311 8 94 8 q 460 51 406 8 q 515 182 515 94 q 494 279 515 235 q 443 358 473 324 q 361 442 413 393 q 273 532 306 494 q 217 620 240 570 q 195 732 195 671 q 238 879 195 817 q 352 971 281 940 q 500 1003 422 1003 q 598 989 557 1003 q 681 945 640 975 q 726 920 713 920 q 748 937 738 920 q 772 993 758 954 l 800 993 m 554 1166 q 268 1072 401 1102 l 261 1092 q 447 1171 361 1122 q 587 1272 534 1219 l 612 1272 q 695 1162 651 1205 q 806 1092 739 1118 l 800 1072 q 678 1105 724 1086 q 575 1155 631 1124 l 554 1166 z "},"Ș":{"ha":770,"x_min":-25,"x_max":800,"o":"m 0 0 m 800 993 q 718 710 750 871 l 690 710 q 699 789 699 749 q 678 884 699 842 q 613 951 657 926 q 501 977 568 977 q 360 932 414 977 q 307 800 307 887 q 330 709 307 753 q 386 629 353 665 q 477 540 419 593 q 573 445 537 484 q 634 357 609 406 q 659 253 659 308 q 606 101 659 162 q 474 10 554 39 q 307 -20 393 -20 q 190 -2 234 -20 q 110 45 145 16 q 60 65 83 65 q 32 49 43 65 q 3 -9 20 33 l -25 -9 q 69 323 22 101 l 97 323 q 87 259 90 282 q 85 211 84 237 q 311 8 94 8 q 460 51 406 8 q 515 182 515 94 q 494 279 515 235 q 443 358 473 324 q 361 442 413 393 q 273 532 306 494 q 217 620 240 570 q 195 732 195 671 q 238 879 195 817 q 352 971 281 940 q 500 1003 422 1003 q 598 989 557 1003 q 681 945 640 975 q 726 920 713 920 q 748 937 738 920 q 772 993 758 954 l 800 993 m 207 -184 q 219 -141 207 -161 q 251 -108 231 -120 q 297 -96 272 -96 q 353 -119 333 -96 q 374 -178 374 -142 q 237 -335 374 -286 l 228 -311 q 297 -276 266 -300 q 330 -222 328 -253 q 303 -238 319 -232 q 269 -244 286 -244 q 224 -229 241 -244 q 207 -184 207 -213 z "},"ẞ":{"ha":803,"x_min":-74,"x_max":789,"o":"m 62 -241 q -74 -261 -16 -243 l 168 635 q 323 912 218 821 q 579 1003 429 1003 q 734 962 680 1003 q 789 835 789 920 q 746 694 789 758 q 632 586 703 630 q 479 519 562 542 q 656 443 600 506 q 713 289 713 379 q 664 131 713 201 q 534 20 614 60 q 364 -20 453 -20 q 260 0 302 -20 q 218 58 218 20 q 229 96 218 77 q 257 127 239 115 q 297 139 275 139 q 338 122 322 139 q 354 82 354 106 q 339 42 354 60 q 300 12 324 24 q 371 3 331 3 q 480 37 433 3 q 553 134 527 72 q 579 277 579 197 q 564 391 579 338 q 520 475 549 444 q 452 507 491 507 q 380 490 401 490 q 351 507 351 490 q 363 526 351 517 q 395 534 374 534 q 460 522 410 534 q 568 598 524 545 q 634 719 612 652 q 656 852 656 786 q 632 949 656 916 q 551 982 609 982 q 319 714 391 982 l 62 -241 z "},"T":{"ha":916,"x_min":138,"x_max":1129,"o":"m 1067 1135 q 1113 1116 1097 1135 q 1129 1068 1129 1097 q 1111 1012 1129 1038 q 1064 968 1093 986 q 844 922 990 922 q 702 932 784 922 l 497 161 q 485 91 485 117 q 496 54 485 67 q 533 35 508 41 q 602 28 557 29 l 596 0 q 389 4 523 4 q 186 0 253 4 l 192 28 q 283 42 251 30 q 334 81 315 54 q 368 161 352 109 l 578 948 q 399 964 470 964 q 243 940 278 964 q 261 903 254 926 q 268 860 268 880 q 250 804 268 828 q 199 779 233 779 q 153 798 169 779 q 138 848 138 817 q 211 957 138 921 q 397 989 276 989 q 629 969 486 989 q 854 950 774 950 q 958 957 916 950 q 1033 981 1000 964 q 999 1059 999 1016 q 1016 1112 999 1090 q 1067 1135 1034 1135 z "},"Ŧ":{"ha":937,"x_min":140,"x_max":1132,"o":"m 1069 1135 q 1116 1116 1100 1135 q 1132 1068 1132 1097 q 1114 1012 1132 1038 q 1067 968 1096 986 q 847 922 993 922 q 705 932 787 922 l 592 509 l 815 509 l 808 481 l 585 481 l 500 161 q 488 91 488 117 q 499 54 488 67 q 535 35 511 41 q 604 28 560 29 l 599 0 q 391 4 526 4 q 189 0 256 4 l 195 28 q 286 42 254 30 q 336 81 318 54 q 371 161 355 109 l 456 481 l 233 481 l 240 509 l 463 509 l 581 948 q 401 964 473 964 q 245 940 281 964 q 263 903 256 926 q 271 860 271 880 q 253 804 271 828 q 201 779 235 779 q 156 798 172 779 q 140 848 140 817 q 214 957 140 921 q 400 989 279 989 q 631 969 488 989 q 857 950 777 950 q 961 957 919 950 q 1036 981 1002 964 q 1002 1059 1002 1016 q 1019 1112 1002 1090 q 1069 1135 1036 1135 z "},"Ť":{"ha":916,"x_min":138,"x_max":1129,"o":"m 138 0 m 1067 1135 q 1113 1116 1097 1135 q 1129 1068 1129 1097 q 1111 1012 1129 1038 q 1064 968 1093 986 q 844 922 990 922 q 702 932 784 922 l 497 161 q 485 91 485 117 q 496 54 485 67 q 533 35 508 41 q 602 28 557 29 l 596 0 q 389 4 523 4 q 186 0 253 4 l 192 28 q 283 42 251 30 q 334 81 315 54 q 368 161 352 109 l 578 948 q 399 964 470 964 q 243 940 278 964 q 261 903 254 926 q 268 860 268 880 q 250 804 268 828 q 199 779 233 779 q 153 798 169 779 q 138 848 138 817 q 211 957 138 921 q 397 989 276 989 q 629 969 486 989 q 854 950 774 950 q 958 957 916 950 q 1033 981 1000 964 q 999 1059 999 1016 q 1016 1112 999 1090 q 1067 1135 1034 1135 m 696 1189 q 982 1283 851 1255 l 989 1264 q 802 1185 888 1233 q 663 1083 715 1137 l 637 1083 q 554 1194 598 1150 q 444 1264 510 1238 l 450 1283 q 571 1251 525 1270 q 673 1201 618 1232 l 696 1189 z "},"Ţ":{"ha":916,"x_min":138,"x_max":1129,"o":"m 1067 1135 q 1113 1116 1097 1135 q 1129 1068 1129 1097 q 1111 1012 1129 1038 q 1064 968 1093 986 q 844 922 990 922 q 702 932 784 922 l 497 161 q 485 91 485 117 q 496 54 485 67 q 533 35 508 41 q 602 28 557 29 l 596 0 q 409 4 529 4 l 359 -100 q 430 -90 394 -90 q 484 -105 465 -90 q 504 -146 504 -120 q 471 -210 504 -184 q 389 -249 438 -236 q 292 -261 340 -261 q 210 -252 246 -261 q 153 -231 173 -243 l 162 -210 q 273 -228 210 -228 q 332 -221 299 -228 q 390 -198 366 -214 q 415 -157 415 -182 q 362 -123 415 -123 q 305 -134 334 -123 l 371 4 q 186 0 248 4 l 192 28 q 283 42 251 30 q 334 81 315 54 q 368 161 352 109 l 578 948 q 399 964 470 964 q 243 940 278 964 q 261 903 254 926 q 268 860 268 880 q 250 804 268 828 q 199 779 233 779 q 153 798 169 779 q 138 848 138 817 q 211 957 138 921 q 397 989 276 989 q 629 969 486 989 q 854 950 774 950 q 958 957 916 950 q 1033 981 1000 964 q 999 1059 999 1016 q 1016 1112 999 1090 q 1067 1135 1034 1135 z "},"Ț":{"ha":916,"x_min":138,"x_max":1129,"o":"m 138 0 m 1067 1135 q 1113 1116 1097 1135 q 1129 1068 1129 1097 q 1111 1012 1129 1038 q 1064 968 1093 986 q 844 922 990 922 q 702 932 784 922 l 497 161 q 485 91 485 117 q 496 54 485 67 q 533 35 508 41 q 602 28 557 29 l 596 0 q 389 4 523 4 q 186 0 253 4 l 192 28 q 283 42 251 30 q 334 81 315 54 q 368 161 352 109 l 578 948 q 399 964 470 964 q 243 940 278 964 q 261 903 254 926 q 268 860 268 880 q 250 804 268 828 q 199 779 233 779 q 153 798 169 779 q 138 848 138 817 q 211 957 138 921 q 397 989 276 989 q 629 969 486 989 q 854 950 774 950 q 958 957 916 950 q 1033 981 1000 964 q 999 1059 999 1016 q 1016 1112 999 1090 q 1067 1135 1034 1135 m 298 -184 q 310 -141 298 -161 q 343 -108 322 -120 q 389 -96 363 -96 q 445 -119 425 -96 q 465 -178 465 -142 q 329 -335 465 -286 l 319 -311 q 388 -276 357 -300 q 422 -222 419 -253 q 394 -238 411 -232 q 361 -244 378 -244 q 316 -229 333 -244 q 298 -184 298 -213 z "},"U":{"ha":947,"x_min":115,"x_max":1061,"o":"m 876 822 q 886 884 886 860 q 862 937 886 922 q 783 956 838 953 l 790 983 q 930 979 838 979 q 1061 983 1014 979 l 1054 956 q 978 941 1005 954 q 936 902 951 929 q 907 822 920 875 l 799 404 q 663 110 748 211 q 537 15 612 50 q 378 -20 463 -20 q 164 56 229 -20 q 115 197 115 110 q 150 400 115 269 l 265 836 q 277 903 277 880 q 268 935 277 924 q 239 950 258 945 q 183 956 219 954 l 192 983 q 371 979 248 979 q 545 983 477 979 l 536 956 q 460 945 486 954 q 421 912 435 936 q 393 836 407 888 l 271 376 q 240 189 240 256 q 278 71 240 112 q 404 29 315 29 q 634 124 550 29 q 762 389 718 218 l 876 822 z "},"Ú":{"ha":947,"x_min":115,"x_max":1061,"o":"m 115 0 m 876 822 q 886 884 886 860 q 862 937 886 922 q 783 956 838 953 l 790 983 q 930 979 838 979 q 1061 983 1014 979 l 1054 956 q 978 941 1005 954 q 936 902 951 929 q 907 822 920 875 l 799 404 q 663 110 748 211 q 537 15 612 50 q 378 -20 463 -20 q 164 56 229 -20 q 115 197 115 110 q 150 400 115 269 l 265 836 q 277 903 277 880 q 268 935 277 924 q 239 950 258 945 q 183 956 219 954 l 192 983 q 371 979 248 979 q 545 983 477 979 l 536 956 q 460 945 486 954 q 421 912 435 936 q 393 836 407 888 l 271 376 q 240 189 240 256 q 278 71 240 112 q 404 29 315 29 q 634 124 550 29 q 762 389 718 218 l 876 822 m 572 1088 q 745 1213 653 1142 q 844 1284 813 1266 q 897 1301 871 1301 q 937 1278 926 1301 q 939 1264 939 1272 q 925 1231 939 1247 q 890 1203 910 1214 q 780 1156 857 1183 q 582 1072 665 1113 l 572 1088 z "},"Ŭ":{"ha":947,"x_min":115,"x_max":1061,"o":"m 115 0 m 876 822 q 886 884 886 860 q 862 937 886 922 q 783 956 838 953 l 790 983 q 930 979 838 979 q 1061 983 1014 979 l 1054 956 q 978 941 1005 954 q 936 902 951 929 q 907 822 920 875 l 799 404 q 663 110 748 211 q 537 15 612 50 q 378 -20 463 -20 q 164 56 229 -20 q 115 197 115 110 q 150 400 115 269 l 265 836 q 277 903 277 880 q 268 935 277 924 q 239 950 258 945 q 183 956 219 954 l 192 983 q 371 979 248 979 q 545 983 477 979 l 536 956 q 460 945 486 954 q 421 912 435 936 q 393 836 407 888 l 271 376 q 240 189 240 256 q 278 71 240 112 q 404 29 315 29 q 634 124 550 29 q 762 389 718 218 l 876 822 m 689 1179 q 847 1200 764 1179 q 996 1260 931 1221 l 1010 1244 q 913 1171 972 1207 q 787 1110 853 1134 q 665 1086 721 1086 q 564 1107 608 1086 q 492 1165 519 1128 q 456 1247 465 1202 l 478 1254 q 562 1196 513 1213 q 689 1179 610 1179 z "},"Û":{"ha":947,"x_min":115,"x_max":1061,"o":"m 115 0 m 876 822 q 886 884 886 860 q 862 937 886 922 q 783 956 838 953 l 790 983 q 930 979 838 979 q 1061 983 1014 979 l 1054 956 q 978 941 1005 954 q 936 902 951 929 q 907 822 920 875 l 799 404 q 663 110 748 211 q 537 15 612 50 q 378 -20 463 -20 q 164 56 229 -20 q 115 197 115 110 q 150 400 115 269 l 265 836 q 277 903 277 880 q 268 935 277 924 q 239 950 258 945 q 183 956 219 954 l 192 983 q 371 979 248 979 q 545 983 477 979 l 536 956 q 460 945 486 954 q 421 912 435 936 q 393 836 407 888 l 271 376 q 240 189 240 256 q 278 71 240 112 q 404 29 315 29 q 634 124 550 29 q 762 389 718 218 l 876 822 m 678 1166 q 392 1072 525 1102 l 385 1092 q 571 1171 485 1122 q 711 1272 658 1219 l 736 1272 q 819 1162 775 1205 q 930 1092 863 1118 l 924 1072 q 802 1105 848 1086 q 699 1155 755 1124 l 678 1166 z "},"Ü":{"ha":947,"x_min":115,"x_max":1061,"o":"m 115 0 m 876 822 q 886 884 886 860 q 862 937 886 922 q 783 956 838 953 l 790 983 q 930 979 838 979 q 1061 983 1014 979 l 1054 956 q 978 941 1005 954 q 936 902 951 929 q 907 822 920 875 l 799 404 q 663 110 748 211 q 537 15 612 50 q 378 -20 463 -20 q 164 56 229 -20 q 115 197 115 110 q 150 400 115 269 l 265 836 q 277 903 277 880 q 268 935 277 924 q 239 950 258 945 q 183 956 219 954 l 192 983 q 371 979 248 979 q 545 983 477 979 l 536 956 q 460 945 486 954 q 421 912 435 936 q 393 836 407 888 l 271 376 q 240 189 240 256 q 278 71 240 112 q 404 29 315 29 q 634 124 550 29 q 762 389 718 218 l 876 822 m 436 1143 q 449 1185 436 1164 q 484 1220 462 1206 q 530 1234 505 1234 q 579 1213 559 1234 q 599 1164 599 1193 q 586 1120 599 1141 q 552 1085 573 1099 q 506 1072 530 1072 q 455 1092 475 1072 q 436 1143 436 1112 m 731 1143 q 744 1185 731 1164 q 778 1220 757 1206 q 824 1234 800 1234 q 873 1213 853 1234 q 893 1164 893 1193 q 880 1120 893 1141 q 846 1085 867 1099 q 800 1072 825 1072 q 750 1093 770 1072 q 731 1143 731 1113 z "},"Ù":{"ha":947,"x_min":115,"x_max":1061,"o":"m 115 0 m 876 822 q 886 884 886 860 q 862 937 886 922 q 783 956 838 953 l 790 983 q 930 979 838 979 q 1061 983 1014 979 l 1054 956 q 978 941 1005 954 q 936 902 951 929 q 907 822 920 875 l 799 404 q 663 110 748 211 q 537 15 612 50 q 378 -20 463 -20 q 164 56 229 -20 q 115 197 115 110 q 150 400 115 269 l 265 836 q 277 903 277 880 q 268 935 277 924 q 239 950 258 945 q 183 956 219 954 l 192 983 q 371 979 248 979 q 545 983 477 979 l 536 956 q 460 945 486 954 q 421 912 435 936 q 393 836 407 888 l 271 376 q 240 189 240 256 q 278 71 240 112 q 404 29 315 29 q 634 124 550 29 q 762 389 718 218 l 876 822 m 699 1068 q 563 1170 637 1118 q 479 1235 499 1215 q 461 1260 469 1246 q 453 1289 453 1275 q 463 1317 453 1305 q 494 1331 474 1331 q 526 1322 509 1331 q 554 1301 543 1314 q 614 1221 572 1282 q 713 1082 663 1145 l 699 1068 z "},"Ű":{"ha":947,"x_min":115,"x_max":1061,"o":"m 115 0 m 876 822 q 886 884 886 860 q 862 937 886 922 q 783 956 838 953 l 790 983 q 930 979 838 979 q 1061 983 1014 979 l 1054 956 q 978 941 1005 954 q 936 902 951 929 q 907 822 920 875 l 799 404 q 663 110 748 211 q 537 15 612 50 q 378 -20 463 -20 q 164 56 229 -20 q 115 197 115 110 q 150 400 115 269 l 265 836 q 277 903 277 880 q 268 935 277 924 q 239 950 258 945 q 183 956 219 954 l 192 983 q 371 979 248 979 q 545 983 477 979 l 536 956 q 460 945 486 954 q 421 912 435 936 q 393 836 407 888 l 271 376 q 240 189 240 256 q 278 71 240 112 q 404 29 315 29 q 634 124 550 29 q 762 389 718 218 l 876 822 m 732 1089 q 844 1190 774 1122 q 946 1280 915 1259 q 998 1300 972 1300 q 1031 1283 1019 1300 q 1038 1262 1038 1274 q 992 1198 1038 1232 q 871 1136 958 1175 q 741 1072 788 1100 l 732 1089 m 473 1089 q 584 1190 514 1122 q 686 1280 655 1259 q 738 1299 712 1299 q 772 1280 762 1299 q 777 1261 777 1272 q 732 1198 777 1231 q 610 1136 699 1175 q 481 1072 524 1097 l 473 1089 z "},"Ū":{"ha":947,"x_min":115,"x_max":1061,"o":"m 115 0 m 876 822 q 886 884 886 860 q 862 937 886 922 q 783 956 838 953 l 790 983 q 930 979 838 979 q 1061 983 1014 979 l 1054 956 q 978 941 1005 954 q 936 902 951 929 q 907 822 920 875 l 799 404 q 663 110 748 211 q 537 15 612 50 q 378 -20 463 -20 q 164 56 229 -20 q 115 197 115 110 q 150 400 115 269 l 265 836 q 277 903 277 880 q 268 935 277 924 q 239 950 258 945 q 183 956 219 954 l 192 983 q 371 979 248 979 q 545 983 477 979 l 536 956 q 460 945 486 954 q 421 912 435 936 q 393 836 407 888 l 271 376 q 240 189 240 256 q 278 71 240 112 q 404 29 315 29 q 634 124 550 29 q 762 389 718 218 l 876 822 m 412 1137 l 420 1173 l 909 1173 l 901 1137 l 412 1137 z "},"Ų":{"ha":947,"x_min":115,"x_max":1061,"o":"m 930 979 q 1061 983 1013 979 l 1054 956 q 978 941 1005 954 q 936 902 951 929 q 907 822 920 875 l 799 404 q 663 110 748 211 q 474 -7 588 22 q 382 -63 419 -28 q 345 -143 345 -98 q 399 -195 345 -195 q 456 -183 425 -195 q 506 -158 487 -172 l 521 -182 q 342 -261 437 -261 q 265 -239 292 -261 q 239 -180 239 -218 q 395 -19 239 -90 l 378 -20 q 164 56 229 -20 q 115 197 115 110 q 150 400 115 269 l 265 836 q 277 903 277 880 q 268 935 277 924 q 239 950 258 945 q 183 956 219 954 l 192 983 q 371 979 248 979 q 545 983 477 979 l 536 956 q 460 945 486 954 q 421 912 435 936 q 393 836 407 888 l 271 376 q 240 189 240 256 q 278 71 240 112 q 404 29 315 29 q 634 124 550 29 q 762 389 718 218 l 876 822 q 886 884 886 860 q 862 937 886 922 q 783 956 838 953 l 790 983 q 930 979 838 979 z "},"Ů":{"ha":947,"x_min":115,"x_max":1061,"o":"m 115 0 m 876 822 q 886 884 886 860 q 862 937 886 922 q 783 956 838 953 l 790 983 q 930 979 838 979 q 1061 983 1014 979 l 1054 956 q 978 941 1005 954 q 936 902 951 929 q 907 822 920 875 l 799 404 q 663 110 748 211 q 537 15 612 50 q 378 -20 463 -20 q 164 56 229 -20 q 115 197 115 110 q 150 400 115 269 l 265 836 q 277 903 277 880 q 268 935 277 924 q 239 950 258 945 q 183 956 219 954 l 192 983 q 371 979 248 979 q 545 983 477 979 l 536 956 q 460 945 486 954 q 421 912 435 936 q 393 836 407 888 l 271 376 q 240 189 240 256 q 278 71 240 112 q 404 29 315 29 q 634 124 550 29 q 762 389 718 218 l 876 822 m 701 1284 q 761 1271 734 1284 q 804 1232 788 1257 q 820 1174 820 1207 q 798 1103 820 1136 q 741 1050 777 1070 q 665 1031 705 1031 q 582 1061 614 1031 q 549 1141 549 1090 q 570 1214 549 1181 q 625 1265 590 1246 q 701 1284 659 1284 m 670 1060 q 726 1075 699 1060 q 768 1116 752 1090 q 784 1175 784 1143 q 771 1218 784 1200 q 738 1246 758 1236 q 695 1255 718 1255 q 642 1239 667 1255 q 601 1198 616 1223 q 585 1143 585 1172 q 610 1082 585 1104 q 670 1060 635 1060 z "},"Ũ":{"ha":947,"x_min":115,"x_max":1061,"o":"m 115 0 m 876 822 q 886 884 886 860 q 862 937 886 922 q 783 956 838 953 l 790 983 q 930 979 838 979 q 1061 983 1014 979 l 1054 956 q 978 941 1005 954 q 936 902 951 929 q 907 822 920 875 l 799 404 q 663 110 748 211 q 537 15 612 50 q 378 -20 463 -20 q 164 56 229 -20 q 115 197 115 110 q 150 400 115 269 l 265 836 q 277 903 277 880 q 268 935 277 924 q 239 950 258 945 q 183 956 219 954 l 192 983 q 371 979 248 979 q 545 983 477 979 l 536 956 q 460 945 486 954 q 421 912 435 936 q 393 836 407 888 l 271 376 q 240 189 240 256 q 278 71 240 112 q 404 29 315 29 q 634 124 550 29 q 762 389 718 218 l 876 822 m 606 1243 q 662 1235 637 1243 q 704 1216 686 1227 q 745 1187 721 1205 q 794 1153 772 1164 q 846 1141 817 1141 q 943 1222 899 1141 l 968 1215 q 889 1107 938 1143 q 788 1072 841 1072 q 732 1080 757 1072 q 691 1099 708 1088 q 650 1128 673 1110 q 600 1163 622 1152 q 548 1174 578 1174 q 450 1093 494 1174 l 425 1100 q 504 1208 456 1173 q 606 1243 553 1243 z "},"V":{"ha":878,"x_min":134,"x_max":1031,"o":"m 925 979 q 1031 983 987 979 l 1023 956 q 884 835 949 940 l 336 -7 l 315 -7 l 205 867 q 179 933 200 912 q 134 956 158 954 l 140 983 q 290 979 195 979 q 457 983 396 979 l 450 956 q 384 948 407 954 q 349 925 361 942 q 336 875 336 909 q 339 839 336 866 l 418 168 l 803 758 q 863 896 863 850 q 837 940 863 926 q 760 956 812 954 l 766 983 q 925 979 844 979 z "},"W":{"ha":1253,"x_min":119,"x_max":1381,"o":"m 1275 979 q 1381 983 1337 979 l 1373 956 q 1242 835 1291 939 l 827 -7 l 804 -7 l 705 626 l 328 -7 l 306 -7 l 196 867 q 119 956 184 953 l 125 983 q 262 979 182 979 q 412 983 363 979 l 407 956 q 346 936 364 953 q 327 875 327 920 q 329 839 327 859 l 407 176 l 698 669 l 667 867 q 604 956 653 953 l 610 983 q 733 979 659 979 q 911 983 853 979 l 905 956 q 841 947 863 954 q 807 926 818 941 q 796 883 796 911 q 800 839 796 865 l 899 208 l 1171 758 q 1217 894 1217 850 q 1191 941 1217 928 q 1109 956 1165 954 l 1117 983 q 1275 979 1193 979 z "},"Ẃ":{"ha":1253,"x_min":119,"x_max":1381,"o":"m 119 0 m 1275 979 q 1381 983 1337 979 l 1373 956 q 1242 835 1291 939 l 827 -7 l 804 -7 l 705 626 l 328 -7 l 306 -7 l 196 867 q 119 956 184 953 l 125 983 q 262 979 182 979 q 412 983 363 979 l 407 956 q 346 936 364 953 q 327 875 327 920 q 329 839 327 859 l 407 176 l 698 669 l 667 867 q 604 956 653 953 l 610 983 q 733 979 659 979 q 911 983 853 979 l 905 956 q 841 947 863 954 q 807 926 818 941 q 796 883 796 911 q 800 839 796 865 l 899 208 l 1171 758 q 1217 894 1217 850 q 1191 941 1217 928 q 1109 956 1165 954 l 1117 983 q 1275 979 1193 979 m 709 1088 q 882 1213 790 1142 q 981 1284 950 1266 q 1034 1301 1008 1301 q 1074 1278 1063 1301 q 1076 1264 1076 1272 q 1062 1231 1076 1247 q 1027 1203 1047 1214 q 917 1156 994 1183 q 719 1072 802 1113 l 709 1088 z "},"Ŵ":{"ha":1253,"x_min":119,"x_max":1381,"o":"m 119 0 m 1275 979 q 1381 983 1337 979 l 1373 956 q 1242 835 1291 939 l 827 -7 l 804 -7 l 705 626 l 328 -7 l 306 -7 l 196 867 q 119 956 184 953 l 125 983 q 262 979 182 979 q 412 983 363 979 l 407 956 q 346 936 364 953 q 327 875 327 920 q 329 839 327 859 l 407 176 l 698 669 l 667 867 q 604 956 653 953 l 610 983 q 733 979 659 979 q 911 983 853 979 l 905 956 q 841 947 863 954 q 807 926 818 941 q 796 883 796 911 q 800 839 796 865 l 899 208 l 1171 758 q 1217 894 1217 850 q 1191 941 1217 928 q 1109 956 1165 954 l 1117 983 q 1275 979 1193 979 m 815 1166 q 529 1072 662 1102 l 522 1092 q 708 1171 622 1122 q 848 1272 795 1219 l 873 1272 q 956 1162 912 1205 q 1067 1092 1000 1118 l 1061 1072 q 939 1105 985 1086 q 836 1155 892 1124 l 815 1166 z "},"Ẅ":{"ha":1253,"x_min":119,"x_max":1381,"o":"m 119 0 m 1275 979 q 1381 983 1337 979 l 1373 956 q 1242 835 1291 939 l 827 -7 l 804 -7 l 705 626 l 328 -7 l 306 -7 l 196 867 q 119 956 184 953 l 125 983 q 262 979 182 979 q 412 983 363 979 l 407 956 q 346 936 364 953 q 327 875 327 920 q 329 839 327 859 l 407 176 l 698 669 l 667 867 q 604 956 653 953 l 610 983 q 733 979 659 979 q 911 983 853 979 l 905 956 q 841 947 863 954 q 807 926 818 941 q 796 883 796 911 q 800 839 796 865 l 899 208 l 1171 758 q 1217 894 1217 850 q 1191 941 1217 928 q 1109 956 1165 954 l 1117 983 q 1275 979 1193 979 m 573 1143 q 586 1185 573 1164 q 621 1220 599 1206 q 667 1234 642 1234 q 716 1213 696 1234 q 736 1164 736 1193 q 723 1120 736 1141 q 689 1085 710 1099 q 643 1072 667 1072 q 592 1092 612 1072 q 573 1143 573 1112 m 868 1143 q 881 1185 868 1164 q 915 1220 894 1206 q 961 1234 937 1234 q 1010 1213 990 1234 q 1030 1164 1030 1193 q 1017 1120 1030 1141 q 983 1085 1004 1099 q 937 1072 962 1072 q 887 1093 907 1072 q 868 1143 868 1113 z "},"Ẁ":{"ha":1253,"x_min":119,"x_max":1381,"o":"m 119 0 m 1275 979 q 1381 983 1337 979 l 1373 956 q 1242 835 1291 939 l 827 -7 l 804 -7 l 705 626 l 328 -7 l 306 -7 l 196 867 q 119 956 184 953 l 125 983 q 262 979 182 979 q 412 983 363 979 l 407 956 q 346 936 364 953 q 327 875 327 920 q 329 839 327 859 l 407 176 l 698 669 l 667 867 q 604 956 653 953 l 610 983 q 733 979 659 979 q 911 983 853 979 l 905 956 q 841 947 863 954 q 807 926 818 941 q 796 883 796 911 q 800 839 796 865 l 899 208 l 1171 758 q 1217 894 1217 850 q 1191 941 1217 928 q 1109 956 1165 954 l 1117 983 q 1275 979 1193 979 m 836 1068 q 700 1170 774 1118 q 616 1235 636 1215 q 598 1260 606 1246 q 590 1289 590 1275 q 600 1317 590 1305 q 631 1331 611 1331 q 663 1322 646 1331 q 691 1301 680 1314 q 751 1221 709 1282 q 850 1082 800 1145 l 836 1068 z "},"X":{"ha":971,"x_min":-47,"x_max":1041,"o":"m 958 1003 q 1021 983 1001 1003 q 1041 931 1041 963 q 1032 888 1041 911 q 1005 848 1023 865 q 958 832 986 832 q 919 847 932 832 q 905 885 905 863 q 918 931 905 906 q 950 974 930 956 l 946 974 q 857 945 898 974 q 718 791 795 899 q 569 530 640 684 l 606 215 q 639 99 614 142 q 715 57 664 57 q 781 82 756 57 q 827 165 806 108 l 850 236 l 878 236 l 842 129 q 774 17 816 53 q 672 -20 732 -20 q 542 41 581 -20 q 490 197 502 102 l 465 416 q 325 192 410 301 q 164 29 239 83 q 36 -20 100 -20 q -27 0 -7 -20 q -47 52 -47 20 q -38 96 -47 73 q -11 135 -29 119 q 36 151 8 151 q 76 136 63 151 q 89 98 89 121 q 77 53 89 78 q 45 9 64 28 l 50 9 q 138 39 97 12 q 296 195 210 86 q 460 461 383 304 l 424 768 q 390 884 415 842 q 314 926 365 926 q 248 901 273 926 q 203 818 223 876 l 179 747 l 151 747 l 187 854 q 255 967 214 930 q 357 1003 297 1003 q 487 942 448 1003 q 539 786 527 882 l 564 572 q 692 795 618 689 q 831 954 766 901 q 958 1003 894 1003 z "},"Y":{"ha":930,"x_min":135,"x_max":1050,"o":"m 972 1003 q 1031 982 1013 1003 q 1050 928 1050 960 q 1041 886 1050 908 q 1014 848 1032 863 q 968 832 995 832 q 916 887 916 832 q 928 932 916 909 q 960 974 940 956 l 956 974 q 879 943 918 972 q 723 773 806 890 q 562 469 639 655 l 481 147 q 469 80 469 102 q 478 49 469 60 q 507 34 488 38 q 562 28 526 29 l 555 0 q 383 4 493 4 q 201 0 261 4 l 208 28 q 283 39 258 30 q 323 72 309 47 q 351 147 338 96 l 433 471 q 271 926 383 926 q 231 911 247 926 q 204 861 216 897 l 165 747 l 135 747 l 180 882 q 212 951 195 925 q 253 990 228 977 q 317 1003 278 1003 q 435 943 390 1003 q 505 777 480 884 q 549 500 530 670 q 808 913 649 752 q 972 1003 899 1003 z "},"Ý":{"ha":930,"x_min":135,"x_max":1050,"o":"m 135 0 m 972 1003 q 1031 982 1013 1003 q 1050 928 1050 960 q 1041 886 1050 908 q 1014 848 1032 863 q 968 832 995 832 q 916 887 916 832 q 928 932 916 909 q 960 974 940 956 l 956 974 q 879 943 918 972 q 723 773 806 890 q 562 469 639 655 l 481 147 q 469 80 469 102 q 478 49 469 60 q 507 34 488 38 q 562 28 526 29 l 555 0 q 383 4 493 4 q 201 0 261 4 l 208 28 q 283 39 258 30 q 323 72 309 47 q 351 147 338 96 l 433 471 q 271 926 383 926 q 231 911 247 926 q 204 861 216 897 l 165 747 l 135 747 l 180 882 q 212 951 195 925 q 253 990 228 977 q 317 1003 278 1003 q 435 943 390 1003 q 505 777 480 884 q 549 500 530 670 q 808 913 649 752 q 972 1003 899 1003 m 567 1088 q 739 1213 648 1142 q 839 1284 808 1266 q 892 1301 865 1301 q 931 1278 921 1301 q 934 1264 934 1272 q 919 1231 934 1247 q 885 1203 905 1214 q 774 1156 851 1183 q 576 1072 659 1113 l 567 1088 z "},"Ŷ":{"ha":930,"x_min":135,"x_max":1050,"o":"m 135 0 m 972 1003 q 1031 982 1013 1003 q 1050 928 1050 960 q 1041 886 1050 908 q 1014 848 1032 863 q 968 832 995 832 q 916 887 916 832 q 928 932 916 909 q 960 974 940 956 l 956 974 q 879 943 918 972 q 723 773 806 890 q 562 469 639 655 l 481 147 q 469 80 469 102 q 478 49 469 60 q 507 34 488 38 q 562 28 526 29 l 555 0 q 383 4 493 4 q 201 0 261 4 l 208 28 q 283 39 258 30 q 323 72 309 47 q 351 147 338 96 l 433 471 q 271 926 383 926 q 231 911 247 926 q 204 861 216 897 l 165 747 l 135 747 l 180 882 q 212 951 195 925 q 253 990 228 977 q 317 1003 278 1003 q 435 943 390 1003 q 505 777 480 884 q 549 500 530 670 q 808 913 649 752 q 972 1003 899 1003 m 673 1166 q 387 1072 519 1102 l 380 1092 q 566 1171 479 1122 q 706 1272 652 1219 l 731 1272 q 814 1162 770 1205 q 924 1092 858 1118 l 918 1072 q 797 1105 843 1086 q 694 1155 750 1124 l 673 1166 z "},"Ÿ":{"ha":930,"x_min":135,"x_max":1050,"o":"m 135 0 m 972 1003 q 1031 982 1013 1003 q 1050 928 1050 960 q 1041 886 1050 908 q 1014 848 1032 863 q 968 832 995 832 q 916 887 916 832 q 928 932 916 909 q 960 974 940 956 l 956 974 q 879 943 918 972 q 723 773 806 890 q 562 469 639 655 l 481 147 q 469 80 469 102 q 478 49 469 60 q 507 34 488 38 q 562 28 526 29 l 555 0 q 383 4 493 4 q 201 0 261 4 l 208 28 q 283 39 258 30 q 323 72 309 47 q 351 147 338 96 l 433 471 q 271 926 383 926 q 231 911 247 926 q 204 861 216 897 l 165 747 l 135 747 l 180 882 q 212 951 195 925 q 253 990 228 977 q 317 1003 278 1003 q 435 943 390 1003 q 505 777 480 884 q 549 500 530 670 q 808 913 649 752 q 972 1003 899 1003 m 431 1143 q 444 1185 431 1164 q 478 1220 456 1206 q 524 1234 500 1234 q 573 1213 553 1234 q 593 1164 593 1193 q 581 1120 593 1141 q 546 1085 568 1099 q 500 1072 525 1072 q 450 1092 469 1072 q 431 1143 431 1112 m 726 1143 q 739 1185 726 1164 q 773 1220 751 1206 q 819 1234 794 1234 q 868 1213 848 1234 q 888 1164 888 1193 q 875 1120 888 1141 q 841 1085 862 1099 q 795 1072 819 1072 q 745 1093 764 1072 q 726 1143 726 1113 z "},"Ỳ":{"ha":930,"x_min":135,"x_max":1050,"o":"m 135 0 m 972 1003 q 1031 982 1013 1003 q 1050 928 1050 960 q 1041 886 1050 908 q 1014 848 1032 863 q 968 832 995 832 q 916 887 916 832 q 928 932 916 909 q 960 974 940 956 l 956 974 q 879 943 918 972 q 723 773 806 890 q 562 469 639 655 l 481 147 q 469 80 469 102 q 478 49 469 60 q 507 34 488 38 q 562 28 526 29 l 555 0 q 383 4 493 4 q 201 0 261 4 l 208 28 q 283 39 258 30 q 323 72 309 47 q 351 147 338 96 l 433 471 q 271 926 383 926 q 231 911 247 926 q 204 861 216 897 l 165 747 l 135 747 l 180 882 q 212 951 195 925 q 253 990 228 977 q 317 1003 278 1003 q 435 943 390 1003 q 505 777 480 884 q 549 500 530 670 q 808 913 649 752 q 972 1003 899 1003 m 693 1068 q 557 1170 631 1118 q 474 1235 494 1215 q 455 1260 463 1246 q 448 1289 448 1275 q 457 1317 448 1305 q 488 1331 469 1331 q 520 1322 504 1331 q 549 1301 537 1314 q 608 1221 566 1282 q 707 1082 657 1145 l 693 1068 z "},"Z":{"ha":905,"x_min":-48,"x_max":998,"o":"m 990 990 q 998 972 998 983 q 972 929 998 953 q 895 886 947 906 l 510 509 l 721 509 l 710 481 l 482 481 l 89 94 q 329 170 216 170 q 399 160 368 170 q 477 131 430 151 q 554 101 521 111 q 627 92 587 92 q 697 116 673 92 q 721 183 721 140 q 621 285 721 264 l 627 313 q 731 263 689 301 q 774 151 774 224 q 753 63 774 102 q 695 2 733 24 q 606 -20 656 -20 q 546 -9 574 -20 q 497 16 519 1 q 444 56 475 31 q 392 95 413 80 q 345 119 371 109 q 288 129 318 129 q 191 114 234 129 q 82 66 148 100 q 29 8 57 31 q -20 -14 1 -14 q -40 -7 -31 -14 q -48 12 -48 0 q -22 54 -48 31 q 56 97 3 77 l 446 481 l 221 481 l 231 509 l 474 509 l 861 889 q 621 814 734 814 q 550 823 581 814 q 473 852 519 833 q 396 882 428 872 q 323 892 363 892 q 253 868 277 892 q 229 800 229 844 q 329 699 229 719 l 323 671 q 219 721 261 682 q 176 832 176 759 q 197 920 176 882 q 255 981 217 959 q 345 1003 294 1003 q 404 993 376 1003 q 453 968 431 983 q 506 928 475 953 q 558 888 538 903 q 606 864 579 874 q 663 854 632 854 q 759 869 716 854 q 868 917 802 883 q 921 975 893 953 q 970 998 948 998 q 990 990 981 998 z "},"Ź":{"ha":905,"x_min":-48,"x_max":998,"o":"m 0 0 m 990 990 q 998 972 998 983 q 972 929 998 953 q 895 886 947 906 l 510 509 l 721 509 l 710 481 l 482 481 l 89 94 q 329 170 216 170 q 399 160 368 170 q 477 131 430 151 q 554 101 521 111 q 627 92 587 92 q 697 116 673 92 q 721 183 721 140 q 621 285 721 264 l 627 313 q 731 263 689 301 q 774 151 774 224 q 753 63 774 102 q 695 2 733 24 q 606 -20 656 -20 q 546 -9 574 -20 q 497 16 519 1 q 444 56 475 31 q 392 95 413 80 q 345 119 371 109 q 288 129 318 129 q 191 114 234 129 q 82 66 148 100 q 29 8 57 31 q -20 -14 1 -14 q -40 -7 -31 -14 q -48 12 -48 0 q -22 54 -48 31 q 56 97 3 77 l 446 481 l 221 481 l 231 509 l 474 509 l 861 889 q 621 814 734 814 q 550 823 581 814 q 473 852 519 833 q 396 882 428 872 q 323 892 363 892 q 253 868 277 892 q 229 800 229 844 q 329 699 229 719 l 323 671 q 219 721 261 682 q 176 832 176 759 q 197 920 176 882 q 255 981 217 959 q 345 1003 294 1003 q 404 993 376 1003 q 453 968 431 983 q 506 928 475 953 q 558 888 538 903 q 606 864 579 874 q 663 854 632 854 q 759 869 716 854 q 868 917 802 883 q 921 975 893 953 q 970 998 948 998 q 990 990 981 998 m 532 1088 q 704 1213 612 1142 q 804 1284 772 1266 q 857 1301 830 1301 q 896 1278 886 1301 q 899 1264 899 1272 q 884 1231 899 1247 q 850 1203 869 1214 q 739 1156 816 1183 q 541 1072 624 1113 l 532 1088 z "},"Ž":{"ha":905,"x_min":-48,"x_max":998,"o":"m 0 0 m 990 990 q 998 972 998 983 q 972 929 998 953 q 895 886 947 906 l 510 509 l 721 509 l 710 481 l 482 481 l 89 94 q 329 170 216 170 q 399 160 368 170 q 477 131 430 151 q 554 101 521 111 q 627 92 587 92 q 697 116 673 92 q 721 183 721 140 q 621 285 721 264 l 627 313 q 731 263 689 301 q 774 151 774 224 q 753 63 774 102 q 695 2 733 24 q 606 -20 656 -20 q 546 -9 574 -20 q 497 16 519 1 q 444 56 475 31 q 392 95 413 80 q 345 119 371 109 q 288 129 318 129 q 191 114 234 129 q 82 66 148 100 q 29 8 57 31 q -20 -14 1 -14 q -40 -7 -31 -14 q -48 12 -48 0 q -22 54 -48 31 q 56 97 3 77 l 446 481 l 221 481 l 231 509 l 474 509 l 861 889 q 621 814 734 814 q 550 823 581 814 q 473 852 519 833 q 396 882 428 872 q 323 892 363 892 q 253 868 277 892 q 229 800 229 844 q 329 699 229 719 l 323 671 q 219 721 261 682 q 176 832 176 759 q 197 920 176 882 q 255 981 217 959 q 345 1003 294 1003 q 404 993 376 1003 q 453 968 431 983 q 506 928 475 953 q 558 888 538 903 q 606 864 579 874 q 663 854 632 854 q 759 869 716 854 q 868 917 802 883 q 921 975 893 953 q 970 998 948 998 q 990 990 981 998 m 664 1189 q 950 1283 819 1255 l 957 1264 q 770 1185 857 1233 q 631 1083 684 1137 l 606 1083 q 522 1194 566 1150 q 412 1264 478 1238 l 418 1283 q 539 1251 493 1270 q 642 1201 586 1232 l 664 1189 z "},"Ż":{"ha":905,"x_min":-48,"x_max":998,"o":"m 0 0 m 990 990 q 998 972 998 983 q 972 929 998 953 q 895 886 947 906 l 510 509 l 721 509 l 710 481 l 482 481 l 89 94 q 329 170 216 170 q 399 160 368 170 q 477 131 430 151 q 554 101 521 111 q 627 92 587 92 q 697 116 673 92 q 721 183 721 140 q 621 285 721 264 l 627 313 q 731 263 689 301 q 774 151 774 224 q 753 63 774 102 q 695 2 733 24 q 606 -20 656 -20 q 546 -9 574 -20 q 497 16 519 1 q 444 56 475 31 q 392 95 413 80 q 345 119 371 109 q 288 129 318 129 q 191 114 234 129 q 82 66 148 100 q 29 8 57 31 q -20 -14 1 -14 q -40 -7 -31 -14 q -48 12 -48 0 q -22 54 -48 31 q 56 97 3 77 l 446 481 l 221 481 l 231 509 l 474 509 l 861 889 q 621 814 734 814 q 550 823 581 814 q 473 852 519 833 q 396 882 428 872 q 323 892 363 892 q 253 868 277 892 q 229 800 229 844 q 329 699 229 719 l 323 671 q 219 721 261 682 q 176 832 176 759 q 197 920 176 882 q 255 981 217 959 q 345 1003 294 1003 q 404 993 376 1003 q 453 968 431 983 q 506 928 475 953 q 558 888 538 903 q 606 864 579 874 q 663 854 632 854 q 759 869 716 854 q 868 917 802 883 q 921 975 893 953 q 970 998 948 998 q 990 990 981 998 m 578 1146 q 592 1195 578 1171 q 630 1234 606 1219 q 682 1250 654 1250 q 733 1229 713 1250 q 752 1177 752 1208 q 738 1127 752 1152 q 700 1087 724 1103 q 648 1072 676 1072 q 598 1093 617 1072 q 578 1146 578 1114 z "},"a":{"ha":726,"x_min":12,"x_max":661,"o":"m 659 227 l 624 125 q 553 14 595 47 q 464 -20 510 -20 q 418 -10 438 -20 q 387 17 398 0 q 376 66 376 37 q 380 108 376 86 q 391 150 385 130 q 397 176 396 170 l 422 277 q 287 51 356 121 q 143 -20 218 -20 q 46 26 79 -20 q 12 149 12 72 q 72 400 12 261 q 228 636 132 539 q 422 733 323 733 q 484 706 460 733 q 511 629 507 679 l 533 714 q 661 733 610 716 l 488 119 q 477 68 477 83 q 509 33 477 33 q 615 175 570 33 l 632 227 l 659 227 m 183 25 q 276 84 222 25 q 381 243 330 144 q 467 454 433 342 l 493 555 q 494 586 494 577 q 474 674 494 642 q 418 707 454 707 q 292 615 359 707 q 180 387 225 523 q 135 132 135 252 q 147 50 135 75 q 183 25 159 25 z "},"á":{"ha":726,"x_min":12,"x_max":715,"o":"m 12 0 m 659 227 l 624 125 q 553 14 595 47 q 464 -20 510 -20 q 418 -10 438 -20 q 387 17 398 0 q 376 66 376 37 q 380 108 376 86 q 391 150 385 130 q 397 176 396 170 l 422 277 q 287 51 356 121 q 143 -20 218 -20 q 46 26 79 -20 q 12 149 12 72 q 72 400 12 261 q 228 636 132 539 q 422 733 323 733 q 484 706 460 733 q 511 629 507 679 l 533 714 q 661 733 610 716 l 488 119 q 477 68 477 83 q 509 33 477 33 q 615 175 570 33 l 632 227 l 659 227 m 183 25 q 276 84 222 25 q 381 243 330 144 q 467 454 433 342 l 493 555 q 494 586 494 577 q 474 674 494 642 q 418 707 454 707 q 292 615 359 707 q 180 387 225 523 q 135 132 135 252 q 147 50 135 75 q 183 25 159 25 m 408 844 q 536 1008 466 912 q 616 1108 591 1083 q 673 1139 644 1139 q 704 1129 690 1139 q 715 1102 715 1118 q 684 1043 715 1074 q 590 966 657 1015 q 422 832 494 896 l 408 844 z "},"ă":{"ha":726,"x_min":12,"x_max":811,"o":"m 12 0 m 659 227 l 624 125 q 553 14 595 47 q 464 -20 510 -20 q 418 -10 438 -20 q 387 17 398 0 q 376 66 376 37 q 380 108 376 86 q 391 150 385 130 q 397 176 396 170 l 422 277 q 287 51 356 121 q 143 -20 218 -20 q 46 26 79 -20 q 12 149 12 72 q 72 400 12 261 q 228 636 132 539 q 422 733 323 733 q 484 706 460 733 q 511 629 507 679 l 533 714 q 661 733 610 716 l 488 119 q 477 68 477 83 q 509 33 477 33 q 615 175 570 33 l 632 227 l 659 227 m 183 25 q 276 84 222 25 q 381 243 330 144 q 467 454 433 342 l 493 555 q 494 586 494 577 q 474 674 494 642 q 418 707 454 707 q 292 615 359 707 q 180 387 225 523 q 135 132 135 252 q 147 50 135 75 q 183 25 159 25 m 510 972 q 659 1005 578 972 q 798 1095 739 1038 l 811 1079 q 721 985 777 1031 q 601 909 664 939 q 486 879 538 879 q 370 935 413 879 q 313 1082 326 991 l 335 1089 q 380 1020 357 1045 q 434 983 404 994 q 510 972 465 972 z "},"â":{"ha":726,"x_min":12,"x_max":720,"o":"m 12 0 m 659 227 l 624 125 q 553 14 595 47 q 464 -20 510 -20 q 418 -10 438 -20 q 387 17 398 0 q 376 66 376 37 q 380 108 376 86 q 391 150 385 130 q 397 176 396 170 l 422 277 q 287 51 356 121 q 143 -20 218 -20 q 46 26 79 -20 q 12 149 12 72 q 72 400 12 261 q 228 636 132 539 q 422 733 323 733 q 484 706 460 733 q 511 629 507 679 l 533 714 q 661 733 610 716 l 488 119 q 477 68 477 83 q 509 33 477 33 q 615 175 570 33 l 632 227 l 659 227 m 183 25 q 276 84 222 25 q 381 243 330 144 q 467 454 433 342 l 493 555 q 494 586 494 577 q 474 674 494 642 q 418 707 454 707 q 292 615 359 707 q 180 387 225 523 q 135 132 135 252 q 147 50 135 75 q 183 25 159 25 m 481 1000 q 237 856 359 905 l 231 875 q 400 978 321 913 q 530 1114 479 1042 l 554 1114 q 607 971 569 1027 q 720 875 645 915 l 714 856 q 581 913 633 878 q 481 1000 529 947 z "},"ä":{"ha":726,"x_min":12,"x_max":747,"o":"m 12 0 m 659 227 l 624 125 q 553 14 595 47 q 464 -20 510 -20 q 418 -10 438 -20 q 387 17 398 0 q 376 66 376 37 q 380 108 376 86 q 391 150 385 130 q 397 176 396 170 l 422 277 q 287 51 356 121 q 143 -20 218 -20 q 46 26 79 -20 q 12 149 12 72 q 72 400 12 261 q 228 636 132 539 q 422 733 323 733 q 484 706 460 733 q 511 629 507 679 l 533 714 q 661 733 610 716 l 488 119 q 477 68 477 83 q 509 33 477 33 q 615 175 570 33 l 632 227 l 659 227 m 183 25 q 276 84 222 25 q 381 243 330 144 q 467 454 433 342 l 493 555 q 494 586 494 577 q 474 674 494 642 q 418 707 454 707 q 292 615 359 707 q 180 387 225 523 q 135 132 135 252 q 147 50 135 75 q 183 25 159 25 m 290 942 q 303 984 290 963 q 338 1019 316 1005 q 384 1032 359 1032 q 433 1012 413 1032 q 453 962 453 991 q 440 919 453 940 q 406 884 427 897 q 360 871 385 871 q 310 891 329 871 q 290 942 290 911 m 585 942 q 598 984 585 963 q 632 1019 611 1005 q 678 1032 654 1032 q 727 1012 707 1032 q 747 962 747 991 q 734 919 747 940 q 700 884 722 897 q 654 871 679 871 q 605 891 624 871 q 585 942 585 911 z "},"à":{"ha":726,"x_min":12,"x_max":661,"o":"m 12 0 m 659 227 l 624 125 q 553 14 595 47 q 464 -20 510 -20 q 418 -10 438 -20 q 387 17 398 0 q 376 66 376 37 q 380 108 376 86 q 391 150 385 130 q 397 176 396 170 l 422 277 q 287 51 356 121 q 143 -20 218 -20 q 46 26 79 -20 q 12 149 12 72 q 72 400 12 261 q 228 636 132 539 q 422 733 323 733 q 484 706 460 733 q 511 629 507 679 l 533 714 q 661 733 610 716 l 488 119 q 477 68 477 83 q 509 33 477 33 q 615 175 570 33 l 632 227 l 659 227 m 183 25 q 276 84 222 25 q 381 243 330 144 q 467 454 433 342 l 493 555 q 494 586 494 577 q 474 674 494 642 q 418 707 454 707 q 292 615 359 707 q 180 387 225 523 q 135 132 135 252 q 147 50 135 75 q 183 25 159 25 m 490 832 q 363 996 439 905 q 292 1089 311 1057 q 277 1133 277 1112 q 300 1173 277 1161 q 321 1177 310 1177 q 382 1133 357 1177 q 427 1029 397 1106 q 509 840 473 913 l 490 832 z "},"ā":{"ha":726,"x_min":12,"x_max":738,"o":"m 12 0 m 659 227 l 624 125 q 553 14 595 47 q 464 -20 510 -20 q 418 -10 438 -20 q 387 17 398 0 q 376 66 376 37 q 380 108 376 86 q 391 150 385 130 q 397 176 396 170 l 422 277 q 287 51 356 121 q 143 -20 218 -20 q 46 26 79 -20 q 12 149 12 72 q 72 400 12 261 q 228 636 132 539 q 422 733 323 733 q 484 706 460 733 q 511 629 507 679 l 533 714 q 661 733 610 716 l 488 119 q 477 68 477 83 q 509 33 477 33 q 615 175 570 33 l 632 227 l 659 227 m 183 25 q 276 84 222 25 q 381 243 330 144 q 467 454 433 342 l 493 555 q 494 586 494 577 q 474 674 494 642 q 418 707 454 707 q 292 615 359 707 q 180 387 225 523 q 135 132 135 252 q 147 50 135 75 q 183 25 159 25 m 296 954 l 304 989 l 738 989 l 729 954 l 296 954 z "},"ą":{"ha":726,"x_min":12,"x_max":661,"o":"m 659 227 l 624 125 q 559 19 598 53 q 476 -19 519 -15 q 404 -72 432 -41 q 375 -142 375 -104 q 389 -181 375 -168 q 428 -195 403 -195 q 480 -182 454 -195 q 522 -151 507 -170 l 539 -167 q 370 -261 460 -261 q 296 -239 322 -261 q 269 -179 269 -216 q 316 -87 269 -128 q 434 -16 363 -46 q 387 17 403 -7 q 376 66 376 37 q 380 108 376 86 q 391 150 385 130 q 397 176 396 170 l 422 277 q 287 51 356 121 q 143 -20 218 -20 q 46 26 79 -20 q 12 149 12 72 q 72 400 12 261 q 228 636 132 539 q 422 733 323 733 q 484 706 460 733 q 511 629 507 679 l 533 714 q 661 733 610 716 l 488 119 q 477 68 477 83 q 509 33 477 33 q 615 175 570 33 l 632 227 l 659 227 m 183 25 q 276 84 222 25 q 381 243 330 144 q 467 454 433 342 l 493 555 q 494 586 494 577 q 474 674 494 642 q 418 707 454 707 q 292 615 359 707 q 180 387 225 523 q 135 132 135 252 q 147 50 135 75 q 183 25 159 25 z "},"å":{"ha":726,"x_min":12,"x_max":663,"o":"m 12 0 m 659 227 l 624 125 q 553 14 595 47 q 464 -20 510 -20 q 418 -10 438 -20 q 387 17 398 0 q 376 66 376 37 q 380 108 376 86 q 391 150 385 130 q 397 176 396 170 l 422 277 q 287 51 356 121 q 143 -20 218 -20 q 46 26 79 -20 q 12 149 12 72 q 72 400 12 261 q 228 636 132 539 q 422 733 323 733 q 484 706 460 733 q 511 629 507 679 l 533 714 q 661 733 610 716 l 488 119 q 477 68 477 83 q 509 33 477 33 q 615 175 570 33 l 632 227 l 659 227 m 183 25 q 276 84 222 25 q 381 243 330 144 q 467 454 433 342 l 493 555 q 494 586 494 577 q 474 674 494 642 q 418 707 454 707 q 292 615 359 707 q 180 387 225 523 q 135 132 135 252 q 147 50 135 75 q 183 25 159 25 m 543 1099 q 604 1085 576 1099 q 647 1046 631 1071 q 663 987 663 1021 q 641 917 663 949 q 583 864 619 884 q 507 844 547 844 q 425 874 457 844 q 392 956 392 905 q 412 1028 392 995 q 467 1080 433 1061 q 543 1099 502 1099 m 513 873 q 568 889 542 873 q 611 930 595 904 q 627 989 627 957 q 614 1032 627 1014 q 581 1060 601 1050 q 538 1069 560 1069 q 485 1054 510 1069 q 444 1011 459 1038 q 428 957 428 985 q 453 896 428 918 q 513 873 478 873 z "},"ã":{"ha":726,"x_min":12,"x_max":764,"o":"m 12 0 m 659 227 l 624 125 q 553 14 595 47 q 464 -20 510 -20 q 418 -10 438 -20 q 387 17 398 0 q 376 66 376 37 q 380 108 376 86 q 391 150 385 130 q 397 176 396 170 l 422 277 q 287 51 356 121 q 143 -20 218 -20 q 46 26 79 -20 q 12 149 12 72 q 72 400 12 261 q 228 636 132 539 q 422 733 323 733 q 484 706 460 733 q 511 629 507 679 l 533 714 q 661 733 610 716 l 488 119 q 477 68 477 83 q 509 33 477 33 q 615 175 570 33 l 632 227 l 659 227 m 183 25 q 276 84 222 25 q 381 243 330 144 q 467 454 433 342 l 493 555 q 494 586 494 577 q 474 674 494 642 q 418 707 454 707 q 292 615 359 707 q 180 387 225 523 q 135 132 135 252 q 147 50 135 75 q 183 25 159 25 m 429 1067 q 495 1053 469 1067 q 551 1010 521 1038 q 596 976 577 987 q 642 965 615 965 q 739 1046 694 965 l 764 1039 q 685 931 733 966 q 583 896 636 896 q 533 904 555 896 q 496 922 511 911 q 460 951 481 933 q 416 986 435 975 q 370 997 397 997 q 273 917 317 997 l 248 924 q 327 1031 279 996 q 429 1067 376 1067 z "},"æ":{"ha":916,"x_min":4,"x_max":896,"o":"m 896 628 q 770 439 896 519 q 479 306 644 359 q 465 172 465 238 q 561 39 465 39 q 770 178 674 39 l 798 167 q 726 76 769 118 q 628 7 682 33 q 518 -20 574 -20 q 406 12 450 -20 q 344 104 361 43 q 143 -20 264 -20 q 39 22 74 -20 q 4 135 4 64 q 80 393 4 254 q 272 625 156 531 q 497 720 387 720 q 589 671 557 720 q 765 733 674 733 q 860 706 823 733 q 896 628 896 679 m 734 707 q 644 654 694 707 q 551 516 595 602 q 485 332 508 429 q 676 422 622 380 q 756 520 728 463 q 785 644 785 577 q 771 690 785 674 q 734 707 758 707 m 187 25 q 262 52 222 25 q 338 136 302 79 q 335 176 335 153 q 365 340 335 249 q 448 516 395 431 q 570 657 502 602 q 507 690 546 690 q 342 606 433 690 q 189 389 252 522 q 126 118 126 256 q 141 50 126 75 q 187 25 156 25 z "},"b":{"ha":700,"x_min":-16,"x_max":647,"o":"m 503 733 q 608 684 570 733 q 647 538 647 634 q 597 294 647 425 q 454 72 547 163 q 240 -20 361 -20 q 167 5 199 -20 q 123 73 136 29 l 5 -22 l -16 -12 q 11 68 1 20 l 254 926 q 260 964 260 949 q 239 1005 260 992 q 167 1018 218 1018 l 174 1047 q 306 1062 248 1048 q 418 1104 364 1076 l 238 448 q 367 665 303 597 q 503 733 431 733 m 239 12 q 379 104 313 12 q 487 329 446 197 q 528 568 528 461 q 510 659 528 628 q 463 689 493 689 q 377 632 425 689 q 279 478 328 576 q 188 264 229 381 l 140 90 q 181 30 157 48 q 239 12 205 12 z "},"c":{"ha":600,"x_min":25,"x_max":595,"o":"m 449 705 q 310 630 379 705 q 198 432 241 555 q 154 172 154 309 q 180 72 154 104 q 252 39 205 39 q 460 178 364 39 l 488 167 q 416 76 459 118 q 318 7 372 33 q 208 -20 264 -20 q 74 33 123 -20 q 25 184 25 85 q 78 427 25 297 q 227 645 131 556 q 444 733 322 733 q 520 719 486 733 q 574 678 554 705 q 595 615 595 651 q 583 562 595 588 q 548 520 570 536 q 496 504 525 504 q 453 519 468 504 q 439 558 439 535 q 470 626 439 597 q 543 663 500 655 q 449 705 513 705 z "},"ć":{"ha":600,"x_min":25,"x_max":682,"o":"m 25 0 m 449 705 q 310 630 379 705 q 198 432 241 555 q 154 172 154 309 q 180 72 154 104 q 252 39 205 39 q 460 178 364 39 l 488 167 q 416 76 459 118 q 318 7 372 33 q 208 -20 264 -20 q 74 33 123 -20 q 25 184 25 85 q 78 427 25 297 q 227 645 131 556 q 444 733 322 733 q 520 719 486 733 q 574 678 554 705 q 595 615 595 651 q 583 562 595 588 q 548 520 570 536 q 496 504 525 504 q 453 519 468 504 q 439 558 439 535 q 470 626 439 597 q 543 663 500 655 q 449 705 513 705 m 375 844 q 503 1008 433 912 q 583 1108 558 1083 q 640 1139 610 1139 q 671 1129 657 1139 q 682 1102 682 1118 q 650 1043 682 1074 q 557 966 624 1015 q 389 832 460 896 l 375 844 z "},"č":{"ha":600,"x_min":25,"x_max":762,"o":"m 25 0 m 449 705 q 310 630 379 705 q 198 432 241 555 q 154 172 154 309 q 180 72 154 104 q 252 39 205 39 q 460 178 364 39 l 488 167 q 416 76 459 118 q 318 7 372 33 q 208 -20 264 -20 q 74 33 123 -20 q 25 184 25 85 q 78 427 25 297 q 227 645 131 556 q 444 733 322 733 q 520 719 486 733 q 574 678 554 705 q 595 615 595 651 q 583 562 595 588 q 548 520 570 536 q 496 504 525 504 q 453 519 468 504 q 439 558 439 535 q 470 626 439 597 q 543 663 500 655 q 449 705 513 705 m 511 970 q 755 1114 633 1064 l 762 1095 q 592 992 671 1056 q 463 856 513 928 l 438 856 q 385 999 423 943 q 273 1095 347 1055 l 278 1114 q 411 1057 358 1091 q 511 970 463 1023 z "},"ç":{"ha":600,"x_min":5,"x_max":595,"o":"m 444 733 q 520 719 486 733 q 574 678 554 705 q 595 615 595 651 q 583 562 595 588 q 548 520 570 536 q 496 504 525 504 q 453 519 468 504 q 439 558 439 535 q 470 626 439 597 q 543 663 500 655 q 449 705 513 705 q 310 630 379 705 q 198 432 241 555 q 154 172 154 309 q 180 72 154 104 q 252 39 205 39 q 460 178 364 39 l 488 167 q 416 76 459 118 q 318 7 372 33 q 208 -20 264 -20 l 171 -100 q 228 -90 197 -90 q 272 -105 256 -90 q 288 -146 288 -120 q 261 -210 288 -184 q 195 -249 235 -236 q 117 -261 155 -261 q 51 -252 81 -261 q 5 -231 20 -243 l 15 -210 q 52 -223 35 -218 q 98 -228 69 -228 q 140 -221 117 -228 q 181 -198 163 -214 q 199 -157 199 -182 q 159 -123 199 -123 q 117 -134 137 -123 l 172 -17 q 64 44 103 -7 q 25 184 25 96 q 78 427 25 297 q 227 645 131 556 q 444 733 322 733 z "},"ĉ":{"ha":600,"x_min":25,"x_max":686,"o":"m 25 0 m 449 705 q 310 630 379 705 q 198 432 241 555 q 154 172 154 309 q 180 72 154 104 q 252 39 205 39 q 460 178 364 39 l 488 167 q 416 76 459 118 q 318 7 372 33 q 208 -20 264 -20 q 74 33 123 -20 q 25 184 25 85 q 78 427 25 297 q 227 645 131 556 q 444 733 322 733 q 520 719 486 733 q 574 678 554 705 q 595 615 595 651 q 583 562 595 588 q 548 520 570 536 q 496 504 525 504 q 453 519 468 504 q 439 558 439 535 q 470 626 439 597 q 543 663 500 655 q 449 705 513 705 m 448 1000 q 204 856 326 905 l 197 875 q 367 978 288 913 q 496 1114 446 1042 l 521 1114 q 574 971 536 1027 q 686 875 612 915 l 681 856 q 548 913 600 878 q 448 1000 496 947 z "},"ċ":{"ha":600,"x_min":25,"x_max":595,"o":"m 25 0 m 449 705 q 310 630 379 705 q 198 432 241 555 q 154 172 154 309 q 180 72 154 104 q 252 39 205 39 q 460 178 364 39 l 488 167 q 416 76 459 118 q 318 7 372 33 q 208 -20 264 -20 q 74 33 123 -20 q 25 184 25 85 q 78 427 25 297 q 227 645 131 556 q 444 733 322 733 q 520 719 486 733 q 574 678 554 705 q 595 615 595 651 q 583 562 595 588 q 548 520 570 536 q 496 504 525 504 q 453 519 468 504 q 439 558 439 535 q 470 626 439 597 q 543 663 500 655 q 449 705 513 705 m 400 956 q 414 1005 400 981 q 451 1046 427 1030 q 503 1063 474 1063 q 554 1043 534 1063 q 574 991 574 1023 q 560 942 574 966 q 522 901 546 917 q 469 885 498 885 q 419 905 439 885 q 400 956 400 925 z "},"d":{"ha":753,"x_min":17,"x_max":785,"o":"m 682 225 l 650 123 q 582 13 626 46 q 489 -20 538 -20 q 424 3 446 -20 q 401 67 401 25 q 419 175 401 104 l 437 245 q 304 43 372 105 q 161 -20 237 -20 q 55 26 94 -20 q 17 164 17 73 q 77 413 17 279 q 241 641 138 548 q 465 733 344 733 q 516 715 492 733 q 550 667 541 698 l 619 926 q 625 964 625 948 q 604 1005 625 991 q 530 1018 582 1018 l 539 1047 q 671 1062 613 1048 q 785 1104 730 1076 l 513 118 q 505 71 505 90 q 538 32 505 32 q 589 64 566 32 q 639 174 612 96 l 656 225 l 682 225 m 201 25 q 296 82 241 25 q 402 234 350 138 q 489 438 454 329 l 541 631 q 512 684 532 667 q 467 701 492 701 q 307 611 382 701 q 186 390 232 522 q 140 146 140 259 q 201 25 140 25 z "},"ð":{"ha":676,"x_min":29,"x_max":690,"o":"m 479 938 q 621 547 621 788 q 572 290 621 422 q 433 69 524 158 q 220 -20 342 -20 q 80 36 131 -20 q 29 199 29 91 q 77 433 29 307 q 214 646 125 559 q 418 733 302 733 q 491 712 460 733 q 414 908 472 825 l 158 794 l 150 819 l 399 929 q 229 1063 338 1006 l 245 1086 q 460 958 376 1037 l 682 1055 l 690 1031 l 479 938 m 228 8 q 362 98 299 8 q 463 324 425 189 q 501 585 501 459 q 495 685 501 638 q 418 705 469 705 q 287 615 349 705 q 186 389 224 524 q 149 129 149 253 q 228 8 149 8 z "},"ď":{"ha":753,"x_min":17,"x_max":985,"o":"m 17 0 m 682 225 l 650 123 q 582 13 626 46 q 489 -20 538 -20 q 424 3 446 -20 q 401 67 401 25 q 419 175 401 104 l 437 245 q 304 43 372 105 q 161 -20 237 -20 q 55 26 94 -20 q 17 164 17 73 q 77 413 17 279 q 241 641 138 548 q 465 733 344 733 q 516 715 492 733 q 550 667 541 698 l 619 926 q 625 964 625 948 q 604 1005 625 991 q 530 1018 582 1018 l 539 1047 q 671 1062 613 1048 q 785 1104 730 1076 l 513 118 q 505 71 505 90 q 538 32 505 32 q 589 64 566 32 q 639 174 612 96 l 656 225 l 682 225 m 201 25 q 296 82 241 25 q 402 234 350 138 q 489 438 454 329 l 541 631 q 512 684 532 667 q 467 701 492 701 q 307 611 382 701 q 186 390 232 522 q 140 146 140 259 q 201 25 140 25 m 782 750 q 846 915 825 843 q 867 1018 867 987 q 848 1044 867 1044 l 853 1074 l 868 1073 q 882 1072 873 1072 q 983 1089 932 1072 q 985 1078 985 1086 q 937 938 985 1024 q 802 745 889 851 l 782 750 z "},"đ":{"ha":753,"x_min":17,"x_max":851,"o":"m 513 118 q 505 71 505 90 q 538 32 505 32 q 589 64 566 32 q 639 174 612 96 l 656 225 l 682 225 l 650 123 q 582 13 626 46 q 489 -20 538 -20 q 424 3 446 -20 q 401 67 401 25 q 419 175 401 104 l 437 245 q 304 43 372 105 q 161 -20 237 -20 q 55 26 94 -20 q 17 164 17 73 q 77 413 17 279 q 241 641 138 548 q 465 733 344 733 q 516 715 492 733 q 550 667 541 698 l 597 844 l 366 844 l 374 872 l 605 872 l 619 926 q 625 964 625 948 q 604 1005 625 991 q 530 1018 582 1018 l 539 1047 q 671 1062 613 1048 q 785 1104 730 1076 l 721 872 l 851 872 l 843 844 l 713 844 l 513 118 m 201 25 q 296 82 241 25 q 402 234 350 138 q 489 438 454 329 l 541 631 q 512 684 532 667 q 467 701 492 701 q 307 611 382 701 q 186 390 232 522 q 140 146 140 259 q 201 25 140 25 z "},"e":{"ha":596,"x_min":17,"x_max":578,"o":"m 578 642 q 453 446 578 529 q 163 307 328 362 q 147 172 147 239 q 243 39 147 39 q 457 178 361 39 l 479 167 q 408 76 451 118 q 310 7 364 33 q 200 -20 256 -20 q 65 31 114 -20 q 17 176 17 81 q 79 414 17 281 q 246 640 140 547 q 475 733 351 733 q 549 709 519 733 q 578 642 578 686 m 444 707 q 345 655 399 707 q 242 516 290 603 q 169 333 194 430 q 358 422 307 381 q 438 520 410 463 q 467 644 467 577 q 461 694 467 682 q 444 707 456 707 z "},"é":{"ha":596,"x_min":17,"x_max":680,"o":"m 17 0 m 578 642 q 453 446 578 529 q 163 307 328 362 q 147 172 147 239 q 243 39 147 39 q 457 178 361 39 l 479 167 q 408 76 451 118 q 310 7 364 33 q 200 -20 256 -20 q 65 31 114 -20 q 17 176 17 81 q 79 414 17 281 q 246 640 140 547 q 475 733 351 733 q 549 709 519 733 q 578 642 578 686 m 444 707 q 345 655 399 707 q 242 516 290 603 q 169 333 194 430 q 358 422 307 381 q 438 520 410 463 q 467 644 467 577 q 461 694 467 682 q 444 707 456 707 m 374 844 q 501 1008 431 912 q 582 1108 557 1083 q 639 1139 609 1139 q 669 1129 656 1139 q 680 1102 680 1118 q 649 1043 680 1074 q 555 966 623 1015 q 388 832 459 896 l 374 844 z "},"ĕ":{"ha":596,"x_min":17,"x_max":777,"o":"m 17 0 m 578 642 q 453 446 578 529 q 163 307 328 362 q 147 172 147 239 q 243 39 147 39 q 457 178 361 39 l 479 167 q 408 76 451 118 q 310 7 364 33 q 200 -20 256 -20 q 65 31 114 -20 q 17 176 17 81 q 79 414 17 281 q 246 640 140 547 q 475 733 351 733 q 549 709 519 733 q 578 642 578 686 m 444 707 q 345 655 399 707 q 242 516 290 603 q 169 333 194 430 q 358 422 307 381 q 438 520 410 463 q 467 644 467 577 q 461 694 467 682 q 444 707 456 707 m 475 972 q 624 1005 544 972 q 763 1095 705 1038 l 777 1079 q 686 985 743 1031 q 566 909 629 939 q 452 879 503 879 q 335 935 378 879 q 278 1082 292 991 l 300 1089 q 346 1020 322 1045 q 400 983 369 994 q 475 972 431 972 z "},"ě":{"ha":596,"x_min":17,"x_max":760,"o":"m 17 0 m 578 642 q 453 446 578 529 q 163 307 328 362 q 147 172 147 239 q 243 39 147 39 q 457 178 361 39 l 479 167 q 408 76 451 118 q 310 7 364 33 q 200 -20 256 -20 q 65 31 114 -20 q 17 176 17 81 q 79 414 17 281 q 246 640 140 547 q 475 733 351 733 q 549 709 519 733 q 578 642 578 686 m 444 707 q 345 655 399 707 q 242 516 290 603 q 169 333 194 430 q 358 422 307 381 q 438 520 410 463 q 467 644 467 577 q 461 694 467 682 q 444 707 456 707 m 510 970 q 753 1114 631 1064 l 760 1095 q 591 992 670 1056 q 462 856 512 928 l 437 856 q 384 999 422 943 q 271 1095 346 1055 l 277 1114 q 409 1057 357 1091 q 510 970 462 1023 z "},"ê":{"ha":596,"x_min":17,"x_max":685,"o":"m 17 0 m 578 642 q 453 446 578 529 q 163 307 328 362 q 147 172 147 239 q 243 39 147 39 q 457 178 361 39 l 479 167 q 408 76 451 118 q 310 7 364 33 q 200 -20 256 -20 q 65 31 114 -20 q 17 176 17 81 q 79 414 17 281 q 246 640 140 547 q 475 733 351 733 q 549 709 519 733 q 578 642 578 686 m 444 707 q 345 655 399 707 q 242 516 290 603 q 169 333 194 430 q 358 422 307 381 q 438 520 410 463 q 467 644 467 577 q 461 694 467 682 q 444 707 456 707 m 446 1000 q 203 856 325 905 l 196 875 q 365 978 286 913 q 495 1114 444 1042 l 519 1114 q 572 971 534 1027 q 685 875 610 915 l 680 856 q 547 913 599 878 q 446 1000 494 947 z "},"ë":{"ha":596,"x_min":17,"x_max":713,"o":"m 17 0 m 578 642 q 453 446 578 529 q 163 307 328 362 q 147 172 147 239 q 243 39 147 39 q 457 178 361 39 l 479 167 q 408 76 451 118 q 310 7 364 33 q 200 -20 256 -20 q 65 31 114 -20 q 17 176 17 81 q 79 414 17 281 q 246 640 140 547 q 475 733 351 733 q 549 709 519 733 q 578 642 578 686 m 444 707 q 345 655 399 707 q 242 516 290 603 q 169 333 194 430 q 358 422 307 381 q 438 520 410 463 q 467 644 467 577 q 461 694 467 682 q 444 707 456 707 m 256 942 q 269 984 256 963 q 303 1019 281 1005 q 349 1032 325 1032 q 398 1012 378 1032 q 418 962 418 991 q 406 919 418 940 q 371 884 393 897 q 326 871 350 871 q 275 891 294 871 q 256 942 256 911 m 551 942 q 564 984 551 963 q 598 1019 576 1005 q 644 1032 619 1032 q 693 1012 673 1032 q 713 962 713 991 q 700 919 713 940 q 666 884 687 897 q 620 871 644 871 q 570 891 589 871 q 551 942 551 911 z "},"ė":{"ha":596,"x_min":17,"x_max":578,"o":"m 17 0 m 578 642 q 453 446 578 529 q 163 307 328 362 q 147 172 147 239 q 243 39 147 39 q 457 178 361 39 l 479 167 q 408 76 451 118 q 310 7 364 33 q 200 -20 256 -20 q 65 31 114 -20 q 17 176 17 81 q 79 414 17 281 q 246 640 140 547 q 475 733 351 733 q 549 709 519 733 q 578 642 578 686 m 444 707 q 345 655 399 707 q 242 516 290 603 q 169 333 194 430 q 358 422 307 381 q 438 520 410 463 q 467 644 467 577 q 461 694 467 682 q 444 707 456 707 m 399 956 q 412 1005 399 981 q 449 1046 426 1030 q 501 1063 473 1063 q 553 1043 533 1063 q 572 991 572 1023 q 558 942 572 966 q 520 901 545 917 q 468 885 496 885 q 418 905 437 885 q 399 956 399 925 z "},"è":{"ha":596,"x_min":17,"x_max":578,"o":"m 17 0 m 578 642 q 453 446 578 529 q 163 307 328 362 q 147 172 147 239 q 243 39 147 39 q 457 178 361 39 l 479 167 q 408 76 451 118 q 310 7 364 33 q 200 -20 256 -20 q 65 31 114 -20 q 17 176 17 81 q 79 414 17 281 q 246 640 140 547 q 475 733 351 733 q 549 709 519 733 q 578 642 578 686 m 444 707 q 345 655 399 707 q 242 516 290 603 q 169 333 194 430 q 358 422 307 381 q 438 520 410 463 q 467 644 467 577 q 461 694 467 682 q 444 707 456 707 m 456 832 q 328 996 404 905 q 257 1089 277 1057 q 243 1133 243 1112 q 265 1173 243 1161 q 287 1177 275 1177 q 347 1133 323 1177 q 393 1029 363 1106 q 474 840 439 913 l 456 832 z "},"ē":{"ha":596,"x_min":17,"x_max":703,"o":"m 17 0 m 578 642 q 453 446 578 529 q 163 307 328 362 q 147 172 147 239 q 243 39 147 39 q 457 178 361 39 l 479 167 q 408 76 451 118 q 310 7 364 33 q 200 -20 256 -20 q 65 31 114 -20 q 17 176 17 81 q 79 414 17 281 q 246 640 140 547 q 475 733 351 733 q 549 709 519 733 q 578 642 578 686 m 444 707 q 345 655 399 707 q 242 516 290 603 q 169 333 194 430 q 358 422 307 381 q 438 520 410 463 q 467 644 467 577 q 461 694 467 682 q 444 707 456 707 m 262 954 l 270 989 l 703 989 l 694 954 l 262 954 z "},"ę":{"ha":596,"x_min":17,"x_max":578,"o":"m 578 642 q 453 446 578 529 q 163 307 328 362 q 147 172 147 239 q 243 39 147 39 q 457 178 361 39 l 479 167 q 381 53 442 103 q 252 -14 321 2 q 171 -68 203 -35 q 139 -142 139 -101 q 153 -181 139 -168 q 192 -195 167 -195 q 244 -182 218 -195 q 286 -151 271 -170 l 303 -167 q 134 -261 224 -261 q 60 -239 86 -261 q 33 -179 33 -216 q 78 -90 33 -130 q 190 -20 123 -50 q 63 34 109 -16 q 17 176 17 84 q 79 414 17 281 q 246 640 140 547 q 475 733 351 733 q 549 709 519 733 q 578 642 578 686 m 444 707 q 345 655 399 707 q 242 516 290 603 q 169 333 194 430 q 358 422 307 381 q 438 520 410 463 q 467 644 467 577 q 461 694 467 682 q 444 707 456 707 z "},"f":{"ha":446,"x_min":-35,"x_max":673,"o":"m 542 1086 q 638 1059 604 1086 q 673 987 673 1031 q 661 942 673 964 q 628 906 649 920 q 581 892 606 892 q 539 904 554 892 q 525 939 524 916 q 547 997 525 972 q 604 1032 568 1021 q 586 1055 604 1045 q 541 1065 567 1065 q 460 1029 500 1065 q 411 944 431 1002 q 362 774 391 885 q 347 715 349 722 l 347 714 l 511 714 l 503 686 l 339 686 l 90 -241 q -35 -261 17 -243 l 219 686 l 93 686 l 102 714 l 226 714 l 227 715 q 290 900 256 829 q 368 1017 323 972 q 446 1068 400 1049 q 542 1086 492 1086 z "},"g":{"ha":624,"x_min":-134,"x_max":700,"o":"m 640 861 q 700 812 700 861 q 689 774 700 793 q 661 744 678 755 q 623 732 643 732 q 594 743 605 732 q 583 772 583 753 q 602 822 583 800 q 593 825 599 825 q 559 811 582 825 q 484 720 522 787 q 587 578 587 688 q 552 453 587 515 q 455 349 517 391 q 312 298 392 307 l 268 274 q 176 219 205 240 q 147 179 147 199 q 231 132 147 153 l 332 106 q 418 77 385 92 q 470 41 452 62 q 489 -14 489 19 q 442 -128 489 -68 q 301 -229 395 -188 q 77 -271 208 -271 q -81 -243 -28 -271 q -134 -170 -134 -216 q 103 32 -134 -61 q 50 104 50 55 q 67 161 50 134 q 130 220 83 188 q 264 296 176 253 q 126 336 176 298 q 75 447 75 374 q 108 572 75 505 q 211 686 140 639 q 389 733 281 733 q 460 726 430 733 q 550 831 504 798 q 640 861 595 861 m 279 321 q 392 369 351 321 q 449 485 433 418 q 464 618 464 551 q 382 708 464 708 q 270 649 311 708 q 212 520 229 591 q 196 411 196 450 q 217 342 196 363 q 279 321 239 321 m 125 25 q -17 -146 -17 -51 q 20 -221 -17 -195 q 115 -248 56 -248 q 244 -223 179 -248 q 352 -157 310 -199 q 395 -66 395 -116 q 381 -44 395 -51 q 329 -27 368 -37 l 311 -22 l 125 25 z "},"ǵ":{"ha":624,"x_min":-134,"x_max":700,"o":"m 0 0 m 640 861 q 700 812 700 861 q 689 774 700 793 q 661 744 678 755 q 623 732 643 732 q 594 743 605 732 q 583 772 583 753 q 602 822 583 800 q 593 825 599 825 q 559 811 582 825 q 484 720 522 787 q 587 578 587 688 q 552 453 587 515 q 455 349 517 391 q 312 298 392 307 l 268 274 q 176 219 205 240 q 147 179 147 199 q 231 132 147 153 l 332 106 q 418 77 385 92 q 470 41 452 62 q 489 -14 489 19 q 442 -128 489 -68 q 301 -229 395 -188 q 77 -271 208 -271 q -81 -243 -28 -271 q -134 -170 -134 -216 q 103 32 -134 -61 q 50 104 50 55 q 67 161 50 134 q 130 220 83 188 q 264 296 176 253 q 126 336 176 298 q 75 447 75 374 q 108 572 75 505 q 211 686 140 639 q 389 733 281 733 q 460 726 430 733 q 550 831 504 798 q 640 861 595 861 m 279 321 q 392 369 351 321 q 449 485 433 418 q 464 618 464 551 q 382 708 464 708 q 270 649 311 708 q 212 520 229 591 q 196 411 196 450 q 217 342 196 363 q 279 321 239 321 m 125 25 q -17 -146 -17 -51 q 20 -221 -17 -195 q 115 -248 56 -248 q 244 -223 179 -248 q 352 -157 310 -199 q 395 -66 395 -116 q 381 -44 395 -51 q 329 -27 368 -37 l 311 -22 l 125 25 m 342 844 q 469 1008 399 912 q 550 1108 525 1083 q 607 1139 577 1139 q 637 1129 624 1139 q 648 1102 648 1118 q 617 1043 648 1074 q 524 966 591 1015 q 356 832 427 896 l 342 844 z "},"ğ":{"ha":624,"x_min":-134,"x_max":745,"o":"m 0 0 m 640 861 q 700 812 700 861 q 689 774 700 793 q 661 744 678 755 q 623 732 643 732 q 594 743 605 732 q 583 772 583 753 q 602 822 583 800 q 593 825 599 825 q 559 811 582 825 q 484 720 522 787 q 587 578 587 688 q 552 453 587 515 q 455 349 517 391 q 312 298 392 307 l 268 274 q 176 219 205 240 q 147 179 147 199 q 231 132 147 153 l 332 106 q 418 77 385 92 q 470 41 452 62 q 489 -14 489 19 q 442 -128 489 -68 q 301 -229 395 -188 q 77 -271 208 -271 q -81 -243 -28 -271 q -134 -170 -134 -216 q 103 32 -134 -61 q 50 104 50 55 q 67 161 50 134 q 130 220 83 188 q 264 296 176 253 q 126 336 176 298 q 75 447 75 374 q 108 572 75 505 q 211 686 140 639 q 389 733 281 733 q 460 726 430 733 q 550 831 504 798 q 640 861 595 861 m 279 321 q 392 369 351 321 q 449 485 433 418 q 464 618 464 551 q 382 708 464 708 q 270 649 311 708 q 212 520 229 591 q 196 411 196 450 q 217 342 196 363 q 279 321 239 321 m 125 25 q -17 -146 -17 -51 q 20 -221 -17 -195 q 115 -248 56 -248 q 244 -223 179 -248 q 352 -157 310 -199 q 395 -66 395 -116 q 381 -44 395 -51 q 329 -27 368 -37 l 311 -22 l 125 25 m 444 972 q 592 1005 512 972 q 731 1095 673 1038 l 745 1079 q 654 985 711 1031 q 534 909 597 939 q 420 879 471 879 q 303 935 347 879 q 246 1082 260 991 l 269 1089 q 314 1020 290 1045 q 368 983 337 994 q 444 972 399 972 z "},"ĝ":{"ha":624,"x_min":-134,"x_max":700,"o":"m 649 861 q 700 812 700 857 q 689 774 700 793 q 661 744 678 755 q 623 732 643 732 q 594 743 605 732 q 583 772 583 753 q 602 822 583 800 q 593 825 599 825 q 559 811 582 825 q 484 720 522 787 q 587 578 587 688 q 552 453 587 515 q 455 349 517 391 q 312 298 392 307 l 268 274 q 176 219 205 240 q 147 179 147 199 q 231 132 147 153 l 332 106 q 418 77 385 92 q 470 41 452 62 q 489 -14 489 19 q 442 -128 489 -68 q 301 -229 395 -188 q 77 -271 208 -271 q -81 -243 -28 -271 q -134 -170 -134 -216 q 103 32 -134 -61 q 50 104 50 55 q 67 161 50 134 q 130 220 83 188 q 264 296 176 253 q 126 336 176 298 q 75 447 75 374 q 108 572 75 505 q 211 686 140 639 q 389 733 281 733 q 460 726 430 733 q 550 831 504 798 q 630 861 591 858 q 509 917 557 884 q 414 1000 460 950 q 171 856 293 905 l 164 875 q 333 978 254 913 q 463 1114 412 1042 l 488 1114 q 541 971 503 1027 q 653 875 578 915 l 649 861 m 279 321 q 392 369 351 321 q 449 485 433 418 q 464 618 464 551 q 382 708 464 708 q 270 649 311 708 q 212 520 229 591 q 196 411 196 450 q 217 342 196 363 q 279 321 239 321 m 125 25 q -17 -146 -17 -51 q 20 -221 -17 -195 q 115 -248 56 -248 q 244 -223 179 -248 q 352 -157 310 -199 q 395 -66 395 -116 q 381 -44 395 -51 q 329 -27 368 -37 l 311 -22 l 125 25 z "},"ģ":{"ha":624,"x_min":-134,"x_max":700,"o":"m 0 0 m 640 861 q 700 812 700 861 q 689 774 700 793 q 661 744 678 755 q 623 732 643 732 q 594 743 605 732 q 583 772 583 753 q 602 822 583 800 q 593 825 599 825 q 559 811 582 825 q 484 720 522 787 q 587 578 587 688 q 552 453 587 515 q 455 349 517 391 q 312 298 392 307 l 268 274 q 176 219 205 240 q 147 179 147 199 q 231 132 147 153 l 332 106 q 418 77 385 92 q 470 41 452 62 q 489 -14 489 19 q 442 -128 489 -68 q 301 -229 395 -188 q 77 -271 208 -271 q -81 -243 -28 -271 q -134 -170 -134 -216 q 103 32 -134 -61 q 50 104 50 55 q 67 161 50 134 q 130 220 83 188 q 264 296 176 253 q 126 336 176 298 q 75 447 75 374 q 108 572 75 505 q 211 686 140 639 q 389 733 281 733 q 460 726 430 733 q 550 831 504 798 q 640 861 595 861 m 279 321 q 392 369 351 321 q 449 485 433 418 q 464 618 464 551 q 382 708 464 708 q 270 649 311 708 q 212 520 229 591 q 196 411 196 450 q 217 342 196 363 q 279 321 239 321 m 125 25 q -17 -146 -17 -51 q 20 -221 -17 -195 q 115 -248 56 -248 q 244 -223 179 -248 q 352 -157 310 -199 q 395 -66 395 -116 q 381 -44 395 -51 q 329 -27 368 -37 l 311 -22 l 125 25 m 421 810 q 365 832 385 810 q 345 890 345 855 q 373 982 345 943 q 481 1049 402 1022 l 490 1025 q 421 990 452 1014 q 388 937 391 967 q 415 952 399 946 q 449 958 432 958 q 494 943 477 958 q 511 900 511 928 q 500 858 511 879 q 469 823 490 837 q 421 810 449 810 z "},"ġ":{"ha":624,"x_min":-134,"x_max":700,"o":"m 0 0 m 640 861 q 700 812 700 861 q 689 774 700 793 q 661 744 678 755 q 623 732 643 732 q 594 743 605 732 q 583 772 583 753 q 602 822 583 800 q 593 825 599 825 q 559 811 582 825 q 484 720 522 787 q 587 578 587 688 q 552 453 587 515 q 455 349 517 391 q 312 298 392 307 l 268 274 q 176 219 205 240 q 147 179 147 199 q 231 132 147 153 l 332 106 q 418 77 385 92 q 470 41 452 62 q 489 -14 489 19 q 442 -128 489 -68 q 301 -229 395 -188 q 77 -271 208 -271 q -81 -243 -28 -271 q -134 -170 -134 -216 q 103 32 -134 -61 q 50 104 50 55 q 67 161 50 134 q 130 220 83 188 q 264 296 176 253 q 126 336 176 298 q 75 447 75 374 q 108 572 75 505 q 211 686 140 639 q 389 733 281 733 q 460 726 430 733 q 550 831 504 798 q 640 861 595 861 m 279 321 q 392 369 351 321 q 449 485 433 418 q 464 618 464 551 q 382 708 464 708 q 270 649 311 708 q 212 520 229 591 q 196 411 196 450 q 217 342 196 363 q 279 321 239 321 m 125 25 q -17 -146 -17 -51 q 20 -221 -17 -195 q 115 -248 56 -248 q 244 -223 179 -248 q 352 -157 310 -199 q 395 -66 395 -116 q 381 -44 395 -51 q 329 -27 368 -37 l 311 -22 l 125 25 m 367 956 q 380 1005 367 981 q 417 1046 394 1030 q 469 1063 441 1063 q 521 1043 501 1063 q 541 991 541 1023 q 527 942 541 966 q 489 901 513 917 q 436 885 465 885 q 386 905 406 885 q 367 956 367 925 z "},"h":{"ha":745,"x_min":-12,"x_max":675,"o":"m 640 123 q 472 -20 591 -20 q 374 66 374 -20 q 397 175 374 108 l 529 572 q 544 642 544 614 q 498 689 544 689 q 389 625 448 689 q 270 444 330 561 q 159 174 211 328 l 109 0 l -12 0 l 262 926 q 269 964 269 950 q 247 1005 269 992 q 174 1018 224 1018 l 182 1047 q 432 1104 326 1049 l 231 416 q 332 600 282 530 q 434 702 382 670 q 545 733 486 733 q 656 628 656 733 q 636 524 656 586 l 501 118 q 491 65 491 84 q 524 32 491 32 q 577 63 551 32 q 631 174 603 95 l 648 225 l 675 225 l 640 123 z "},"ħ":{"ha":745,"x_min":-12,"x_max":675,"o":"m 640 123 q 472 -20 591 -20 q 374 66 374 -20 q 397 175 374 108 l 529 572 q 544 642 544 614 q 498 689 544 689 q 389 625 448 689 q 270 444 330 561 q 159 174 211 328 l 109 0 l -12 0 l 238 844 l 113 844 l 121 872 l 246 872 l 262 926 q 269 964 269 950 q 247 1005 269 992 q 174 1018 224 1018 l 182 1047 q 432 1104 326 1049 l 364 872 l 599 872 l 590 844 l 356 844 l 231 416 q 332 600 282 530 q 434 702 382 670 q 545 733 486 733 q 656 628 656 733 q 636 524 656 586 l 501 118 q 491 65 491 84 q 524 32 491 32 q 577 63 551 32 q 631 174 603 95 l 648 225 l 675 225 l 640 123 z "},"ĥ":{"ha":745,"x_min":-12,"x_max":815,"o":"m 0 0 m 640 123 q 472 -20 591 -20 q 374 66 374 -20 q 397 175 374 108 l 529 572 q 544 642 544 614 q 498 689 544 689 q 389 625 448 689 q 270 444 330 561 q 159 174 211 328 l 109 0 l -12 0 l 262 926 q 269 964 269 950 q 247 1005 269 992 q 174 1018 224 1018 l 182 1047 q 432 1104 326 1049 l 231 416 q 332 600 282 530 q 434 702 382 670 q 545 733 486 733 q 656 628 656 733 q 636 524 656 586 l 501 118 q 491 65 491 84 q 524 32 491 32 q 577 63 551 32 q 631 174 603 95 l 648 225 l 675 225 l 640 123 m 576 1334 q 333 1190 455 1238 l 326 1208 q 495 1311 416 1247 q 625 1447 574 1375 l 650 1447 q 703 1304 665 1360 q 815 1208 741 1249 l 810 1190 q 677 1246 729 1212 q 576 1334 625 1281 z "},"i":{"ha":419,"x_min":45,"x_max":435,"o":"m 260 949 q 275 1001 260 976 q 314 1040 290 1025 q 364 1055 338 1055 q 415 1035 395 1055 q 435 983 435 1014 q 420 931 435 956 q 381 892 406 907 q 330 878 357 878 q 280 898 300 878 q 260 949 260 918 m 220 596 q 230 647 230 627 q 200 682 230 682 q 143 649 168 682 q 90 541 118 615 l 71 489 l 45 489 l 81 590 q 155 701 109 669 q 253 733 201 733 q 345 646 345 733 q 322 539 345 606 l 174 118 q 163 67 163 88 q 196 32 163 32 q 250 63 224 32 q 304 174 275 95 l 323 225 l 350 225 l 314 123 q 241 14 287 48 q 143 -20 196 -20 q 46 65 46 -20 q 71 175 46 108 l 220 596 z "},"ı":{"ha":419,"x_min":45,"x_max":350,"o":"m 220 596 q 230 647 230 627 q 200 682 230 682 q 143 649 168 682 q 90 541 118 615 l 71 489 l 45 489 l 81 590 q 155 701 109 669 q 253 733 201 733 q 345 646 345 733 q 322 539 345 606 l 174 118 q 163 67 163 88 q 196 32 163 32 q 250 63 224 32 q 304 174 275 95 l 323 225 l 350 225 l 314 123 q 241 14 287 48 q 143 -20 196 -20 q 46 65 46 -20 q 71 175 46 108 l 220 596 z "},"í":{"ha":419,"x_min":45,"x_max":533,"o":"m 45 0 m 220 596 q 230 647 230 627 q 200 682 230 682 q 143 649 168 682 q 90 541 118 615 l 71 489 l 45 489 l 81 590 q 155 701 109 669 q 253 733 201 733 q 345 646 345 733 q 322 539 345 606 l 174 118 q 163 67 163 88 q 196 32 163 32 q 250 63 224 32 q 304 174 275 95 l 323 225 l 350 225 l 314 123 q 241 14 287 48 q 143 -20 196 -20 q 46 65 46 -20 q 71 175 46 108 l 220 596 m 227 844 q 354 1008 284 912 q 435 1108 410 1083 q 492 1139 462 1139 q 522 1129 509 1139 q 533 1102 533 1118 q 502 1043 533 1074 q 408 966 475 1015 q 241 832 312 896 l 227 844 z "},"ĭ":{"ha":419,"x_min":45,"x_max":629,"o":"m 45 0 m 220 596 q 230 647 230 627 q 200 682 230 682 q 143 649 168 682 q 90 541 118 615 l 71 489 l 45 489 l 81 590 q 155 701 109 669 q 253 733 201 733 q 345 646 345 733 q 322 539 345 606 l 174 118 q 163 67 163 88 q 196 32 163 32 q 250 63 224 32 q 304 174 275 95 l 323 225 l 350 225 l 314 123 q 241 14 287 48 q 143 -20 196 -20 q 46 65 46 -20 q 71 175 46 108 l 220 596 m 328 972 q 477 1005 397 972 q 616 1095 557 1038 l 629 1079 q 539 985 595 1031 q 419 909 482 939 q 304 879 356 879 q 188 935 231 879 q 131 1082 144 991 l 153 1089 q 198 1020 175 1045 q 253 983 222 994 q 328 972 283 972 z "},"î":{"ha":419,"x_min":45,"x_max":538,"o":"m 45 0 m 220 596 q 230 647 230 627 q 200 682 230 682 q 143 649 168 682 q 90 541 118 615 l 71 489 l 45 489 l 81 590 q 155 701 109 669 q 253 733 201 733 q 345 646 345 733 q 322 539 345 606 l 174 118 q 163 67 163 88 q 196 32 163 32 q 250 63 224 32 q 304 174 275 95 l 323 225 l 350 225 l 314 123 q 241 14 287 48 q 143 -20 196 -20 q 46 65 46 -20 q 71 175 46 108 l 220 596 m 299 1000 q 56 856 178 905 l 49 875 q 218 978 139 913 q 348 1114 297 1042 l 372 1114 q 425 971 387 1027 q 538 875 463 915 l 532 856 q 399 913 452 878 q 299 1000 347 947 z "},"ï":{"ha":419,"x_min":45,"x_max":566,"o":"m 45 0 m 220 596 q 230 647 230 627 q 200 682 230 682 q 143 649 168 682 q 90 541 118 615 l 71 489 l 45 489 l 81 590 q 155 701 109 669 q 253 733 201 733 q 345 646 345 733 q 322 539 345 606 l 174 118 q 163 67 163 88 q 196 32 163 32 q 250 63 224 32 q 304 174 275 95 l 323 225 l 350 225 l 314 123 q 241 14 287 48 q 143 -20 196 -20 q 46 65 46 -20 q 71 175 46 108 l 220 596 m 109 942 q 121 984 109 963 q 156 1019 134 1005 q 202 1032 178 1032 q 251 1012 231 1032 q 271 962 271 991 q 258 919 271 940 q 224 884 245 897 q 178 871 203 871 q 128 891 147 871 q 109 942 109 911 m 404 942 q 416 984 404 963 q 451 1019 429 1005 q 496 1032 472 1032 q 546 1012 526 1032 q 566 962 566 991 q 553 919 566 940 q 518 884 540 897 q 473 871 497 871 q 423 891 442 871 q 404 942 404 911 z "},"ì":{"ha":419,"x_min":45,"x_max":350,"o":"m 45 0 m 220 596 q 230 647 230 627 q 200 682 230 682 q 143 649 168 682 q 90 541 118 615 l 71 489 l 45 489 l 81 590 q 155 701 109 669 q 253 733 201 733 q 345 646 345 733 q 322 539 345 606 l 174 118 q 163 67 163 88 q 196 32 163 32 q 250 63 224 32 q 304 174 275 95 l 323 225 l 350 225 l 314 123 q 241 14 287 48 q 143 -20 196 -20 q 46 65 46 -20 q 71 175 46 108 l 220 596 m 309 832 q 181 996 257 905 q 110 1089 130 1057 q 96 1133 96 1112 q 118 1173 96 1161 q 140 1177 128 1177 q 200 1133 176 1177 q 245 1029 216 1106 q 327 840 292 913 l 309 832 z "},"ĳ":{"ha":844,"x_min":45,"x_max":893,"o":"m 261 949 q 275 999 261 974 q 312 1040 288 1023 q 363 1056 335 1056 q 415 1036 395 1056 q 435 985 435 1016 q 421 935 435 960 q 383 894 407 910 q 330 878 359 878 q 280 898 300 878 q 261 949 261 918 m 720 949 q 733 999 720 974 q 770 1040 747 1023 q 822 1056 793 1056 q 873 1036 854 1056 q 893 985 893 1016 q 879 935 893 960 q 841 894 865 910 q 789 878 817 878 q 739 898 758 878 q 720 949 720 918 m 355 126 q 387 221 375 171 q 414 356 398 272 q 440 493 427 437 q 475 596 453 548 q 682 733 536 733 q 796 627 796 733 q 782 539 796 589 l 675 160 q 404 -248 579 -183 q 322 -261 364 -261 q 274 -247 291 -261 q 257 -207 257 -232 q 268 -167 257 -187 q 298 -135 279 -147 q 339 -122 317 -122 q 373 -134 361 -122 q 385 -165 385 -146 q 346 -240 385 -203 q 430 -200 399 -234 q 484 -90 462 -167 l 676 596 q 682 632 682 616 q 628 682 682 682 q 551 656 584 682 q 490 559 518 631 q 466 478 476 522 q 444 363 456 434 q 413 215 427 273 q 375 102 399 156 q 182 -20 320 -20 q 87 11 119 -20 q 56 96 56 42 q 71 175 56 130 l 220 596 q 232 651 232 631 q 200 682 232 682 q 143 649 168 682 q 90 541 118 615 l 71 489 l 45 489 l 81 590 q 155 701 109 669 q 253 733 201 733 q 345 648 345 733 q 322 539 345 604 l 174 118 q 168 86 168 101 q 184 46 168 61 q 233 32 201 32 q 301 52 271 32 q 355 126 332 73 z "},"ī":{"ha":419,"x_min":45,"x_max":515,"o":"m 45 0 m 220 596 q 230 647 230 627 q 200 682 230 682 q 143 649 168 682 q 90 541 118 615 l 71 489 l 45 489 l 81 590 q 155 701 109 669 q 253 733 201 733 q 345 646 345 733 q 322 539 345 606 l 174 118 q 163 67 163 88 q 196 32 163 32 q 250 63 224 32 q 304 174 275 95 l 323 225 l 350 225 l 314 123 q 241 14 287 48 q 143 -20 196 -20 q 46 65 46 -20 q 71 175 46 108 l 220 596 m 139 954 l 146 989 l 515 989 l 507 954 l 139 954 z "},"į":{"ha":419,"x_min":-45,"x_max":435,"o":"m 364 1055 q 415 1035 395 1055 q 435 983 435 1014 q 420 931 435 956 q 381 892 406 907 q 330 878 357 878 q 280 898 300 878 q 260 949 260 918 q 275 1001 260 976 q 314 1040 290 1025 q 364 1055 338 1055 m 350 225 l 314 123 q 250 21 290 56 q 163 -18 211 -13 q 90 -72 119 -40 q 61 -142 61 -103 q 75 -181 61 -168 q 114 -195 89 -195 q 166 -182 140 -195 q 208 -151 193 -170 l 225 -167 q 56 -261 146 -261 q -18 -239 8 -261 q -45 -179 -45 -216 q 1 -89 -45 -129 q 116 -18 47 -48 q 46 65 46 -7 q 71 175 46 108 l 220 596 q 230 647 230 627 q 200 682 230 682 q 143 649 168 682 q 90 541 118 615 l 71 489 l 45 489 l 81 590 q 155 701 109 669 q 253 733 201 733 q 345 646 345 733 q 322 539 345 606 l 174 118 q 163 67 163 88 q 196 32 163 32 q 250 63 224 32 q 304 174 275 95 l 323 225 l 350 225 z "},"ĩ":{"ha":419,"x_min":45,"x_max":582,"o":"m 45 0 m 220 596 q 230 647 230 627 q 200 682 230 682 q 143 649 168 682 q 90 541 118 615 l 71 489 l 45 489 l 81 590 q 155 701 109 669 q 253 733 201 733 q 345 646 345 733 q 322 539 345 606 l 174 118 q 163 67 163 88 q 196 32 163 32 q 250 63 224 32 q 304 174 275 95 l 323 225 l 350 225 l 314 123 q 241 14 287 48 q 143 -20 196 -20 q 46 65 46 -20 q 71 175 46 108 l 220 596 m 248 1067 q 313 1053 288 1067 q 370 1010 339 1038 q 414 976 395 987 q 460 965 433 965 q 557 1046 513 965 l 582 1039 q 503 931 551 966 q 401 896 454 896 q 352 904 374 896 q 314 922 330 911 q 279 951 299 933 q 234 986 253 975 q 189 997 215 997 q 92 917 135 997 l 66 924 q 145 1031 97 996 q 248 1067 194 1067 z "},"j":{"ha":383,"x_min":-205,"x_max":431,"o":"m 256 949 q 271 1001 256 976 q 310 1040 286 1025 q 359 1055 334 1055 q 411 1035 391 1055 q 431 983 431 1014 q 429 966 431 977 q 392 904 422 930 q 326 878 362 878 q 276 898 296 878 q 256 949 256 918 m -117 -240 q -32 -200 -64 -234 q 21 -90 -1 -167 l 214 596 q 224 650 224 631 q 193 682 224 682 q 140 650 165 682 q 87 541 115 617 l 69 489 l 43 489 l 77 590 q 248 733 124 733 q 340 648 340 733 q 319 539 340 612 l 212 160 q -58 -248 117 -183 q -140 -261 -98 -261 q -189 -247 -172 -261 q -205 -207 -205 -232 q -194 -167 -205 -187 q -164 -135 -183 -147 q -123 -122 -145 -122 q -90 -134 -102 -122 q -78 -165 -78 -146 q -117 -240 -78 -203 z "},"ȷ":{"ha":383,"x_min":-205,"x_max":340,"o":"m -117 -240 q -32 -200 -64 -234 q 21 -90 -1 -167 l 214 596 q 224 650 224 631 q 193 682 224 682 q 140 650 165 682 q 87 541 115 617 l 69 489 l 43 489 l 77 590 q 248 733 124 733 q 340 648 340 733 q 319 539 340 612 l 212 160 q -58 -248 117 -183 q -140 -261 -98 -261 q -189 -247 -172 -261 q -205 -207 -205 -232 q -194 -167 -205 -187 q -164 -135 -183 -147 q -123 -122 -145 -122 q -90 -134 -102 -122 q -78 -165 -78 -146 q -117 -240 -78 -203 z "},"ĵ":{"ha":383,"x_min":-205,"x_max":546,"o":"m 0 0 m -117 -240 q -32 -200 -64 -234 q 21 -90 -1 -167 l 214 596 q 224 650 224 631 q 193 682 224 682 q 140 650 165 682 q 87 541 115 617 l 69 489 l 43 489 l 77 590 q 248 733 124 733 q 340 648 340 733 q 319 539 340 612 l 212 160 q -58 -248 117 -183 q -140 -261 -98 -261 q -189 -247 -172 -261 q -205 -207 -205 -232 q -194 -167 -205 -187 q -164 -135 -183 -147 q -123 -122 -145 -122 q -90 -134 -102 -122 q -78 -165 -78 -146 q -117 -240 -78 -203 m 307 1000 q 64 856 186 905 l 57 875 q 226 978 147 913 q 356 1114 305 1042 l 380 1114 q 433 971 395 1027 q 546 875 471 915 l 541 856 q 408 913 460 878 q 307 1000 355 947 z "},"k":{"ha":715,"x_min":-12,"x_max":684,"o":"m 600 733 q 665 710 645 733 q 682 652 684 688 q 659 591 679 619 q 602 562 639 562 q 561 578 574 562 q 547 618 547 595 q 560 662 547 638 q 591 704 572 686 l 589 704 q 538 685 564 704 q 504 645 518 669 q 471 580 490 621 q 429 499 448 531 q 377 441 410 468 q 297 405 345 415 q 442 368 385 401 q 498 264 498 334 q 494 228 498 247 l 467 89 q 463 62 463 71 q 494 32 463 32 q 547 64 522 32 q 597 174 571 96 l 614 225 l 640 225 l 607 123 q 441 -20 561 -20 q 377 3 402 -20 q 352 71 352 26 q 357 113 352 91 l 382 232 q 388 283 388 260 q 372 341 388 319 q 320 378 356 364 q 224 397 285 391 l 109 0 l -12 0 l 262 926 q 269 964 269 950 q 247 1005 269 992 q 174 1018 224 1018 l 182 1047 q 432 1104 326 1049 l 229 413 q 334 444 294 418 q 397 503 375 469 q 443 589 418 536 q 477 659 462 633 q 517 701 493 684 q 600 733 559 733 z "},"ķ":{"ha":715,"x_min":-12,"x_max":682,"o":"m 0 0 m 600 733 q 665 710 645 733 q 682 652 684 688 q 659 591 679 619 q 602 562 639 562 q 561 578 574 562 q 547 618 547 595 q 560 662 547 638 q 591 704 572 686 l 589 704 q 538 685 564 704 q 504 645 518 669 q 471 580 490 621 q 429 499 448 531 q 377 441 410 468 q 297 405 345 415 q 442 368 385 401 q 498 264 498 334 q 494 228 498 247 l 467 89 q 463 62 463 71 q 494 32 463 32 q 547 64 522 32 q 597 174 571 96 l 614 225 l 640 225 l 607 123 q 441 -20 561 -20 q 377 3 402 -20 q 352 71 352 26 q 357 113 352 91 l 382 232 q 388 283 388 260 q 372 341 388 319 q 320 378 356 364 q 224 397 285 391 l 109 0 l -12 0 l 262 926 q 269 964 269 950 q 247 1005 269 992 q 174 1018 224 1018 l 182 1047 q 432 1104 326 1049 l 229 413 q 334 444 294 418 q 397 503 375 469 q 443 589 418 536 q 477 659 462 633 q 517 701 493 684 q 600 733 559 733 m 212 -96 q 269 -118 248 -96 q 289 -176 289 -141 q 260 -268 289 -229 q 153 -335 231 -308 l 143 -311 q 212 -276 181 -300 q 245 -222 243 -253 q 218 -238 235 -232 q 184 -244 201 -244 q 139 -229 157 -244 q 122 -186 122 -214 q 133 -144 122 -165 q 164 -109 144 -123 q 212 -96 184 -96 z "},"ĸ":{"ha":775,"x_min":41,"x_max":725,"o":"m 643 733 q 705 713 686 733 q 725 659 725 692 q 716 617 725 640 q 690 578 708 595 q 644 562 672 562 q 603 578 616 562 q 590 618 590 595 q 603 662 590 638 q 635 704 616 686 l 632 704 q 606 699 616 704 q 581 685 595 694 q 546 640 560 667 q 510 565 531 613 q 467 472 487 509 q 412 406 446 436 q 328 363 378 375 q 471 326 416 360 q 526 216 526 292 q 524 186 526 202 l 510 89 q 508 63 508 73 q 515 39 508 46 q 538 32 522 32 q 590 64 566 32 q 640 174 614 96 l 657 225 l 684 225 l 650 123 q 485 -20 604 -20 q 397 75 397 -20 q 400 113 397 94 l 411 191 q 415 237 415 216 q 400 298 415 275 q 352 336 386 322 q 258 354 317 349 l 168 0 l 47 0 l 214 596 q 224 650 224 633 q 195 682 224 682 q 138 649 163 682 q 86 541 113 616 l 68 489 l 41 489 l 77 590 q 244 733 125 733 q 305 713 287 733 q 323 653 323 692 q 304 539 323 612 l 262 372 q 371 407 329 378 q 436 474 413 436 q 484 573 458 512 q 520 652 504 623 q 559 701 536 682 q 643 733 602 733 z "},"l":{"ha":385,"x_min":17,"x_max":432,"o":"m 142 118 q 133 69 133 87 q 165 32 133 32 q 218 64 193 32 q 269 174 242 96 l 288 225 l 314 225 l 279 123 q 113 -20 229 -20 q 17 71 17 -20 q 36 175 17 111 l 262 926 q 269 965 269 951 q 248 1005 269 993 q 175 1018 226 1018 l 184 1047 q 317 1062 258 1048 q 432 1104 376 1076 l 142 118 z "},"ĺ":{"ha":385,"x_min":17,"x_max":616,"o":"m 17 0 m 142 118 q 133 69 133 87 q 165 32 133 32 q 218 64 193 32 q 269 174 242 96 l 288 225 l 314 225 l 279 123 q 113 -20 229 -20 q 17 71 17 -20 q 36 175 17 111 l 262 926 q 269 965 269 951 q 248 1005 269 993 q 175 1018 226 1018 l 184 1047 q 317 1062 258 1048 q 432 1104 376 1076 l 142 118 m 249 1152 q 421 1277 330 1206 q 521 1348 490 1330 q 574 1364 547 1364 q 613 1341 603 1364 q 616 1328 616 1335 q 601 1294 616 1311 q 567 1267 587 1278 q 456 1219 533 1247 q 258 1136 341 1177 l 249 1152 z "},"ľ":{"ha":385,"x_min":17,"x_max":608,"o":"m 17 0 m 142 118 q 133 69 133 87 q 165 32 133 32 q 218 64 193 32 q 269 174 242 96 l 288 225 l 314 225 l 279 123 q 113 -20 229 -20 q 17 71 17 -20 q 36 175 17 111 l 262 926 q 269 965 269 951 q 248 1005 269 993 q 175 1018 226 1018 l 184 1047 q 317 1062 258 1048 q 432 1104 376 1076 l 142 118 m 406 750 q 469 915 448 843 q 490 1018 490 987 q 472 1044 490 1044 l 477 1074 l 492 1073 q 506 1072 496 1072 q 607 1089 556 1072 q 608 1078 608 1086 q 561 938 608 1024 q 425 745 513 851 l 406 750 z "},"ļ":{"ha":385,"x_min":7,"x_max":432,"o":"m 7 0 m 142 118 q 133 69 133 87 q 165 32 133 32 q 218 64 193 32 q 269 174 242 96 l 288 225 l 314 225 l 279 123 q 113 -20 229 -20 q 17 71 17 -20 q 36 175 17 111 l 262 926 q 269 965 269 951 q 248 1005 269 993 q 175 1018 226 1018 l 184 1047 q 317 1062 258 1048 q 432 1104 376 1076 l 142 118 m 97 -96 q 153 -118 133 -96 q 174 -176 174 -141 q 145 -268 174 -229 q 37 -335 116 -308 l 28 -311 q 97 -276 66 -300 q 130 -222 127 -253 q 103 -238 119 -232 q 69 -244 86 -244 q 24 -229 41 -244 q 7 -186 7 -214 q 18 -144 7 -165 q 49 -109 28 -123 q 97 -96 69 -96 z "},"ŀ":{"ha":575,"x_min":17,"x_max":549,"o":"m 17 0 m 142 118 q 133 69 133 87 q 165 32 133 32 q 218 64 193 32 q 269 174 242 96 l 288 225 l 314 225 l 279 123 q 113 -20 229 -20 q 17 71 17 -20 q 36 175 17 111 l 262 926 q 269 965 269 951 q 248 1005 269 993 q 175 1018 226 1018 l 184 1047 q 317 1062 258 1048 q 432 1104 376 1076 l 142 118 m 374 392 q 389 444 374 419 q 428 484 404 469 q 478 498 452 498 q 529 478 509 498 q 549 426 549 457 q 534 375 549 399 q 495 336 519 351 q 444 321 471 321 q 394 341 414 321 q 374 392 374 361 z "},"ł":{"ha":428,"x_min":0,"x_max":485,"o":"m 163 118 q 154 69 154 87 q 186 32 154 32 q 239 64 214 32 q 290 174 263 96 l 309 225 l 335 225 l 300 123 q 134 -20 250 -20 q 38 71 38 -20 q 57 175 38 111 l 139 448 l 0 354 l 5 396 l 153 495 l 283 926 q 290 965 290 951 q 269 1005 290 993 q 196 1018 247 1018 l 205 1047 q 338 1062 279 1048 q 453 1104 397 1076 l 294 564 l 485 690 l 479 648 l 280 516 l 163 118 z "},"m":{"ha":1124,"x_min":41,"x_max":1054,"o":"m 1019 123 q 851 -20 970 -20 q 765 18 789 -20 q 753 66 753 37 q 777 175 753 104 l 908 572 q 922 646 922 618 q 892 689 922 689 q 775 605 838 689 q 646 372 711 521 q 521 28 581 222 l 522 35 l 513 0 l 387 0 l 561 572 q 575 644 575 616 q 536 689 575 689 q 423 610 486 689 q 299 393 360 530 q 191 90 237 256 l 168 0 l 47 0 l 214 596 q 224 647 224 631 q 195 682 224 682 q 138 649 163 682 q 86 541 113 616 l 68 489 l 41 489 l 77 590 q 244 733 125 733 q 325 650 325 733 q 304 539 325 608 l 260 364 q 367 581 316 500 q 470 697 418 662 q 582 733 522 733 q 673 635 673 733 q 654 524 673 591 l 605 340 q 715 570 664 485 q 819 694 766 655 q 937 733 872 733 q 1012 705 989 733 q 1035 629 1035 677 q 1015 524 1035 583 l 880 118 q 870 65 870 85 q 903 32 870 32 q 957 63 931 32 q 1010 174 983 95 l 1028 225 l 1054 225 l 1019 123 z "},"n":{"ha":806,"x_min":43,"x_max":736,"o":"m 701 123 q 533 -20 652 -20 q 446 21 471 -20 q 435 66 435 39 q 458 175 435 106 l 590 572 q 604 641 604 614 q 559 689 604 689 q 439 611 506 689 q 307 398 372 534 q 194 97 241 262 l 170 0 l 49 0 l 215 596 q 225 648 225 629 q 195 682 225 682 q 157 669 174 682 q 124 625 140 656 q 87 541 107 595 l 69 489 l 43 489 l 78 590 q 243 733 127 733 q 325 651 325 733 q 306 539 325 614 l 258 349 q 373 574 317 490 q 485 696 428 659 q 606 733 541 733 q 718 629 718 733 q 697 524 718 587 l 562 118 q 551 66 551 85 q 585 32 551 32 q 639 63 613 32 q 692 174 665 95 l 710 225 l 736 225 l 701 123 z "},"ń":{"ha":806,"x_min":43,"x_max":736,"o":"m 43 0 m 701 123 q 533 -20 652 -20 q 446 21 471 -20 q 435 66 435 39 q 458 175 435 106 l 590 572 q 604 641 604 614 q 559 689 604 689 q 439 611 506 689 q 307 398 372 534 q 194 97 241 262 l 170 0 l 49 0 l 215 596 q 225 648 225 629 q 195 682 225 682 q 157 669 174 682 q 124 625 140 656 q 87 541 107 595 l 69 489 l 43 489 l 78 590 q 243 733 127 733 q 325 651 325 733 q 306 539 325 614 l 258 349 q 373 574 317 490 q 485 696 428 659 q 606 733 541 733 q 718 629 718 733 q 697 524 718 587 l 562 118 q 551 66 551 85 q 585 32 551 32 q 639 63 613 32 q 692 174 665 95 l 710 225 l 736 225 l 701 123 m 425 844 q 553 1008 483 912 q 633 1108 608 1083 q 690 1139 661 1139 q 721 1129 707 1139 q 732 1102 732 1118 q 701 1043 732 1074 q 607 966 674 1015 q 439 832 511 896 l 425 844 z "},"ŉ":{"ha":806,"x_min":-39,"x_max":736,"o":"m 0 0 m 701 123 q 533 -20 652 -20 q 446 21 471 -20 q 435 66 435 39 q 458 175 435 106 l 590 572 q 604 641 604 614 q 559 689 604 689 q 439 611 506 689 q 307 398 372 534 q 194 97 241 262 l 170 0 l 49 0 l 215 596 q 225 648 225 629 q 195 682 225 682 q 157 669 174 682 q 124 625 140 656 q 87 541 107 595 l 69 489 l 43 489 l 78 590 q 243 733 127 733 q 325 651 325 733 q 306 539 325 614 l 258 349 q 373 574 317 490 q 485 696 428 659 q 606 733 541 733 q 718 629 718 733 q 697 524 718 587 l 562 118 q 551 66 551 85 q 585 32 551 32 q 639 63 613 32 q 692 174 665 95 l 710 225 l 736 225 l 701 123 m 172 975 q 148 878 172 927 q 77 786 123 829 q -32 713 31 743 l -39 732 q 66 819 27 772 q 109 914 104 867 q 36 879 68 879 q -2 892 12 879 q -16 928 -16 905 q 2 987 -16 957 q 51 1037 21 1017 q 111 1057 81 1057 q 157 1033 142 1057 q 172 975 172 1009 z "},"ň":{"ha":806,"x_min":43,"x_max":812,"o":"m 43 0 m 701 123 q 533 -20 652 -20 q 446 21 471 -20 q 435 66 435 39 q 458 175 435 106 l 590 572 q 604 641 604 614 q 559 689 604 689 q 439 611 506 689 q 307 398 372 534 q 194 97 241 262 l 170 0 l 49 0 l 215 596 q 225 648 225 629 q 195 682 225 682 q 157 669 174 682 q 124 625 140 656 q 87 541 107 595 l 69 489 l 43 489 l 78 590 q 243 733 127 733 q 325 651 325 733 q 306 539 325 614 l 258 349 q 373 574 317 490 q 485 696 428 659 q 606 733 541 733 q 718 629 718 733 q 697 524 718 587 l 562 118 q 551 66 551 85 q 585 32 551 32 q 639 63 613 32 q 692 174 665 95 l 710 225 l 736 225 l 701 123 m 562 970 q 805 1114 683 1064 l 812 1095 q 643 992 722 1056 q 513 856 564 928 l 488 856 q 435 999 473 943 q 323 1095 397 1055 l 328 1114 q 461 1057 408 1091 q 562 970 513 1023 z "},"ņ":{"ha":806,"x_min":43,"x_max":736,"o":"m 43 0 m 701 123 q 533 -20 652 -20 q 446 21 471 -20 q 435 66 435 39 q 458 175 435 106 l 590 572 q 604 641 604 614 q 559 689 604 689 q 439 611 506 689 q 307 398 372 534 q 194 97 241 262 l 170 0 l 49 0 l 215 596 q 225 648 225 629 q 195 682 225 682 q 157 669 174 682 q 124 625 140 656 q 87 541 107 595 l 69 489 l 43 489 l 78 590 q 243 733 127 733 q 325 651 325 733 q 306 539 325 614 l 258 349 q 373 574 317 490 q 485 696 428 659 q 606 733 541 733 q 718 629 718 733 q 697 524 718 587 l 562 118 q 551 66 551 85 q 585 32 551 32 q 639 63 613 32 q 692 174 665 95 l 710 225 l 736 225 l 701 123 m 269 -96 q 326 -118 305 -96 q 346 -176 346 -141 q 317 -268 346 -229 q 210 -335 288 -308 l 200 -311 q 269 -276 238 -300 q 302 -222 300 -253 q 275 -238 292 -232 q 241 -244 258 -244 q 196 -229 214 -244 q 179 -186 179 -214 q 190 -144 179 -165 q 221 -109 201 -123 q 269 -96 241 -96 z "},"ŋ":{"ha":762,"x_min":41,"x_max":715,"o":"m 604 733 q 689 708 663 733 q 715 633 715 682 q 696 524 715 591 l 593 160 q 322 -248 496 -183 q 240 -261 282 -261 q 192 -247 209 -261 q 174 -208 174 -233 q 178 -186 174 -199 q 208 -142 186 -161 q 257 -122 230 -122 q 290 -134 278 -122 q 302 -165 302 -146 q 300 -182 302 -170 q 264 -240 290 -217 q 349 -201 317 -234 q 401 -90 380 -168 l 589 572 q 602 644 602 621 q 558 689 602 689 q 437 611 505 689 q 305 398 370 534 q 193 97 240 262 l 168 0 l 47 0 l 214 596 q 223 650 223 631 q 195 682 223 682 q 138 649 163 682 q 86 541 113 616 l 68 489 l 41 489 l 77 590 q 244 733 125 733 q 306 713 287 733 q 324 654 324 693 q 304 539 324 616 l 246 308 q 364 558 308 465 q 478 692 420 651 q 604 733 536 733 z "},"ñ":{"ha":806,"x_min":43,"x_max":781,"o":"m 43 0 m 701 123 q 533 -20 652 -20 q 446 21 471 -20 q 435 66 435 39 q 458 175 435 106 l 590 572 q 604 641 604 614 q 559 689 604 689 q 439 611 506 689 q 307 398 372 534 q 194 97 241 262 l 170 0 l 49 0 l 215 596 q 225 648 225 629 q 195 682 225 682 q 157 669 174 682 q 124 625 140 656 q 87 541 107 595 l 69 489 l 43 489 l 78 590 q 243 733 127 733 q 325 651 325 733 q 306 539 325 614 l 258 349 q 373 574 317 490 q 485 696 428 659 q 606 733 541 733 q 718 629 718 733 q 697 524 718 587 l 562 118 q 551 66 551 85 q 585 32 551 32 q 639 63 613 32 q 692 174 665 95 l 710 225 l 736 225 l 701 123 m 446 1067 q 512 1053 486 1067 q 568 1010 538 1038 q 613 976 594 987 q 659 965 632 965 q 755 1046 711 965 l 781 1039 q 702 931 750 966 q 600 896 653 896 q 550 904 572 896 q 513 922 528 911 q 477 951 498 933 q 433 986 452 975 q 387 997 414 997 q 290 917 334 997 l 265 924 q 344 1031 296 996 q 446 1067 393 1067 z "},"o":{"ha":677,"x_min":29,"x_max":621,"o":"m 29 199 q 78 434 29 308 q 218 646 126 559 q 431 733 309 733 q 570 678 519 733 q 621 515 621 623 q 572 280 621 406 q 432 67 524 155 q 220 -20 341 -20 q 80 36 131 -20 q 29 199 29 91 m 422 705 q 288 615 351 705 q 186 389 224 525 q 149 129 149 254 q 228 8 149 8 q 362 98 299 8 q 463 324 425 189 q 501 585 501 459 q 482 676 501 647 q 422 705 463 705 z "},"ó":{"ha":677,"x_min":29,"x_max":708,"o":"m 29 0 m 29 199 q 78 434 29 308 q 218 646 126 559 q 431 733 309 733 q 570 678 519 733 q 621 515 621 623 q 572 280 621 406 q 432 67 524 155 q 220 -20 341 -20 q 80 36 131 -20 q 29 199 29 91 m 422 705 q 288 615 351 705 q 186 389 224 525 q 149 129 149 254 q 228 8 149 8 q 362 98 299 8 q 463 324 425 189 q 501 585 501 459 q 482 676 501 647 q 422 705 463 705 m 401 844 q 529 1008 459 912 q 610 1108 585 1083 q 667 1139 637 1139 q 697 1129 684 1139 q 708 1102 708 1118 q 677 1043 708 1074 q 583 966 650 1015 q 416 832 487 896 l 401 844 z "},"ŏ":{"ha":677,"x_min":29,"x_max":804,"o":"m 29 0 m 29 199 q 78 434 29 308 q 218 646 126 559 q 431 733 309 733 q 570 678 519 733 q 621 515 621 623 q 572 280 621 406 q 432 67 524 155 q 220 -20 341 -20 q 80 36 131 -20 q 29 199 29 91 m 422 705 q 288 615 351 705 q 186 389 224 525 q 149 129 149 254 q 228 8 149 8 q 362 98 299 8 q 463 324 425 189 q 501 585 501 459 q 482 676 501 647 q 422 705 463 705 m 503 972 q 652 1005 572 972 q 791 1095 732 1038 l 804 1079 q 714 985 770 1031 q 594 909 657 939 q 479 879 531 879 q 363 935 406 879 q 306 1082 319 991 l 328 1089 q 373 1020 350 1045 q 428 983 397 994 q 503 972 458 972 z "},"ô":{"ha":677,"x_min":29,"x_max":713,"o":"m 29 0 m 29 199 q 78 434 29 308 q 218 646 126 559 q 431 733 309 733 q 570 678 519 733 q 621 515 621 623 q 572 280 621 406 q 432 67 524 155 q 220 -20 341 -20 q 80 36 131 -20 q 29 199 29 91 m 422 705 q 288 615 351 705 q 186 389 224 525 q 149 129 149 254 q 228 8 149 8 q 362 98 299 8 q 463 324 425 189 q 501 585 501 459 q 482 676 501 647 q 422 705 463 705 m 474 1000 q 231 856 353 905 l 224 875 q 393 978 314 913 q 523 1114 472 1042 l 547 1114 q 600 971 562 1027 q 713 875 638 915 l 707 856 q 574 913 627 878 q 474 1000 522 947 z "},"ö":{"ha":677,"x_min":29,"x_max":741,"o":"m 29 0 m 29 199 q 78 434 29 308 q 218 646 126 559 q 431 733 309 733 q 570 678 519 733 q 621 515 621 623 q 572 280 621 406 q 432 67 524 155 q 220 -20 341 -20 q 80 36 131 -20 q 29 199 29 91 m 422 705 q 288 615 351 705 q 186 389 224 525 q 149 129 149 254 q 228 8 149 8 q 362 98 299 8 q 463 324 425 189 q 501 585 501 459 q 482 676 501 647 q 422 705 463 705 m 283 942 q 296 984 283 963 q 331 1019 309 1005 q 377 1032 353 1032 q 426 1012 406 1032 q 446 962 446 991 q 433 919 446 940 q 399 884 420 897 q 353 871 378 871 q 303 891 322 871 q 283 942 283 911 m 578 942 q 591 984 578 963 q 626 1019 604 1005 q 671 1032 647 1032 q 721 1012 701 1032 q 741 962 741 991 q 728 919 741 940 q 693 884 715 897 q 648 871 672 871 q 598 891 617 871 q 578 942 578 911 z "},"ò":{"ha":677,"x_min":29,"x_max":621,"o":"m 29 0 m 29 199 q 78 434 29 308 q 218 646 126 559 q 431 733 309 733 q 570 678 519 733 q 621 515 621 623 q 572 280 621 406 q 432 67 524 155 q 220 -20 341 -20 q 80 36 131 -20 q 29 199 29 91 m 422 705 q 288 615 351 705 q 186 389 224 525 q 149 129 149 254 q 228 8 149 8 q 362 98 299 8 q 463 324 425 189 q 501 585 501 459 q 482 676 501 647 q 422 705 463 705 m 484 832 q 356 996 432 905 q 285 1089 304 1057 q 271 1133 271 1112 q 293 1173 271 1161 q 315 1177 303 1177 q 375 1133 351 1177 q 420 1029 391 1106 q 502 840 467 913 l 484 832 z "},"ő":{"ha":677,"x_min":29,"x_max":806,"o":"m 29 0 m 29 199 q 78 434 29 308 q 218 646 126 559 q 431 733 309 733 q 570 678 519 733 q 621 515 621 623 q 572 280 621 406 q 432 67 524 155 q 220 -20 341 -20 q 80 36 131 -20 q 29 199 29 91 m 422 705 q 288 615 351 705 q 186 389 224 525 q 149 129 149 254 q 228 8 149 8 q 362 98 299 8 q 463 324 425 189 q 501 585 501 459 q 482 676 501 647 q 422 705 463 705 m 306 844 q 401 1013 351 914 q 457 1108 439 1084 q 510 1139 481 1139 q 541 1129 527 1139 q 559 1090 559 1114 q 541 1043 559 1068 q 461 966 521 1018 q 321 832 373 887 l 306 844 m 553 844 q 647 1010 600 918 q 705 1108 684 1081 q 758 1139 728 1139 q 788 1129 775 1139 q 806 1090 806 1114 q 788 1043 806 1067 q 709 966 768 1018 q 568 832 629 896 l 553 844 z "},"ō":{"ha":677,"x_min":29,"x_max":731,"o":"m 29 0 m 29 199 q 78 434 29 308 q 218 646 126 559 q 431 733 309 733 q 570 678 519 733 q 621 515 621 623 q 572 280 621 406 q 432 67 524 155 q 220 -20 341 -20 q 80 36 131 -20 q 29 199 29 91 m 422 705 q 288 615 351 705 q 186 389 224 525 q 149 129 149 254 q 228 8 149 8 q 362 98 299 8 q 463 324 425 189 q 501 585 501 459 q 482 676 501 647 q 422 705 463 705 m 290 954 l 298 989 l 731 989 l 722 954 l 290 954 z "},"ø":{"ha":677,"x_min":-50,"x_max":708,"o":"m 589 652 q 621 515 621 600 q 572 280 621 406 q 432 67 524 155 q 220 -20 341 -20 q 81 34 131 -20 l -31 -102 l -50 -83 l 64 56 q 29 199 29 111 q 78 434 29 308 q 218 646 126 559 q 431 733 309 733 q 574 673 524 733 l 690 814 l 708 798 l 589 652 m 422 705 q 290 618 353 705 q 190 399 228 531 q 149 144 151 268 l 501 600 q 479 680 498 654 q 422 705 460 705 m 228 8 q 358 92 297 8 q 457 305 419 176 q 500 557 496 433 l 150 100 q 228 8 158 8 z "},"õ":{"ha":677,"x_min":29,"x_max":757,"o":"m 29 0 m 29 199 q 78 434 29 308 q 218 646 126 559 q 431 733 309 733 q 570 678 519 733 q 621 515 621 623 q 572 280 621 406 q 432 67 524 155 q 220 -20 341 -20 q 80 36 131 -20 q 29 199 29 91 m 422 705 q 288 615 351 705 q 186 389 224 525 q 149 129 149 254 q 228 8 149 8 q 362 98 299 8 q 463 324 425 189 q 501 585 501 459 q 482 676 501 647 q 422 705 463 705 m 422 1067 q 488 1053 463 1067 q 545 1010 514 1038 q 589 976 570 987 q 635 965 608 965 q 732 1046 688 965 l 757 1039 q 678 931 726 966 q 576 896 629 896 q 527 904 549 896 q 489 922 505 911 q 454 951 474 933 q 409 986 428 975 q 363 997 390 997 q 267 917 310 997 l 241 924 q 320 1031 272 996 q 422 1067 369 1067 z "},"œ":{"ha":999,"x_min":21,"x_max":979,"o":"m 979 628 q 853 439 979 519 q 562 306 728 359 q 549 172 549 238 q 644 39 549 39 q 852 178 758 39 l 880 167 q 809 76 852 118 q 712 7 766 33 q 602 -20 658 -20 q 472 26 520 -20 q 418 158 423 72 q 191 -20 331 -20 q 67 36 113 -20 q 21 199 21 92 q 81 425 21 302 q 246 634 142 549 q 475 720 350 720 q 567 693 536 720 q 597 622 597 667 q 596 602 597 615 q 848 733 714 733 q 943 706 907 733 q 979 628 979 679 m 818 707 q 728 654 777 707 q 635 516 678 602 q 568 332 591 429 q 760 422 705 380 q 840 520 811 463 q 868 644 868 577 q 855 690 868 674 q 818 707 842 707 m 422 231 q 464 386 432 304 q 546 538 496 468 q 563 613 563 581 q 544 667 563 647 q 485 688 526 688 q 314 601 393 688 q 188 382 235 513 q 140 129 140 252 q 156 42 140 68 q 205 16 172 16 q 325 74 267 16 q 422 231 382 132 z "},"p":{"ha":765,"x_min":-96,"x_max":713,"o":"m 568 733 q 674 684 635 733 q 713 538 713 634 q 663 294 713 425 q 520 72 613 163 q 306 -20 427 -20 q 237 1 268 -20 q 193 60 207 22 l 140 -122 q 135 -155 135 -142 q 165 -207 135 -192 q 253 -222 196 -222 l 244 -252 l 209 -250 q 58 -245 115 -245 q -70 -250 7 -245 q -96 -252 -90 -252 l -87 -222 q -34 -215 -54 -222 q -1 -188 -14 -207 q 21 -136 12 -170 l 281 789 q 182 625 239 697 q 46 478 126 553 l 31 496 q 140 610 96 560 q 227 731 183 659 q 314 906 271 803 l 319 926 q 446 946 395 928 l 300 438 q 431 663 366 593 q 568 733 496 733 m 304 12 q 445 104 378 12 q 552 329 511 197 q 593 568 593 461 q 576 659 593 628 q 528 689 559 689 q 436 626 488 689 q 332 455 385 562 q 239 222 279 349 l 203 96 q 245 32 220 51 q 304 12 270 12 z "},"þ":{"ha":765,"x_min":-96,"x_max":713,"o":"m 568 733 q 674 684 635 733 q 713 538 713 634 q 663 294 713 425 q 520 72 613 163 q 306 -20 427 -20 q 237 1 268 -20 q 193 60 207 22 l 140 -122 q 135 -155 135 -142 q 165 -207 135 -192 q 253 -222 196 -222 l 244 -252 l 209 -250 q 58 -245 115 -245 q -70 -250 7 -245 q -96 -252 -90 -252 l -87 -222 q -34 -215 -54 -222 q -1 -188 -14 -207 q 21 -136 12 -170 l 283 790 q 184 626 241 698 q 46 478 127 554 l 31 496 q 140 610 97 561 q 228 731 184 659 q 315 907 272 804 l 366 1084 q 492 1104 442 1088 l 316 492 q 438 677 377 621 q 568 733 498 733 m 304 12 q 445 104 378 12 q 552 329 511 197 q 593 568 593 461 q 576 659 593 628 q 528 689 559 689 q 444 642 492 689 q 351 515 397 595 q 273 342 305 435 l 203 96 q 245 31 220 50 q 304 12 269 12 z "},"q":{"ha":704,"x_min":25,"x_max":689,"o":"m 453 -122 q 448 -158 448 -140 q 538 -222 448 -222 l 529 -252 l 494 -250 q 343 -245 400 -245 q 215 -250 292 -245 q 189 -252 195 -252 l 197 -222 q 267 -215 240 -222 q 309 -188 293 -207 q 334 -136 324 -170 l 429 229 q 303 38 367 96 q 170 -20 240 -20 q 64 30 102 -20 q 25 176 25 80 q 75 419 25 288 q 218 642 125 551 q 432 733 311 733 q 505 709 473 733 q 549 641 536 684 q 667 736 623 701 l 689 726 q 660 646 671 691 l 453 -122 m 210 25 q 298 77 248 25 q 396 215 349 129 q 474 401 444 302 l 532 625 q 491 684 515 666 q 433 701 467 701 q 293 609 359 701 q 185 385 226 517 q 144 146 144 252 q 162 55 144 85 q 210 25 179 25 z "},"r":{"ha":591,"x_min":41,"x_max":631,"o":"m 549 733 q 609 711 587 733 q 631 654 631 689 q 617 604 631 627 q 581 568 604 581 q 533 554 559 554 q 493 567 509 554 q 478 604 478 581 q 541 693 478 667 q 525 699 535 699 q 419 625 475 699 q 306 421 363 552 q 197 116 249 290 l 168 0 l 47 0 l 214 596 q 224 650 224 631 q 195 682 224 682 q 138 649 163 682 q 86 541 113 616 l 68 489 l 41 489 l 77 590 q 244 733 125 733 q 324 652 324 733 q 319 606 324 630 q 304 539 315 581 l 260 363 q 355 580 310 499 q 447 697 401 661 q 549 733 494 733 z "},"ŕ":{"ha":591,"x_min":41,"x_max":659,"o":"m 41 0 m 549 733 q 609 711 587 733 q 631 654 631 689 q 617 604 631 627 q 581 568 604 581 q 533 554 559 554 q 493 567 509 554 q 478 604 478 581 q 541 693 478 667 q 525 699 535 699 q 419 625 475 699 q 306 421 363 552 q 197 116 249 290 l 168 0 l 47 0 l 214 596 q 224 650 224 631 q 195 682 224 682 q 138 649 163 682 q 86 541 113 616 l 68 489 l 41 489 l 77 590 q 244 733 125 733 q 324 652 324 733 q 319 606 324 630 q 304 539 315 581 l 260 363 q 355 580 310 499 q 447 697 401 661 q 549 733 494 733 m 353 844 q 480 1008 410 912 q 561 1108 536 1083 q 618 1139 588 1139 q 648 1129 635 1139 q 659 1102 659 1118 q 628 1043 659 1074 q 534 966 602 1015 q 367 832 438 896 l 353 844 z "},"ř":{"ha":591,"x_min":41,"x_max":739,"o":"m 41 0 m 549 733 q 609 711 587 733 q 631 654 631 689 q 617 604 631 627 q 581 568 604 581 q 533 554 559 554 q 493 567 509 554 q 478 604 478 581 q 541 693 478 667 q 525 699 535 699 q 419 625 475 699 q 306 421 363 552 q 197 116 249 290 l 168 0 l 47 0 l 214 596 q 224 650 224 631 q 195 682 224 682 q 138 649 163 682 q 86 541 113 616 l 68 489 l 41 489 l 77 590 q 244 733 125 733 q 324 652 324 733 q 319 606 324 630 q 304 539 315 581 l 260 363 q 355 580 310 499 q 447 697 401 661 q 549 733 494 733 m 489 970 q 732 1114 610 1064 l 739 1095 q 570 992 649 1056 q 441 856 491 928 l 416 856 q 363 999 401 943 q 250 1095 325 1055 l 256 1114 q 388 1057 336 1091 q 489 970 441 1023 z "},"ŗ":{"ha":591,"x_min":-7,"x_max":631,"o":"m 0 0 m 549 733 q 609 711 587 733 q 631 654 631 689 q 617 604 631 627 q 581 568 604 581 q 533 554 559 554 q 493 567 509 554 q 478 604 478 581 q 541 693 478 667 q 525 699 535 699 q 419 625 475 699 q 306 421 363 552 q 197 116 249 290 l 168 0 l 47 0 l 214 596 q 224 650 224 631 q 195 682 224 682 q 138 649 163 682 q 86 541 113 616 l 68 489 l 41 489 l 77 590 q 244 733 125 733 q 324 652 324 733 q 319 606 324 630 q 304 539 315 581 l 260 363 q 355 580 310 499 q 447 697 401 661 q 549 733 494 733 m 83 -96 q 140 -118 119 -96 q 160 -176 160 -141 q 131 -268 160 -229 q 24 -335 102 -308 l 14 -311 q 83 -276 52 -300 q 117 -222 114 -253 q 89 -238 106 -232 q 56 -244 73 -244 q 11 -229 28 -244 q -7 -186 -7 -214 q 4 -144 -7 -165 q 35 -109 15 -123 q 83 -96 56 -96 z "},"s":{"ha":529,"x_min":-24,"x_max":509,"o":"m 82 21 q 146 8 108 8 q 248 46 209 8 q 286 151 286 83 q 270 238 286 195 q 214 335 253 281 l 205 347 q 162 409 178 384 q 135 467 146 435 q 123 536 123 500 q 152 639 123 594 q 231 708 181 684 q 339 733 280 733 q 460 706 411 733 q 509 612 509 680 q 502 581 509 597 q 480 552 495 564 q 444 541 466 541 q 405 557 420 541 q 389 599 389 573 q 428 692 389 644 q 358 708 400 708 q 271 673 305 708 q 237 576 237 637 q 244 531 237 551 q 261 492 250 511 q 296 439 272 473 q 321 403 319 405 q 382 293 362 338 q 403 199 403 248 q 370 86 403 136 q 283 8 338 36 q 164 -20 229 -20 q 30 14 84 -20 q -24 118 -24 48 q -11 161 -24 142 q 31 180 3 180 q 77 155 62 180 q 92 93 92 130 q 82 21 92 68 z "},"ś":{"ha":529,"x_min":-24,"x_max":621,"o":"m 0 0 m 82 21 q 146 8 108 8 q 248 46 209 8 q 286 151 286 83 q 270 238 286 195 q 214 335 253 281 l 205 347 q 162 409 178 384 q 135 467 146 435 q 123 536 123 500 q 152 639 123 594 q 231 708 181 684 q 339 733 280 733 q 460 706 411 733 q 509 612 509 680 q 502 581 509 597 q 480 552 495 564 q 444 541 466 541 q 405 557 420 541 q 389 599 389 573 q 428 692 389 644 q 358 708 400 708 q 271 673 305 708 q 237 576 237 637 q 244 531 237 551 q 261 492 250 511 q 296 439 272 473 q 321 403 319 405 q 382 293 362 338 q 403 199 403 248 q 370 86 403 136 q 283 8 338 36 q 164 -20 229 -20 q 30 14 84 -20 q -24 118 -24 48 q -11 161 -24 142 q 31 180 3 180 q 77 155 62 180 q 92 93 92 130 q 82 21 92 68 m 314 844 q 441 1008 372 912 q 522 1108 497 1083 q 579 1139 549 1139 q 610 1129 596 1139 q 621 1102 621 1118 q 589 1043 621 1074 q 496 966 563 1015 q 328 832 399 896 l 314 844 z "},"š":{"ha":529,"x_min":-24,"x_max":701,"o":"m 0 0 m 82 21 q 146 8 108 8 q 248 46 209 8 q 286 151 286 83 q 270 238 286 195 q 214 335 253 281 l 205 347 q 162 409 178 384 q 135 467 146 435 q 123 536 123 500 q 152 639 123 594 q 231 708 181 684 q 339 733 280 733 q 460 706 411 733 q 509 612 509 680 q 502 581 509 597 q 480 552 495 564 q 444 541 466 541 q 405 557 420 541 q 389 599 389 573 q 428 692 389 644 q 358 708 400 708 q 271 673 305 708 q 237 576 237 637 q 244 531 237 551 q 261 492 250 511 q 296 439 272 473 q 321 403 319 405 q 382 293 362 338 q 403 199 403 248 q 370 86 403 136 q 283 8 338 36 q 164 -20 229 -20 q 30 14 84 -20 q -24 118 -24 48 q -11 161 -24 142 q 31 180 3 180 q 77 155 62 180 q 92 93 92 130 q 82 21 92 68 m 450 970 q 694 1114 572 1064 l 701 1095 q 531 992 610 1056 q 402 856 452 928 l 377 856 q 324 999 362 943 q 212 1095 286 1055 l 217 1114 q 350 1057 297 1091 q 450 970 402 1023 z "},"ş":{"ha":529,"x_min":-37,"x_max":509,"o":"m 339 733 q 460 706 411 733 q 509 612 509 680 q 502 581 509 597 q 480 552 495 564 q 444 541 466 541 q 405 557 420 541 q 389 599 389 573 q 428 692 389 644 q 358 708 400 708 q 271 673 305 708 q 237 576 237 637 q 244 531 237 551 q 261 492 250 511 q 296 439 272 473 q 321 403 319 405 q 382 293 362 338 q 403 199 403 248 q 371 86 403 136 q 284 9 338 37 q 166 -20 230 -19 l 129 -100 q 186 -90 155 -90 q 230 -105 214 -90 q 245 -146 245 -120 q 219 -210 245 -184 q 153 -249 193 -236 q 75 -261 113 -261 q 8 -252 39 -261 q -37 -231 -22 -243 l -27 -210 q 10 -223 -7 -218 q 56 -228 27 -228 q 98 -221 75 -228 q 139 -198 121 -214 q 157 -157 157 -182 q 117 -123 157 -123 q 75 -134 95 -123 l 130 -18 q 19 23 62 -11 q -24 118 -24 56 q -11 161 -24 142 q 31 180 3 180 q 77 155 62 180 q 92 93 92 130 q 82 21 92 68 q 146 8 108 8 q 248 46 209 8 q 286 151 286 83 q 270 238 286 195 q 214 335 253 281 l 205 347 q 162 409 178 384 q 135 467 146 435 q 123 536 123 500 q 152 639 123 594 q 231 708 181 684 q 339 733 280 733 z "},"ŝ":{"ha":529,"x_min":-24,"x_max":625,"o":"m 0 0 m 82 21 q 146 8 108 8 q 248 46 209 8 q 286 151 286 83 q 270 238 286 195 q 214 335 253 281 l 205 347 q 162 409 178 384 q 135 467 146 435 q 123 536 123 500 q 152 639 123 594 q 231 708 181 684 q 339 733 280 733 q 460 706 411 733 q 509 612 509 680 q 502 581 509 597 q 480 552 495 564 q 444 541 466 541 q 405 557 420 541 q 389 599 389 573 q 428 692 389 644 q 358 708 400 708 q 271 673 305 708 q 237 576 237 637 q 244 531 237 551 q 261 492 250 511 q 296 439 272 473 q 321 403 319 405 q 382 293 362 338 q 403 199 403 248 q 370 86 403 136 q 283 8 338 36 q 164 -20 229 -20 q 30 14 84 -20 q -24 118 -24 48 q -11 161 -24 142 q 31 180 3 180 q 77 155 62 180 q 92 93 92 130 q 82 21 92 68 m 387 1000 q 143 856 265 905 l 136 875 q 306 978 227 913 q 435 1114 385 1042 l 460 1114 q 513 971 475 1027 q 625 875 551 915 l 620 856 q 487 913 539 878 q 387 1000 435 947 z "},"ș":{"ha":529,"x_min":-24,"x_max":509,"o":"m 0 0 m 82 21 q 146 8 108 8 q 248 46 209 8 q 286 151 286 83 q 270 238 286 195 q 214 335 253 281 l 205 347 q 162 409 178 384 q 135 467 146 435 q 123 536 123 500 q 152 639 123 594 q 231 708 181 684 q 339 733 280 733 q 460 706 411 733 q 509 612 509 680 q 502 581 509 597 q 480 552 495 564 q 444 541 466 541 q 405 557 420 541 q 389 599 389 573 q 428 692 389 644 q 358 708 400 708 q 271 673 305 708 q 237 576 237 637 q 244 531 237 551 q 261 492 250 511 q 296 439 272 473 q 321 403 319 405 q 382 293 362 338 q 403 199 403 248 q 370 86 403 136 q 283 8 338 36 q 164 -20 229 -20 q 30 14 84 -20 q -24 118 -24 48 q -11 161 -24 142 q 31 180 3 180 q 77 155 62 180 q 92 93 92 130 q 82 21 92 68 m 133 -96 q 189 -118 169 -96 q 210 -176 210 -141 q 181 -268 210 -229 q 73 -335 152 -308 l 64 -311 q 133 -276 102 -300 q 166 -222 163 -253 q 139 -238 155 -232 q 105 -244 122 -244 q 60 -229 77 -244 q 43 -186 43 -214 q 54 -144 43 -165 q 85 -109 64 -123 q 133 -96 105 -96 z "},"ß":{"ha":760,"x_min":-68,"x_max":718,"o":"m 509 1065 q 439 1041 469 1065 q 385 962 409 1016 q 336 818 360 909 l 57 -241 q -68 -261 -16 -243 l 184 704 q 261 919 220 838 q 366 1044 302 1001 q 529 1086 431 1086 q 637 1067 595 1086 q 699 1016 680 1048 q 718 946 718 985 q 697 865 718 904 q 647 794 677 826 q 568 718 616 763 l 534 688 q 488 583 488 645 q 505 509 488 542 q 557 432 522 477 l 579 403 q 640 301 618 350 q 661 201 661 253 q 628 86 661 136 q 538 8 595 36 q 412 -20 481 -20 q 326 -6 366 -20 q 260 34 286 7 q 235 100 235 60 q 250 149 235 130 q 289 167 265 167 q 335 137 322 167 q 349 72 349 106 q 340 20 349 52 q 399 8 369 8 q 474 25 441 8 q 526 75 507 43 q 545 153 545 108 q 472 335 545 243 q 457 353 463 347 q 418 404 433 382 q 393 453 404 425 q 382 513 382 481 q 393 568 382 544 q 421 610 404 592 q 469 654 439 629 q 522 704 503 684 q 611 918 611 798 q 583 1028 611 991 q 509 1065 555 1065 z "},"t":{"ha":467,"x_min":50,"x_max":521,"o":"m 168 118 q 163 87 163 102 q 180 45 163 59 q 224 32 197 32 q 289 62 258 32 q 347 171 319 92 l 367 225 l 393 225 l 364 138 q 288 16 335 52 q 174 -20 241 -20 q 80 11 111 -20 q 50 96 50 41 q 62 175 50 129 l 210 686 l 85 686 l 92 714 l 218 714 l 278 925 q 403 945 355 927 l 337 714 l 521 714 l 517 686 l 330 686 l 168 118 z "},"ŧ":{"ha":473,"x_min":55,"x_max":526,"o":"m 306 585 l 493 585 l 489 557 l 298 557 l 174 118 q 169 87 169 102 q 185 45 169 59 q 229 32 202 32 q 294 62 264 32 q 353 171 324 92 l 372 225 l 399 225 l 370 138 q 294 16 340 52 q 179 -20 247 -20 q 86 11 117 -20 q 55 96 55 41 q 68 175 55 129 l 178 557 l 57 557 l 64 585 l 186 585 l 215 686 l 90 686 l 97 714 l 223 714 l 283 925 q 408 945 360 927 l 342 714 l 526 714 l 522 686 l 335 686 l 306 585 z "},"ť":{"ha":467,"x_min":50,"x_max":725,"o":"m 50 0 m 168 118 q 163 87 163 102 q 180 45 163 59 q 224 32 197 32 q 289 62 258 32 q 347 171 319 92 l 367 225 l 393 225 l 364 138 q 288 16 335 52 q 174 -20 241 -20 q 80 11 111 -20 q 50 96 50 41 q 62 175 50 129 l 210 686 l 85 686 l 92 714 l 218 714 l 278 925 q 403 945 355 927 l 337 714 l 521 714 l 517 686 l 330 686 l 168 118 m 522 750 q 586 915 565 843 q 607 1018 607 987 q 589 1044 607 1044 l 593 1074 l 608 1073 q 623 1072 613 1072 q 724 1089 673 1072 q 725 1078 725 1086 q 677 938 725 1024 q 542 745 629 851 l 522 750 z "},"ţ":{"ha":467,"x_min":-62,"x_max":521,"o":"m 168 118 q 163 87 163 102 q 180 45 163 59 q 224 32 197 32 q 289 62 258 32 q 347 171 319 92 l 367 225 l 393 225 l 364 138 q 288 16 335 52 q 174 -20 241 -20 q 142 -18 156 -20 l 103 -100 q 160 -90 129 -90 q 204 -105 188 -90 q 220 -146 220 -120 q 193 -210 220 -184 q 127 -249 167 -236 q 49 -261 87 -261 q -17 -252 13 -261 q -62 -231 -47 -243 l -53 -210 q -16 -223 -33 -218 q 31 -228 1 -228 q 72 -221 49 -228 q 113 -198 96 -214 q 131 -157 131 -182 q 92 -123 131 -123 q 49 -134 69 -123 l 109 -8 q 50 96 50 18 q 62 175 50 129 l 210 686 l 85 686 l 92 714 l 218 714 l 278 925 q 403 945 355 927 l 337 714 l 521 714 l 517 686 l 330 686 l 168 118 z "},"ț":{"ha":467,"x_min":17,"x_max":521,"o":"m 17 0 m 168 118 q 163 87 163 102 q 180 45 163 59 q 224 32 197 32 q 289 62 258 32 q 347 171 319 92 l 367 225 l 393 225 l 364 138 q 288 16 335 52 q 174 -20 241 -20 q 80 11 111 -20 q 50 96 50 41 q 62 175 50 129 l 210 686 l 85 686 l 92 714 l 218 714 l 278 925 q 403 945 355 927 l 337 714 l 521 714 l 517 686 l 330 686 l 168 118 m 107 -96 q 163 -118 143 -96 q 184 -176 184 -141 q 155 -268 184 -229 q 47 -335 126 -308 l 38 -311 q 107 -276 76 -300 q 140 -222 138 -253 q 113 -238 130 -232 q 79 -244 96 -244 q 34 -229 52 -244 q 17 -186 17 -214 q 28 -144 17 -165 q 59 -109 39 -123 q 107 -96 79 -96 z "},"u":{"ha":787,"x_min":40,"x_max":720,"o":"m 720 225 l 685 123 q 517 -20 635 -20 q 474 -10 494 -20 q 446 18 455 0 q 437 61 437 35 q 457 175 437 98 l 501 349 q 394 134 446 215 q 289 17 342 53 q 176 -20 236 -20 q 59 87 59 -20 q 79 191 59 131 l 214 596 q 224 648 224 630 q 192 682 224 682 q 138 651 163 682 q 85 541 112 619 l 66 489 l 40 489 l 75 590 q 243 733 124 733 q 340 647 340 733 q 318 539 340 609 l 186 142 q 172 73 172 101 q 216 25 172 25 q 334 102 269 25 q 461 318 399 180 q 572 631 524 456 l 593 714 q 720 733 672 716 l 547 118 q 537 64 537 83 q 567 32 537 32 q 623 65 597 32 q 675 174 648 98 l 693 225 l 720 225 z "},"ú":{"ha":787,"x_min":40,"x_max":720,"o":"m 40 0 m 720 225 l 685 123 q 517 -20 635 -20 q 474 -10 494 -20 q 446 18 455 0 q 437 61 437 35 q 457 175 437 98 l 501 349 q 394 134 446 215 q 289 17 342 53 q 176 -20 236 -20 q 59 87 59 -20 q 79 191 59 131 l 214 596 q 224 648 224 630 q 192 682 224 682 q 138 651 163 682 q 85 541 112 619 l 66 489 l 40 489 l 75 590 q 243 733 124 733 q 340 647 340 733 q 318 539 340 609 l 186 142 q 172 73 172 101 q 216 25 172 25 q 334 102 269 25 q 461 318 399 180 q 572 631 524 456 l 593 714 q 720 733 672 716 l 547 118 q 537 64 537 83 q 567 32 537 32 q 623 65 597 32 q 675 174 648 98 l 693 225 l 720 225 m 387 844 q 515 1008 445 912 q 595 1108 570 1083 q 652 1139 623 1139 q 683 1129 669 1139 q 694 1102 694 1118 q 663 1043 694 1074 q 569 966 636 1015 q 401 832 473 896 l 387 844 z "},"ŭ":{"ha":787,"x_min":40,"x_max":790,"o":"m 40 0 m 720 225 l 685 123 q 517 -20 635 -20 q 474 -10 494 -20 q 446 18 455 0 q 437 61 437 35 q 457 175 437 98 l 501 349 q 394 134 446 215 q 289 17 342 53 q 176 -20 236 -20 q 59 87 59 -20 q 79 191 59 131 l 214 596 q 224 648 224 630 q 192 682 224 682 q 138 651 163 682 q 85 541 112 619 l 66 489 l 40 489 l 75 590 q 243 733 124 733 q 340 647 340 733 q 318 539 340 609 l 186 142 q 172 73 172 101 q 216 25 172 25 q 334 102 269 25 q 461 318 399 180 q 572 631 524 456 l 593 714 q 720 733 672 716 l 547 118 q 537 64 537 83 q 567 32 537 32 q 623 65 597 32 q 675 174 648 98 l 693 225 l 720 225 m 489 972 q 638 1005 557 972 q 777 1095 718 1038 l 790 1079 q 700 985 756 1031 q 580 909 643 939 q 465 879 517 879 q 349 935 392 879 q 292 1082 305 991 l 314 1089 q 359 1020 336 1045 q 413 983 382 994 q 489 972 444 972 z "},"û":{"ha":787,"x_min":40,"x_max":720,"o":"m 40 0 m 720 225 l 685 123 q 517 -20 635 -20 q 474 -10 494 -20 q 446 18 455 0 q 437 61 437 35 q 457 175 437 98 l 501 349 q 394 134 446 215 q 289 17 342 53 q 176 -20 236 -20 q 59 87 59 -20 q 79 191 59 131 l 214 596 q 224 648 224 630 q 192 682 224 682 q 138 651 163 682 q 85 541 112 619 l 66 489 l 40 489 l 75 590 q 243 733 124 733 q 340 647 340 733 q 318 539 340 609 l 186 142 q 172 73 172 101 q 216 25 172 25 q 334 102 269 25 q 461 318 399 180 q 572 631 524 456 l 593 714 q 720 733 672 716 l 547 118 q 537 64 537 83 q 567 32 537 32 q 623 65 597 32 q 675 174 648 98 l 693 225 l 720 225 m 460 1000 q 216 856 338 905 l 210 875 q 379 978 300 913 q 509 1114 458 1042 l 533 1114 q 586 971 548 1027 q 699 875 624 915 l 693 856 q 560 913 612 878 q 460 1000 508 947 z "},"ü":{"ha":787,"x_min":40,"x_max":726,"o":"m 40 0 m 720 225 l 685 123 q 517 -20 635 -20 q 474 -10 494 -20 q 446 18 455 0 q 437 61 437 35 q 457 175 437 98 l 501 349 q 394 134 446 215 q 289 17 342 53 q 176 -20 236 -20 q 59 87 59 -20 q 79 191 59 131 l 214 596 q 224 648 224 630 q 192 682 224 682 q 138 651 163 682 q 85 541 112 619 l 66 489 l 40 489 l 75 590 q 243 733 124 733 q 340 647 340 733 q 318 539 340 609 l 186 142 q 172 73 172 101 q 216 25 172 25 q 334 102 269 25 q 461 318 399 180 q 572 631 524 456 l 593 714 q 720 733 672 716 l 547 118 q 537 64 537 83 q 567 32 537 32 q 623 65 597 32 q 675 174 648 98 l 693 225 l 720 225 m 269 942 q 282 984 269 963 q 317 1019 295 1005 q 363 1032 338 1032 q 412 1012 392 1032 q 432 962 432 991 q 419 919 432 940 q 385 884 406 897 q 339 871 363 871 q 289 891 308 871 q 269 942 269 911 m 564 942 q 577 984 564 963 q 611 1019 590 1005 q 657 1032 633 1032 q 706 1012 686 1032 q 726 962 726 991 q 713 919 726 940 q 679 884 701 897 q 633 871 658 871 q 584 891 603 871 q 564 942 564 911 z "},"ù":{"ha":787,"x_min":40,"x_max":720,"o":"m 40 0 m 720 225 l 685 123 q 517 -20 635 -20 q 474 -10 494 -20 q 446 18 455 0 q 437 61 437 35 q 457 175 437 98 l 501 349 q 394 134 446 215 q 289 17 342 53 q 176 -20 236 -20 q 59 87 59 -20 q 79 191 59 131 l 214 596 q 224 648 224 630 q 192 682 224 682 q 138 651 163 682 q 85 541 112 619 l 66 489 l 40 489 l 75 590 q 243 733 124 733 q 340 647 340 733 q 318 539 340 609 l 186 142 q 172 73 172 101 q 216 25 172 25 q 334 102 269 25 q 461 318 399 180 q 572 631 524 456 l 593 714 q 720 733 672 716 l 547 118 q 537 64 537 83 q 567 32 537 32 q 623 65 597 32 q 675 174 648 98 l 693 225 l 720 225 m 469 832 q 342 996 418 905 q 271 1089 290 1057 q 256 1133 256 1112 q 279 1173 256 1161 q 300 1177 289 1177 q 361 1133 336 1177 q 406 1029 376 1106 q 488 840 452 913 l 469 832 z "},"ű":{"ha":787,"x_min":40,"x_max":792,"o":"m 40 0 m 720 225 l 685 123 q 517 -20 635 -20 q 474 -10 494 -20 q 446 18 455 0 q 437 61 437 35 q 457 175 437 98 l 501 349 q 394 134 446 215 q 289 17 342 53 q 176 -20 236 -20 q 59 87 59 -20 q 79 191 59 131 l 214 596 q 224 648 224 630 q 192 682 224 682 q 138 651 163 682 q 85 541 112 619 l 66 489 l 40 489 l 75 590 q 243 733 124 733 q 340 647 340 733 q 318 539 340 609 l 186 142 q 172 73 172 101 q 216 25 172 25 q 334 102 269 25 q 461 318 399 180 q 572 631 524 456 l 593 714 q 720 733 672 716 l 547 118 q 537 64 537 83 q 567 32 537 32 q 623 65 597 32 q 675 174 648 98 l 693 225 l 720 225 m 292 844 q 387 1013 336 914 q 443 1108 425 1084 q 496 1139 467 1139 q 526 1129 513 1139 q 545 1090 545 1114 q 526 1043 545 1068 q 447 966 507 1018 q 307 832 359 887 l 292 844 m 539 844 q 633 1010 586 918 q 690 1108 669 1081 q 743 1139 714 1139 q 774 1129 761 1139 q 792 1090 792 1114 q 774 1043 792 1067 q 695 966 754 1018 q 554 832 614 896 l 539 844 z "},"ū":{"ha":787,"x_min":40,"x_max":720,"o":"m 40 0 m 720 225 l 685 123 q 517 -20 635 -20 q 474 -10 494 -20 q 446 18 455 0 q 437 61 437 35 q 457 175 437 98 l 501 349 q 394 134 446 215 q 289 17 342 53 q 176 -20 236 -20 q 59 87 59 -20 q 79 191 59 131 l 214 596 q 224 648 224 630 q 192 682 224 682 q 138 651 163 682 q 85 541 112 619 l 66 489 l 40 489 l 75 590 q 243 733 124 733 q 340 647 340 733 q 318 539 340 609 l 186 142 q 172 73 172 101 q 216 25 172 25 q 334 102 269 25 q 461 318 399 180 q 572 631 524 456 l 593 714 q 720 733 672 716 l 547 118 q 537 64 537 83 q 567 32 537 32 q 623 65 597 32 q 675 174 648 98 l 693 225 l 720 225 m 275 954 l 283 989 l 717 989 l 708 954 l 275 954 z "},"ų":{"ha":787,"x_min":40,"x_max":720,"o":"m 720 225 l 685 123 q 537 -18 640 -7 q 464 -72 493 -40 q 435 -142 435 -103 q 449 -181 435 -168 q 488 -195 463 -195 q 540 -182 513 -195 q 582 -151 566 -170 l 599 -167 q 429 -261 520 -261 q 355 -239 382 -261 q 329 -179 329 -216 q 376 -88 329 -129 q 492 -16 422 -47 q 446 18 460 -9 q 437 61 437 35 q 457 175 437 98 l 501 349 q 394 134 446 215 q 289 17 342 53 q 176 -20 236 -20 q 59 87 59 -20 q 79 191 59 131 l 214 596 q 224 648 224 630 q 192 682 224 682 q 138 651 163 682 q 85 541 112 619 l 66 489 l 40 489 l 75 590 q 243 733 124 733 q 340 647 340 733 q 318 539 340 609 l 186 142 q 172 73 172 101 q 216 25 172 25 q 334 102 269 25 q 461 318 399 180 q 572 631 524 456 l 593 714 q 720 733 672 716 l 547 118 q 537 64 537 83 q 567 32 537 32 q 623 65 597 32 q 675 174 648 98 l 693 225 l 720 225 z "}}}
